%TF.GenerationSoftware,KiCad,Pcbnew,9.0.4*%
%TF.CreationDate,2025-10-10T16:09:38+02:00*%
%TF.ProjectId,ali-sensor,616c692d-7365-46e7-936f-722e6b696361,rev?*%
%TF.SameCoordinates,Original*%
%TF.FileFunction,Legend,Bot*%
%TF.FilePolarity,Positive*%
%FSLAX46Y46*%
G04 Gerber Fmt 4.6, Leading zero omitted, Abs format (unit mm)*
G04 Created by KiCad (PCBNEW 9.0.4) date 2025-10-10 16:09:38*
%MOMM*%
%LPD*%
G01*
G04 APERTURE LIST*
G04 Aperture macros list*
%AMRoundRect*
0 Rectangle with rounded corners*
0 $1 Rounding radius*
0 $2 $3 $4 $5 $6 $7 $8 $9 X,Y pos of 4 corners*
0 Add a 4 corners polygon primitive as box body*
4,1,4,$2,$3,$4,$5,$6,$7,$8,$9,$2,$3,0*
0 Add four circle primitives for the rounded corners*
1,1,$1+$1,$2,$3*
1,1,$1+$1,$4,$5*
1,1,$1+$1,$6,$7*
1,1,$1+$1,$8,$9*
0 Add four rect primitives between the rounded corners*
20,1,$1+$1,$2,$3,$4,$5,0*
20,1,$1+$1,$4,$5,$6,$7,0*
20,1,$1+$1,$6,$7,$8,$9,0*
20,1,$1+$1,$8,$9,$2,$3,0*%
G04 Aperture macros list end*
%ADD10C,0.300000*%
%ADD11C,0.150000*%
%ADD12C,0.100000*%
%ADD13C,0.120000*%
%ADD14C,3.200000*%
%ADD15O,2.190000X1.740000*%
%ADD16RoundRect,0.250000X0.620000X0.845000X-0.620000X0.845000X-0.620000X-0.845000X0.620000X-0.845000X0*%
%ADD17O,1.740000X2.190000*%
%ADD18C,5.000000*%
%ADD19R,1.700000X1.700000*%
%ADD20C,1.700000*%
%ADD21RoundRect,0.250000X0.845000X-0.620000X0.845000X0.620000X-0.845000X0.620000X-0.845000X-0.620000X0*%
G04 APERTURE END LIST*
D10*
G36*
X137920369Y-85614510D02*
G01*
X136924133Y-85614510D01*
X136924133Y-85960357D01*
X137595770Y-85960357D01*
X137630300Y-86176146D01*
X137564336Y-86149118D01*
X137496943Y-86129251D01*
X137428405Y-86116836D01*
X137361480Y-86112765D01*
X137249707Y-86121904D01*
X137152786Y-86148031D01*
X137068088Y-86190174D01*
X136993650Y-86248686D01*
X136931851Y-86321068D01*
X136888201Y-86401089D01*
X136861604Y-86490334D01*
X136852417Y-86591054D01*
X136860393Y-86685867D01*
X136884365Y-86778376D01*
X136925049Y-86869765D01*
X136980460Y-86952276D01*
X137048711Y-87019911D01*
X137131037Y-87074013D01*
X137222707Y-87111467D01*
X137334993Y-87135695D01*
X137472214Y-87144447D01*
X137615614Y-87136870D01*
X137727661Y-87116420D01*
X137828064Y-87080539D01*
X137908920Y-87032614D01*
X137977303Y-86972465D01*
X138030003Y-86906493D01*
X138071150Y-86829904D01*
X138108131Y-86727433D01*
X137679759Y-86681088D01*
X137663750Y-86746957D01*
X137639760Y-86797199D01*
X137608593Y-86834961D01*
X137569050Y-86863684D01*
X137525429Y-86880716D01*
X137476335Y-86886526D01*
X137422089Y-86879271D01*
X137375482Y-86858121D01*
X137334552Y-86822229D01*
X137305049Y-86775972D01*
X137285639Y-86713392D01*
X137278407Y-86629522D01*
X137285836Y-86543614D01*
X137305506Y-86481531D01*
X137335010Y-86437364D01*
X137376152Y-86403987D01*
X137425498Y-86383686D01*
X137485494Y-86376547D01*
X137543853Y-86383695D01*
X137600899Y-86405490D01*
X137641825Y-86432917D01*
X137693406Y-86482976D01*
X138053451Y-86431685D01*
X137920369Y-85614510D01*
G37*
G36*
X136772641Y-85614510D02*
G01*
X136280522Y-85614510D01*
X135944566Y-86687499D01*
X135613739Y-85614510D01*
X135136000Y-85614510D01*
X135695622Y-87121000D01*
X136202762Y-87121000D01*
X136772641Y-85614510D01*
G37*
G36*
X166262858Y-82842150D02*
G01*
X166262858Y-83158688D01*
X166986061Y-83158688D01*
X166986061Y-82516269D01*
X166843752Y-82426795D01*
X166722623Y-82364366D01*
X166619696Y-82324294D01*
X166512714Y-82297138D01*
X166388117Y-82279736D01*
X166243349Y-82273552D01*
X166107107Y-82280064D01*
X165990479Y-82298370D01*
X165890827Y-82326955D01*
X165805818Y-82364777D01*
X165726286Y-82415742D01*
X165656469Y-82477437D01*
X165595615Y-82550600D01*
X165543410Y-82636436D01*
X165492589Y-82759783D01*
X165461223Y-82896867D01*
X165450353Y-83050244D01*
X165457171Y-83173129D01*
X165476875Y-83284421D01*
X165508668Y-83385583D01*
X165552203Y-83477883D01*
X165608881Y-83563156D01*
X165676891Y-83637139D01*
X165757026Y-83700707D01*
X165850606Y-83754213D01*
X165955525Y-83792237D01*
X166090626Y-83817577D01*
X166262766Y-83826937D01*
X166430630Y-83820725D01*
X166551773Y-83804592D01*
X166636366Y-83781782D01*
X166715206Y-83745696D01*
X166783467Y-83699111D01*
X166842354Y-83641648D01*
X166891025Y-83574849D01*
X166932493Y-83494295D01*
X166966277Y-83397833D01*
X166512810Y-83316591D01*
X166489170Y-83371155D01*
X166458082Y-83414421D01*
X166419387Y-83448116D01*
X166373832Y-83472163D01*
X166318930Y-83487379D01*
X166252508Y-83492812D01*
X166178675Y-83485869D01*
X166115094Y-83465984D01*
X166059744Y-83433635D01*
X166011257Y-83388032D01*
X165975067Y-83334123D01*
X165946973Y-83263606D01*
X165928301Y-83172458D01*
X165921406Y-83055831D01*
X165928553Y-82931103D01*
X165947699Y-82835783D01*
X165976130Y-82763984D01*
X166012265Y-82710808D01*
X166061015Y-82666521D01*
X166118273Y-82634615D01*
X166185733Y-82614709D01*
X166265789Y-82607676D01*
X166341910Y-82613331D01*
X166413525Y-82630025D01*
X166485023Y-82658385D01*
X166573351Y-82705587D01*
X166573351Y-82842150D01*
X166262858Y-82842150D01*
G37*
G36*
X167726025Y-82853873D02*
G01*
X167977259Y-82853873D01*
X168120065Y-82863417D01*
X168234220Y-82889600D01*
X168325050Y-82929743D01*
X168396838Y-82982650D01*
X168455673Y-83051214D01*
X168498326Y-83131872D01*
X168525045Y-83227022D01*
X168534499Y-83339947D01*
X168525660Y-83450443D01*
X168500862Y-83542286D01*
X168461650Y-83618904D01*
X168408104Y-83682864D01*
X168341979Y-83732727D01*
X168259249Y-83770295D01*
X168156269Y-83794651D01*
X168028459Y-83803489D01*
X167253965Y-83803489D01*
X167253965Y-83492812D01*
X167726025Y-83492812D01*
X167855260Y-83492812D01*
X167940309Y-83486035D01*
X167995782Y-83468925D01*
X168030382Y-83444636D01*
X168056113Y-83410196D01*
X168071457Y-83371481D01*
X168076727Y-83327124D01*
X168070685Y-83282126D01*
X168053110Y-83243728D01*
X168023330Y-83210254D01*
X167984607Y-83187148D01*
X167925071Y-83170914D01*
X167836850Y-83164550D01*
X167726025Y-83164550D01*
X167726025Y-83492812D01*
X167253965Y-83492812D01*
X167253965Y-82297000D01*
X167726025Y-82297000D01*
X167726025Y-82853873D01*
G37*
G36*
X168789764Y-83803489D02*
G01*
X169260816Y-83803489D01*
X169260816Y-82297000D01*
X168789764Y-82297000D01*
X168789764Y-83803489D01*
G37*
G36*
X170452624Y-82280073D02*
G01*
X170563309Y-82298610D01*
X170660215Y-82327948D01*
X170745141Y-82367341D01*
X170824885Y-82419353D01*
X170893816Y-82480071D01*
X170952830Y-82549931D01*
X171002421Y-82629750D01*
X171039397Y-82714363D01*
X171067292Y-82813023D01*
X171085119Y-82927918D01*
X171091447Y-83061510D01*
X171082260Y-83208190D01*
X171056170Y-83335278D01*
X171014750Y-83445669D01*
X170958668Y-83541778D01*
X170887657Y-83625436D01*
X170803460Y-83695120D01*
X170705707Y-83750506D01*
X170592347Y-83791662D01*
X170460727Y-83817723D01*
X170307702Y-83826937D01*
X170159207Y-83817703D01*
X170030304Y-83791463D01*
X169918123Y-83749781D01*
X169820262Y-83693331D01*
X169734892Y-83621864D01*
X169663191Y-83536787D01*
X169606549Y-83439117D01*
X169564713Y-83327005D01*
X169538363Y-83198015D01*
X169529087Y-83049237D01*
X169529246Y-83046306D01*
X169999132Y-83046306D01*
X170005756Y-83163519D01*
X170023514Y-83253282D01*
X170049891Y-83321047D01*
X170083396Y-83371363D01*
X170128829Y-83414147D01*
X170180284Y-83444393D01*
X170238972Y-83462917D01*
X170306695Y-83469365D01*
X170377857Y-83462900D01*
X170438685Y-83444465D01*
X170491166Y-83414656D01*
X170536680Y-83372920D01*
X170570864Y-83323162D01*
X170597342Y-83258129D01*
X170614915Y-83174116D01*
X170621402Y-83066639D01*
X170614731Y-82936217D01*
X170597156Y-82839811D01*
X170571666Y-82770160D01*
X170540161Y-82721158D01*
X170496392Y-82679939D01*
X170444745Y-82650294D01*
X170383643Y-82631801D01*
X170310816Y-82625262D01*
X170240330Y-82631802D01*
X170180064Y-82650467D01*
X170128024Y-82680707D01*
X170082846Y-82723173D01*
X170049517Y-82773508D01*
X170023312Y-82841037D01*
X170005695Y-82930199D01*
X169999132Y-83046306D01*
X169529246Y-83046306D01*
X169536292Y-82916718D01*
X169556778Y-82800912D01*
X169589245Y-82699582D01*
X169632951Y-82610790D01*
X169690235Y-82527328D01*
X169754296Y-82457594D01*
X169825392Y-82400273D01*
X169904152Y-82354519D01*
X170018526Y-82311450D01*
X170157553Y-82283594D01*
X170326112Y-82273552D01*
X170452624Y-82280073D01*
G37*
D11*
G36*
X146714333Y-126534058D02*
G01*
X146695526Y-126682704D01*
X146733786Y-126690675D01*
X146763416Y-126703591D01*
X146786140Y-126720953D01*
X146803612Y-126743314D01*
X146813931Y-126768163D01*
X146817452Y-126796375D01*
X146813417Y-126826503D01*
X146801571Y-126852851D01*
X146781353Y-126876438D01*
X146755490Y-126894004D01*
X146723558Y-126905023D01*
X146683900Y-126908971D01*
X146646392Y-126905189D01*
X146616264Y-126894637D01*
X146591919Y-126877806D01*
X146572891Y-126855273D01*
X146561755Y-126830265D01*
X146557969Y-126801846D01*
X146560567Y-126771176D01*
X146569448Y-126731357D01*
X146445422Y-126748308D01*
X146442775Y-126788934D01*
X146433496Y-126819870D01*
X146418555Y-126843367D01*
X146397630Y-126861492D01*
X146372768Y-126872388D01*
X146342742Y-126876193D01*
X146316938Y-126873326D01*
X146295932Y-126865237D01*
X146278653Y-126852111D01*
X146265591Y-126834761D01*
X146257558Y-126813806D01*
X146254717Y-126788217D01*
X146257775Y-126763065D01*
X146266725Y-126740896D01*
X146281828Y-126720953D01*
X146301565Y-126705470D01*
X146327437Y-126694039D01*
X146361011Y-126687101D01*
X146337173Y-126545538D01*
X146289103Y-126557862D01*
X146250672Y-126572863D01*
X146220327Y-126590087D01*
X146193634Y-126612184D01*
X146170770Y-126639630D01*
X146151598Y-126673130D01*
X146137869Y-126709423D01*
X146129440Y-126749039D01*
X146126538Y-126792565D01*
X146131377Y-126848140D01*
X146145201Y-126896025D01*
X146167546Y-126937648D01*
X146198736Y-126974037D01*
X146230066Y-126999219D01*
X146262420Y-127016574D01*
X146296254Y-127026854D01*
X146332191Y-127030311D01*
X146371775Y-127025913D01*
X146407627Y-127012963D01*
X146440731Y-126991119D01*
X146471680Y-126959136D01*
X146500621Y-126914979D01*
X146514839Y-126958440D01*
X146536819Y-126994758D01*
X146566859Y-127025084D01*
X146603039Y-127047788D01*
X146644019Y-127061581D01*
X146691081Y-127066361D01*
X146742322Y-127061472D01*
X146788772Y-127047161D01*
X146831483Y-127023372D01*
X146871186Y-126989278D01*
X146903646Y-126948573D01*
X146926689Y-126903663D01*
X146940767Y-126853694D01*
X146945631Y-126797498D01*
X146941373Y-126743828D01*
X146929129Y-126696564D01*
X146909290Y-126654602D01*
X146881688Y-126617101D01*
X146847487Y-126585270D01*
X146808708Y-126560985D01*
X146764656Y-126543868D01*
X146714333Y-126534058D01*
G37*
G36*
X146930000Y-127194491D02*
G01*
X146776810Y-127194491D01*
X146776810Y-127348022D01*
X146930000Y-127348022D01*
X146930000Y-127194491D01*
G37*
G36*
X146714333Y-127467261D02*
G01*
X146695526Y-127615907D01*
X146733786Y-127623878D01*
X146763416Y-127636794D01*
X146786140Y-127654156D01*
X146803612Y-127676517D01*
X146813931Y-127701366D01*
X146817452Y-127729578D01*
X146813417Y-127759706D01*
X146801571Y-127786054D01*
X146781353Y-127809641D01*
X146755490Y-127827207D01*
X146723558Y-127838226D01*
X146683900Y-127842174D01*
X146646392Y-127838392D01*
X146616264Y-127827840D01*
X146591919Y-127811009D01*
X146572891Y-127788476D01*
X146561755Y-127763468D01*
X146557969Y-127735049D01*
X146560567Y-127704379D01*
X146569448Y-127664561D01*
X146445422Y-127681511D01*
X146442775Y-127722137D01*
X146433496Y-127753073D01*
X146418555Y-127776570D01*
X146397630Y-127794695D01*
X146372768Y-127805591D01*
X146342742Y-127809397D01*
X146316938Y-127806529D01*
X146295932Y-127798440D01*
X146278653Y-127785314D01*
X146265591Y-127767964D01*
X146257558Y-127747009D01*
X146254717Y-127721420D01*
X146257775Y-127696268D01*
X146266725Y-127674099D01*
X146281828Y-127654156D01*
X146301565Y-127638673D01*
X146327437Y-127627242D01*
X146361011Y-127620304D01*
X146337173Y-127478741D01*
X146289103Y-127491065D01*
X146250672Y-127506066D01*
X146220327Y-127523290D01*
X146193634Y-127545387D01*
X146170770Y-127572833D01*
X146151598Y-127606333D01*
X146137869Y-127642626D01*
X146129440Y-127682242D01*
X146126538Y-127725768D01*
X146131377Y-127781343D01*
X146145201Y-127829228D01*
X146167546Y-127870851D01*
X146198736Y-127907240D01*
X146230066Y-127932422D01*
X146262420Y-127949777D01*
X146296254Y-127960057D01*
X146332191Y-127963514D01*
X146371775Y-127959116D01*
X146407627Y-127946166D01*
X146440731Y-127924322D01*
X146471680Y-127892339D01*
X146500621Y-127848182D01*
X146514839Y-127891643D01*
X146536819Y-127927961D01*
X146566859Y-127958287D01*
X146603039Y-127980991D01*
X146644019Y-127994785D01*
X146691081Y-127999564D01*
X146742322Y-127994675D01*
X146788772Y-127980364D01*
X146831483Y-127956576D01*
X146871186Y-127922481D01*
X146903646Y-127881776D01*
X146926689Y-127836866D01*
X146940767Y-127786897D01*
X146945631Y-127730702D01*
X146941373Y-127677031D01*
X146929129Y-127629767D01*
X146909290Y-127587805D01*
X146881688Y-127550304D01*
X146847487Y-127518473D01*
X146808708Y-127494188D01*
X146764656Y-127477071D01*
X146714333Y-127467261D01*
G37*
G36*
X146930000Y-128333151D02*
G01*
X146126538Y-128046801D01*
X146126538Y-128222216D01*
X146720537Y-128424986D01*
X146126538Y-128621162D01*
X146126538Y-128792767D01*
X146930000Y-128505831D01*
X146930000Y-128333151D01*
G37*
D10*
G36*
X135174070Y-91231856D02*
G01*
X135786539Y-91231856D01*
X135786539Y-91560119D01*
X135174070Y-91560119D01*
X135174070Y-91231856D01*
G37*
G36*
X137355219Y-91026692D02*
G01*
X137747687Y-91026692D01*
X137747687Y-90633950D01*
X138084468Y-90633950D01*
X138084468Y-91026692D01*
X138478950Y-91026692D01*
X138478950Y-91360817D01*
X138084468Y-91360817D01*
X138084468Y-91753559D01*
X137747687Y-91753559D01*
X137747687Y-91360817D01*
X137355219Y-91360817D01*
X137355219Y-91026692D01*
G37*
D11*
G36*
X164137854Y-93296127D02*
G01*
X164137854Y-93161695D01*
X163789222Y-93161695D01*
X163789222Y-93482191D01*
X163825302Y-93511550D01*
X163873556Y-93540370D01*
X163936501Y-93568408D01*
X164001633Y-93589226D01*
X164066610Y-93601544D01*
X164131895Y-93605631D01*
X164194698Y-93602099D01*
X164251676Y-93591879D01*
X164303573Y-93575369D01*
X164351030Y-93552728D01*
X164394963Y-93523318D01*
X164432725Y-93488544D01*
X164464816Y-93448068D01*
X164491469Y-93401297D01*
X164517413Y-93334270D01*
X164533121Y-93263161D01*
X164538461Y-93187096D01*
X164535002Y-93124423D01*
X164524933Y-93066729D01*
X164508565Y-93013389D01*
X164485998Y-92963859D01*
X164456702Y-92917849D01*
X164421619Y-92877834D01*
X164380397Y-92843325D01*
X164332418Y-92814089D01*
X164279578Y-92792655D01*
X164216323Y-92778940D01*
X164140590Y-92774033D01*
X164065038Y-92778542D01*
X164002342Y-92791088D01*
X163950422Y-92810548D01*
X163907533Y-92836315D01*
X163869523Y-92870210D01*
X163839092Y-92909696D01*
X163815769Y-92955450D01*
X163799578Y-93008506D01*
X163960241Y-93039769D01*
X163975112Y-93002457D01*
X163996244Y-92971501D01*
X164023939Y-92945980D01*
X164056643Y-92927305D01*
X164095070Y-92915688D01*
X164140590Y-92911591D01*
X164192672Y-92916155D01*
X164237260Y-92929162D01*
X164275758Y-92950142D01*
X164309166Y-92979392D01*
X164335040Y-93014716D01*
X164354537Y-93058679D01*
X164367165Y-93113149D01*
X164371741Y-93180453D01*
X164367047Y-93253413D01*
X164354154Y-93312032D01*
X164334385Y-93358911D01*
X164308385Y-93396168D01*
X164274300Y-93427571D01*
X164235899Y-93449770D01*
X164192311Y-93463353D01*
X164142251Y-93468073D01*
X164091818Y-93463124D01*
X164040304Y-93447899D01*
X163991920Y-93425062D01*
X163952621Y-93398953D01*
X163952621Y-93296127D01*
X164137854Y-93296127D01*
G37*
G36*
X163639892Y-93590000D02*
G01*
X163478154Y-93590000D01*
X163478154Y-93286748D01*
X163372690Y-93286748D01*
X163269320Y-93283396D01*
X163204896Y-93275219D01*
X163163333Y-93261400D01*
X163120974Y-93237166D01*
X163095524Y-93216030D01*
X163072869Y-93189844D01*
X163052928Y-93157983D01*
X163038558Y-93123378D01*
X163029416Y-93082343D01*
X163026326Y-93036106D01*
X163192879Y-93036106D01*
X163197569Y-93070411D01*
X163211197Y-93099511D01*
X163232819Y-93122977D01*
X163261755Y-93139518D01*
X163301890Y-93148241D01*
X163389641Y-93152316D01*
X163478154Y-93152316D01*
X163478154Y-92920969D01*
X163399997Y-92920969D01*
X163319796Y-92922751D01*
X163283591Y-92926538D01*
X163258668Y-92933860D01*
X163237187Y-92945839D01*
X163218573Y-92962686D01*
X163204516Y-92983266D01*
X163195901Y-93007416D01*
X163192879Y-93036106D01*
X163026326Y-93036106D01*
X163026159Y-93033614D01*
X163031774Y-92971243D01*
X163047531Y-92919848D01*
X163072614Y-92877250D01*
X163106639Y-92841107D01*
X163144833Y-92815211D01*
X163187945Y-92798604D01*
X163245391Y-92790465D01*
X163380311Y-92786538D01*
X163639892Y-92786538D01*
X163639892Y-93590000D01*
G37*
G36*
X162954156Y-93293538D02*
G01*
X162954156Y-93427431D01*
X162626235Y-93427431D01*
X162626235Y-93590000D01*
X162477589Y-93590000D01*
X162477589Y-93427431D01*
X162378133Y-93427431D01*
X162378133Y-93293000D01*
X162477589Y-93293000D01*
X162626235Y-93293000D01*
X162810443Y-93293000D01*
X162626235Y-93024235D01*
X162626235Y-93293000D01*
X162477589Y-93293000D01*
X162477589Y-92786538D01*
X162606598Y-92786538D01*
X162954156Y-93293538D01*
G37*
G36*
X164137854Y-90756127D02*
G01*
X164137854Y-90621695D01*
X163789222Y-90621695D01*
X163789222Y-90942191D01*
X163825302Y-90971550D01*
X163873556Y-91000370D01*
X163936501Y-91028408D01*
X164001633Y-91049226D01*
X164066610Y-91061544D01*
X164131895Y-91065631D01*
X164194698Y-91062099D01*
X164251676Y-91051879D01*
X164303573Y-91035369D01*
X164351030Y-91012728D01*
X164394963Y-90983318D01*
X164432725Y-90948544D01*
X164464816Y-90908068D01*
X164491469Y-90861297D01*
X164517413Y-90794270D01*
X164533121Y-90723161D01*
X164538461Y-90647096D01*
X164535002Y-90584423D01*
X164524933Y-90526729D01*
X164508565Y-90473389D01*
X164485998Y-90423859D01*
X164456702Y-90377849D01*
X164421619Y-90337834D01*
X164380397Y-90303325D01*
X164332418Y-90274089D01*
X164279578Y-90252655D01*
X164216323Y-90238940D01*
X164140590Y-90234033D01*
X164065038Y-90238542D01*
X164002342Y-90251088D01*
X163950422Y-90270548D01*
X163907533Y-90296315D01*
X163869523Y-90330210D01*
X163839092Y-90369696D01*
X163815769Y-90415450D01*
X163799578Y-90468506D01*
X163960241Y-90499769D01*
X163975112Y-90462457D01*
X163996244Y-90431501D01*
X164023939Y-90405980D01*
X164056643Y-90387305D01*
X164095070Y-90375688D01*
X164140590Y-90371591D01*
X164192672Y-90376155D01*
X164237260Y-90389162D01*
X164275758Y-90410142D01*
X164309166Y-90439392D01*
X164335040Y-90474716D01*
X164354537Y-90518679D01*
X164367165Y-90573149D01*
X164371741Y-90640453D01*
X164367047Y-90713413D01*
X164354154Y-90772032D01*
X164334385Y-90818911D01*
X164308385Y-90856168D01*
X164274300Y-90887571D01*
X164235899Y-90909770D01*
X164192311Y-90923353D01*
X164142251Y-90928073D01*
X164091818Y-90923124D01*
X164040304Y-90907899D01*
X163991920Y-90885062D01*
X163952621Y-90858953D01*
X163952621Y-90756127D01*
X164137854Y-90756127D01*
G37*
G36*
X163639892Y-91050000D02*
G01*
X163478154Y-91050000D01*
X163478154Y-90746748D01*
X163372690Y-90746748D01*
X163269320Y-90743396D01*
X163204896Y-90735219D01*
X163163333Y-90721400D01*
X163120974Y-90697166D01*
X163095524Y-90676030D01*
X163072869Y-90649844D01*
X163052928Y-90617983D01*
X163038558Y-90583378D01*
X163029416Y-90542343D01*
X163026326Y-90496106D01*
X163192879Y-90496106D01*
X163197569Y-90530411D01*
X163211197Y-90559511D01*
X163232819Y-90582977D01*
X163261755Y-90599518D01*
X163301890Y-90608241D01*
X163389641Y-90612316D01*
X163478154Y-90612316D01*
X163478154Y-90380969D01*
X163399997Y-90380969D01*
X163319796Y-90382751D01*
X163283591Y-90386538D01*
X163258668Y-90393860D01*
X163237187Y-90405839D01*
X163218573Y-90422686D01*
X163204516Y-90443266D01*
X163195901Y-90467416D01*
X163192879Y-90496106D01*
X163026326Y-90496106D01*
X163026159Y-90493614D01*
X163031774Y-90431243D01*
X163047531Y-90379848D01*
X163072614Y-90337250D01*
X163106639Y-90301107D01*
X163144833Y-90275211D01*
X163187945Y-90258604D01*
X163245391Y-90250465D01*
X163380311Y-90246538D01*
X163639892Y-90246538D01*
X163639892Y-91050000D01*
G37*
G36*
X162925189Y-90846985D02*
G01*
X162772146Y-90831158D01*
X162764592Y-90864356D01*
X162751618Y-90891396D01*
X162733360Y-90913419D01*
X162710446Y-90930428D01*
X162685907Y-90940361D01*
X162659013Y-90943705D01*
X162628807Y-90939311D01*
X162602029Y-90926262D01*
X162577631Y-90903600D01*
X162560188Y-90874878D01*
X162548606Y-90835620D01*
X162544267Y-90782602D01*
X162548532Y-90733076D01*
X162559970Y-90696188D01*
X162577338Y-90668981D01*
X162601540Y-90647959D01*
X162629798Y-90635421D01*
X162663409Y-90631074D01*
X162694874Y-90634611D01*
X162724717Y-90645225D01*
X162753614Y-90663450D01*
X162782013Y-90690474D01*
X162906626Y-90672156D01*
X162827931Y-90255917D01*
X162421853Y-90255917D01*
X162421853Y-90399727D01*
X162711525Y-90399727D01*
X162735558Y-90534549D01*
X162700607Y-90520291D01*
X162665759Y-90511919D01*
X162630632Y-90509148D01*
X162581104Y-90513926D01*
X162536370Y-90527895D01*
X162495381Y-90551102D01*
X162457415Y-90584375D01*
X162426840Y-90623949D01*
X162404795Y-90668938D01*
X162391122Y-90720373D01*
X162386340Y-90779623D01*
X162390011Y-90828889D01*
X162400793Y-90874688D01*
X162418611Y-90917657D01*
X162443737Y-90958311D01*
X162477744Y-90997249D01*
X162515756Y-91026866D01*
X162558281Y-91048056D01*
X162606194Y-91061099D01*
X162660674Y-91065631D01*
X162715808Y-91061592D01*
X162763572Y-91050083D01*
X162805172Y-91031660D01*
X162841560Y-91006378D01*
X162872736Y-90974527D01*
X162896923Y-90937863D01*
X162914458Y-90895685D01*
X162925189Y-90846985D01*
G37*
G36*
X164137854Y-85676127D02*
G01*
X164137854Y-85541695D01*
X163789222Y-85541695D01*
X163789222Y-85862191D01*
X163825302Y-85891550D01*
X163873556Y-85920370D01*
X163936501Y-85948408D01*
X164001633Y-85969226D01*
X164066610Y-85981544D01*
X164131895Y-85985631D01*
X164194698Y-85982099D01*
X164251676Y-85971879D01*
X164303573Y-85955369D01*
X164351030Y-85932728D01*
X164394963Y-85903318D01*
X164432725Y-85868544D01*
X164464816Y-85828068D01*
X164491469Y-85781297D01*
X164517413Y-85714270D01*
X164533121Y-85643161D01*
X164538461Y-85567096D01*
X164535002Y-85504423D01*
X164524933Y-85446729D01*
X164508565Y-85393389D01*
X164485998Y-85343859D01*
X164456702Y-85297849D01*
X164421619Y-85257834D01*
X164380397Y-85223325D01*
X164332418Y-85194089D01*
X164279578Y-85172655D01*
X164216323Y-85158940D01*
X164140590Y-85154033D01*
X164065038Y-85158542D01*
X164002342Y-85171088D01*
X163950422Y-85190548D01*
X163907533Y-85216315D01*
X163869523Y-85250210D01*
X163839092Y-85289696D01*
X163815769Y-85335450D01*
X163799578Y-85388506D01*
X163960241Y-85419769D01*
X163975112Y-85382457D01*
X163996244Y-85351501D01*
X164023939Y-85325980D01*
X164056643Y-85307305D01*
X164095070Y-85295688D01*
X164140590Y-85291591D01*
X164192672Y-85296155D01*
X164237260Y-85309162D01*
X164275758Y-85330142D01*
X164309166Y-85359392D01*
X164335040Y-85394716D01*
X164354537Y-85438679D01*
X164367165Y-85493149D01*
X164371741Y-85560453D01*
X164367047Y-85633413D01*
X164354154Y-85692032D01*
X164334385Y-85738911D01*
X164308385Y-85776168D01*
X164274300Y-85807571D01*
X164235899Y-85829770D01*
X164192311Y-85843353D01*
X164142251Y-85848073D01*
X164091818Y-85843124D01*
X164040304Y-85827899D01*
X163991920Y-85805062D01*
X163952621Y-85778953D01*
X163952621Y-85676127D01*
X164137854Y-85676127D01*
G37*
G36*
X163639892Y-85970000D02*
G01*
X163478154Y-85970000D01*
X163478154Y-85666748D01*
X163372690Y-85666748D01*
X163269320Y-85663396D01*
X163204896Y-85655219D01*
X163163333Y-85641400D01*
X163120974Y-85617166D01*
X163095524Y-85596030D01*
X163072869Y-85569844D01*
X163052928Y-85537983D01*
X163038558Y-85503378D01*
X163029416Y-85462343D01*
X163026326Y-85416106D01*
X163192879Y-85416106D01*
X163197569Y-85450411D01*
X163211197Y-85479511D01*
X163232819Y-85502977D01*
X163261755Y-85519518D01*
X163301890Y-85528241D01*
X163389641Y-85532316D01*
X163478154Y-85532316D01*
X163478154Y-85300969D01*
X163399997Y-85300969D01*
X163319796Y-85302751D01*
X163283591Y-85306538D01*
X163258668Y-85313860D01*
X163237187Y-85325839D01*
X163218573Y-85342686D01*
X163204516Y-85363266D01*
X163195901Y-85387416D01*
X163192879Y-85416106D01*
X163026326Y-85416106D01*
X163026159Y-85413614D01*
X163031774Y-85351243D01*
X163047531Y-85299848D01*
X163072614Y-85257250D01*
X163106639Y-85221107D01*
X163144833Y-85195211D01*
X163187945Y-85178604D01*
X163245391Y-85170465D01*
X163380311Y-85166538D01*
X163639892Y-85166538D01*
X163639892Y-85970000D01*
G37*
G36*
X162927387Y-85319727D02*
G01*
X162927387Y-85175917D01*
X162402167Y-85175917D01*
X162402167Y-85288464D01*
X162442619Y-85333552D01*
X162486606Y-85394019D01*
X162534449Y-85472868D01*
X162575640Y-85554503D01*
X162609780Y-85639540D01*
X162636933Y-85728297D01*
X162657184Y-85819321D01*
X162668349Y-85899470D01*
X162671616Y-85970000D01*
X162819725Y-85970000D01*
X162814173Y-85887639D01*
X162801108Y-85803699D01*
X162780232Y-85717851D01*
X162751141Y-85629769D01*
X162702573Y-85517109D01*
X162644923Y-85414022D01*
X162578168Y-85319727D01*
X162927387Y-85319727D01*
G37*
D10*
G36*
X159969850Y-82449895D02*
G01*
X160072792Y-82462793D01*
X160167363Y-82485279D01*
X160231336Y-82512160D01*
X160304130Y-82561855D01*
X160354801Y-82616757D01*
X160391020Y-82684529D01*
X160421021Y-82785010D01*
X160016830Y-82826592D01*
X159986176Y-82763354D01*
X159952716Y-82729781D01*
X159894741Y-82706710D01*
X159800583Y-82697449D01*
X159729514Y-82706328D01*
X159691040Y-82727857D01*
X159669007Y-82765567D01*
X159660083Y-82833187D01*
X159805529Y-82882096D01*
X160109612Y-82948042D01*
X160238554Y-82982742D01*
X160324909Y-83023255D01*
X160379714Y-83067568D01*
X160419935Y-83125190D01*
X160444543Y-83192840D01*
X160453170Y-83273282D01*
X160446720Y-83337715D01*
X160427864Y-83395690D01*
X160396481Y-83448660D01*
X160351320Y-83497588D01*
X160298396Y-83535202D01*
X160233016Y-83563523D01*
X160152550Y-83581829D01*
X160053741Y-83588447D01*
X159956479Y-83583002D01*
X159870906Y-83567468D01*
X159795454Y-83542743D01*
X159716878Y-83499425D01*
X159635628Y-83432284D01*
X159622072Y-83497680D01*
X159590290Y-83565000D01*
X159192419Y-83565000D01*
X159222516Y-83496193D01*
X159236840Y-83450144D01*
X159243704Y-83402678D01*
X159246457Y-83330252D01*
X159246457Y-83111807D01*
X159660083Y-83111807D01*
X159666850Y-83183473D01*
X159684812Y-83235088D01*
X159716898Y-83277526D01*
X159768801Y-83315231D01*
X159830272Y-83339854D01*
X159896937Y-83348112D01*
X159956858Y-83339858D01*
X159995855Y-83318162D01*
X160020820Y-83284156D01*
X160029286Y-83241042D01*
X160021104Y-83202707D01*
X159995397Y-83167403D01*
X159949173Y-83139718D01*
X159835754Y-83102556D01*
X159660083Y-83050349D01*
X159660083Y-83111807D01*
X159246457Y-83111807D01*
X159246457Y-82849307D01*
X159253897Y-82771488D01*
X159277415Y-82686641D01*
X159315403Y-82609089D01*
X159362228Y-82554842D01*
X159416270Y-82515817D01*
X159479312Y-82486320D01*
X159552921Y-82466548D01*
X159676286Y-82451352D01*
X159854897Y-82445390D01*
X159969850Y-82449895D01*
G37*
G36*
X158988079Y-82058510D02*
G01*
X158564195Y-82058510D01*
X158564195Y-83565000D01*
X158988079Y-83565000D01*
X158988079Y-82058510D01*
G37*
G36*
X158288048Y-82058510D02*
G01*
X157865172Y-82058510D01*
X157865172Y-82345739D01*
X158288048Y-82345739D01*
X158288048Y-82058510D01*
G37*
G36*
X158288048Y-82468838D02*
G01*
X157865172Y-82468838D01*
X157865172Y-83565000D01*
X158288048Y-83565000D01*
X158288048Y-82468838D01*
G37*
G36*
X157684372Y-82849856D02*
G01*
X157071902Y-82849856D01*
X157071902Y-83178119D01*
X157684372Y-83178119D01*
X157684372Y-82849856D01*
G37*
G36*
X156979762Y-83260551D02*
G01*
X156560274Y-83218968D01*
X156527692Y-83284270D01*
X156488833Y-83323291D01*
X156438410Y-83345637D01*
X156367567Y-83353974D01*
X156290906Y-83344332D01*
X156239248Y-83318894D01*
X156212931Y-83289589D01*
X156204535Y-83255055D01*
X156209390Y-83228959D01*
X156223890Y-83207091D01*
X156250056Y-83188285D01*
X156297366Y-83172609D01*
X156428475Y-83145879D01*
X156629000Y-83105606D01*
X156731183Y-83075628D01*
X156784495Y-83049195D01*
X156832096Y-83012814D01*
X156874615Y-82965536D01*
X156907078Y-82911397D01*
X156926458Y-82852880D01*
X156933050Y-82788582D01*
X156925800Y-82718397D01*
X156904767Y-82656602D01*
X156869944Y-82601370D01*
X156823769Y-82554312D01*
X156766564Y-82515211D01*
X156696562Y-82484042D01*
X156621906Y-82463970D01*
X156525077Y-82450421D01*
X156401364Y-82445390D01*
X156218989Y-82454330D01*
X156112944Y-82475524D01*
X156026412Y-82514535D01*
X155957239Y-82569038D01*
X155901730Y-82641148D01*
X155852092Y-82743977D01*
X156253902Y-82779698D01*
X156275282Y-82734055D01*
X156304552Y-82705143D01*
X156356789Y-82682142D01*
X156421880Y-82674002D01*
X156485753Y-82681022D01*
X156522905Y-82698273D01*
X156546697Y-82725535D01*
X156554229Y-82756708D01*
X156544787Y-82789428D01*
X156514845Y-82814136D01*
X156462101Y-82830824D01*
X156337525Y-82850589D01*
X156143043Y-82881533D01*
X156027123Y-82916260D01*
X155962825Y-82949314D01*
X155911286Y-82989383D01*
X155870777Y-83036611D01*
X155840462Y-83090873D01*
X155822508Y-83147894D01*
X155816463Y-83208802D01*
X155822626Y-83270359D01*
X155841379Y-83331473D01*
X155873799Y-83393175D01*
X155917447Y-83446959D01*
X155976617Y-83494431D01*
X156054234Y-83535599D01*
X156138149Y-83563061D01*
X156247803Y-83581565D01*
X156389091Y-83588447D01*
X156545598Y-83581588D01*
X156664044Y-83563369D01*
X156751871Y-83536790D01*
X156815539Y-83504000D01*
X156873351Y-83457307D01*
X156919551Y-83401947D01*
X156955009Y-83336909D01*
X156979762Y-83260551D01*
G37*
G36*
X155174667Y-82452530D02*
G01*
X155276516Y-82472836D01*
X155365365Y-82505102D01*
X155443056Y-82548784D01*
X155511007Y-82604026D01*
X155582141Y-82688296D01*
X155632998Y-82783909D01*
X155664371Y-82893091D01*
X155675322Y-83018934D01*
X155665741Y-83136719D01*
X155638177Y-83240428D01*
X155593439Y-83332541D01*
X155532584Y-83415093D01*
X155463921Y-83479276D01*
X155386810Y-83527172D01*
X155301315Y-83559093D01*
X155189555Y-83580496D01*
X155045267Y-83588447D01*
X154879128Y-83578872D01*
X154754145Y-83553411D01*
X154661683Y-83515907D01*
X154579805Y-83459377D01*
X154502974Y-83379595D01*
X154430874Y-83272274D01*
X154847796Y-83236646D01*
X154888238Y-83281268D01*
X154920703Y-83305980D01*
X154977106Y-83328842D01*
X155036107Y-83336388D01*
X155096833Y-83328333D01*
X155147912Y-83305056D01*
X155191721Y-83265863D01*
X155214995Y-83230837D01*
X155233112Y-83183182D01*
X155244935Y-83119501D01*
X154409167Y-83119501D01*
X154409167Y-83069675D01*
X154418080Y-82927769D01*
X154420953Y-82914337D01*
X154839461Y-82914337D01*
X155243928Y-82914337D01*
X155225902Y-82829396D01*
X155196758Y-82774294D01*
X155153038Y-82731406D01*
X155101721Y-82706164D01*
X155040229Y-82697449D01*
X154985701Y-82703479D01*
X154940798Y-82720560D01*
X154903392Y-82748374D01*
X154875188Y-82785720D01*
X154853356Y-82839350D01*
X154839461Y-82914337D01*
X154420953Y-82914337D01*
X154442602Y-82813129D01*
X154480241Y-82720896D01*
X154534951Y-82638370D01*
X154603499Y-82570537D01*
X154687329Y-82516099D01*
X154780800Y-82479131D01*
X154902030Y-82454504D01*
X155057631Y-82445390D01*
X155174667Y-82452530D01*
G37*
G36*
X154223603Y-82468838D02*
G01*
X153829395Y-82468838D01*
X153829395Y-82642219D01*
X153771101Y-82577313D01*
X153713885Y-82528118D01*
X153657387Y-82492468D01*
X153595832Y-82467124D01*
X153523665Y-82451079D01*
X153438851Y-82445390D01*
X153352560Y-82452538D01*
X153279823Y-82472736D01*
X153218155Y-82504956D01*
X153165726Y-82549346D01*
X153125232Y-82603632D01*
X153094456Y-82672741D01*
X153074339Y-82760064D01*
X153066991Y-82869823D01*
X153066991Y-83565000D01*
X153491974Y-83565000D01*
X153491974Y-82963979D01*
X153497074Y-82897068D01*
X153510182Y-82851348D01*
X153529068Y-82821097D01*
X153556333Y-82798490D01*
X153590476Y-82784512D01*
X153633573Y-82779515D01*
X153680561Y-82785920D01*
X153720215Y-82804492D01*
X153754382Y-82835935D01*
X153777547Y-82876738D01*
X153794140Y-82941528D01*
X153800727Y-83039816D01*
X153800727Y-83565000D01*
X154223603Y-83565000D01*
X154223603Y-82468838D01*
G37*
G36*
X152898464Y-83260551D02*
G01*
X152478976Y-83218968D01*
X152446394Y-83284270D01*
X152407535Y-83323291D01*
X152357112Y-83345637D01*
X152286269Y-83353974D01*
X152209608Y-83344332D01*
X152157950Y-83318894D01*
X152131633Y-83289589D01*
X152123237Y-83255055D01*
X152128092Y-83228959D01*
X152142592Y-83207091D01*
X152168758Y-83188285D01*
X152216068Y-83172609D01*
X152347177Y-83145879D01*
X152547702Y-83105606D01*
X152649885Y-83075628D01*
X152703197Y-83049195D01*
X152750798Y-83012814D01*
X152793317Y-82965536D01*
X152825780Y-82911397D01*
X152845160Y-82852880D01*
X152851752Y-82788582D01*
X152844502Y-82718397D01*
X152823469Y-82656602D01*
X152788646Y-82601370D01*
X152742471Y-82554312D01*
X152685266Y-82515211D01*
X152615264Y-82484042D01*
X152540608Y-82463970D01*
X152443779Y-82450421D01*
X152320066Y-82445390D01*
X152137691Y-82454330D01*
X152031646Y-82475524D01*
X151945114Y-82514535D01*
X151875941Y-82569038D01*
X151820432Y-82641148D01*
X151770794Y-82743977D01*
X152172604Y-82779698D01*
X152193984Y-82734055D01*
X152223254Y-82705143D01*
X152275491Y-82682142D01*
X152340582Y-82674002D01*
X152404455Y-82681022D01*
X152441607Y-82698273D01*
X152465399Y-82725535D01*
X152472931Y-82756708D01*
X152463489Y-82789428D01*
X152433547Y-82814136D01*
X152380803Y-82830824D01*
X152256227Y-82850589D01*
X152061745Y-82881533D01*
X151945825Y-82916260D01*
X151881527Y-82949314D01*
X151829988Y-82989383D01*
X151789479Y-83036611D01*
X151759164Y-83090873D01*
X151741211Y-83147894D01*
X151735165Y-83208802D01*
X151741328Y-83270359D01*
X151760081Y-83331473D01*
X151792501Y-83393175D01*
X151836149Y-83446959D01*
X151895319Y-83494431D01*
X151972936Y-83535599D01*
X152056851Y-83563061D01*
X152166505Y-83581565D01*
X152307793Y-83588447D01*
X152464300Y-83581588D01*
X152582746Y-83563369D01*
X152670573Y-83536790D01*
X152734241Y-83504000D01*
X152792053Y-83457307D01*
X152838253Y-83401947D01*
X152873711Y-83336909D01*
X152898464Y-83260551D01*
G37*
G36*
X151083935Y-82452596D02*
G01*
X151185549Y-82473176D01*
X151275052Y-82506042D01*
X151354144Y-82550766D01*
X151424122Y-82607598D01*
X151497842Y-82693920D01*
X151550056Y-82789976D01*
X151581966Y-82897746D01*
X151593016Y-83020033D01*
X151584654Y-83125666D01*
X151560441Y-83220254D01*
X151520931Y-83305717D01*
X151465658Y-83383531D01*
X151393164Y-83454632D01*
X151308805Y-83511397D01*
X151211358Y-83553046D01*
X151098441Y-83579220D01*
X150967083Y-83588447D01*
X150847495Y-83581184D01*
X150743507Y-83560539D01*
X150652877Y-83527753D01*
X150573711Y-83483395D01*
X150504548Y-83427338D01*
X150431655Y-83341565D01*
X150379874Y-83245557D01*
X150348137Y-83137265D01*
X150337119Y-83013804D01*
X150337244Y-83012247D01*
X150762010Y-83012247D01*
X150769694Y-83112556D01*
X150789758Y-83183611D01*
X150819163Y-83232799D01*
X150861084Y-83271043D01*
X150909018Y-83293512D01*
X150965068Y-83301217D01*
X151020363Y-83293477D01*
X151068333Y-83270753D01*
X151110972Y-83231791D01*
X151141187Y-83181940D01*
X151161467Y-83112242D01*
X151169133Y-83016369D01*
X151161463Y-82922001D01*
X151141076Y-82852734D01*
X151110514Y-82802595D01*
X151067450Y-82763408D01*
X151018623Y-82740462D01*
X150961954Y-82732620D01*
X150908640Y-82740236D01*
X150861821Y-82762737D01*
X150819621Y-82801588D01*
X150789590Y-82850990D01*
X150769550Y-82919248D01*
X150762010Y-83012247D01*
X150337244Y-83012247D01*
X150345994Y-82903360D01*
X150371658Y-82804876D01*
X150413499Y-82716255D01*
X150472033Y-82635900D01*
X150542535Y-82569695D01*
X150625218Y-82517396D01*
X150721938Y-82478641D01*
X150835231Y-82454091D01*
X150968182Y-82445390D01*
X151083935Y-82452596D01*
G37*
G36*
X150138184Y-82468838D02*
G01*
X149741961Y-82468838D01*
X149741961Y-82637274D01*
X149703931Y-82570011D01*
X149666702Y-82521922D01*
X149630219Y-82489171D01*
X149587787Y-82465350D01*
X149538416Y-82450580D01*
X149480468Y-82445390D01*
X149419682Y-82451174D01*
X149351679Y-82469672D01*
X149274846Y-82503184D01*
X149406188Y-82805435D01*
X149478783Y-82780274D01*
X149524523Y-82773653D01*
X149574584Y-82781208D01*
X149615319Y-82803005D01*
X149649087Y-82840239D01*
X149680482Y-82907963D01*
X149703783Y-83020433D01*
X149713201Y-83196162D01*
X149713201Y-83565000D01*
X150138184Y-83565000D01*
X150138184Y-82468838D01*
G37*
G36*
X148636731Y-82468838D02*
G01*
X148195629Y-82468838D01*
X147986618Y-83152840D01*
X147770646Y-82468838D01*
X147342916Y-82468838D01*
X147807557Y-83565000D01*
X148181340Y-83565000D01*
X148636731Y-82468838D01*
G37*
G36*
X146317279Y-82035062D02*
G01*
X146317279Y-83565000D01*
X146745284Y-83565000D01*
X146745284Y-82571511D01*
X146844470Y-82640058D01*
X146939366Y-82693510D01*
X147042644Y-82738444D01*
X147183914Y-82786384D01*
X147183914Y-82440353D01*
X147043057Y-82387300D01*
X146934203Y-82331786D01*
X146851896Y-82274573D01*
X146779522Y-82205491D01*
X146718150Y-82126006D01*
X146667340Y-82035062D01*
X146317279Y-82035062D01*
G37*
G36*
X145828457Y-83142948D02*
G01*
X145376822Y-83142948D01*
X145376822Y-83565000D01*
X145828457Y-83565000D01*
X145828457Y-83142948D01*
G37*
G36*
X144672892Y-82043071D02*
G01*
X144781877Y-82065520D01*
X144873609Y-82100653D01*
X144950775Y-82147600D01*
X145015404Y-82206429D01*
X145065148Y-82274685D01*
X145107153Y-82363725D01*
X145140232Y-82478134D01*
X145162272Y-82623367D01*
X145170376Y-82805618D01*
X145162466Y-82975398D01*
X145140059Y-83123347D01*
X145115332Y-83218283D01*
X145086740Y-83292756D01*
X145055154Y-83350218D01*
X144999617Y-83422754D01*
X144935620Y-83481581D01*
X144862446Y-83527905D01*
X144781828Y-83559864D01*
X144680741Y-83580804D01*
X144554700Y-83588447D01*
X144415302Y-83579303D01*
X144301852Y-83554024D01*
X144209790Y-83514975D01*
X144135403Y-83463250D01*
X144076046Y-83398579D01*
X144030874Y-83323906D01*
X143992975Y-83230586D01*
X143963461Y-83115058D01*
X143944056Y-82973218D01*
X143937626Y-82815601D01*
X144357871Y-82815601D01*
X144364392Y-83004461D01*
X144379762Y-83112998D01*
X144398624Y-83174810D01*
X144421465Y-83219880D01*
X144447539Y-83251758D01*
X144497637Y-83284501D01*
X144555708Y-83295355D01*
X144599381Y-83289154D01*
X144637160Y-83270942D01*
X144670668Y-83239640D01*
X144700422Y-83192132D01*
X144724656Y-83119656D01*
X144743043Y-82997166D01*
X144750522Y-82804336D01*
X144743718Y-82613508D01*
X144726969Y-82491864D01*
X144704910Y-82419653D01*
X144677276Y-82372779D01*
X144644217Y-82341463D01*
X144605067Y-82322882D01*
X144557815Y-82316430D01*
X144511323Y-82322687D01*
X144471869Y-82340852D01*
X144437668Y-82371610D01*
X144408063Y-82417638D01*
X144384006Y-82489149D01*
X144365484Y-82614118D01*
X144357871Y-82815601D01*
X143937626Y-82815601D01*
X143937010Y-82800489D01*
X143947672Y-82620978D01*
X143979142Y-82450703D01*
X144004940Y-82366133D01*
X144036295Y-82296372D01*
X144077520Y-82232775D01*
X144133656Y-82170068D01*
X144202539Y-82116845D01*
X144293391Y-82072523D01*
X144359701Y-82052800D01*
X144442026Y-82039802D01*
X144543435Y-82035062D01*
X144672892Y-82043071D01*
G37*
D11*
G36*
X164137854Y-88216127D02*
G01*
X164137854Y-88081695D01*
X163789222Y-88081695D01*
X163789222Y-88402191D01*
X163825302Y-88431550D01*
X163873556Y-88460370D01*
X163936501Y-88488408D01*
X164001633Y-88509226D01*
X164066610Y-88521544D01*
X164131895Y-88525631D01*
X164194698Y-88522099D01*
X164251676Y-88511879D01*
X164303573Y-88495369D01*
X164351030Y-88472728D01*
X164394963Y-88443318D01*
X164432725Y-88408544D01*
X164464816Y-88368068D01*
X164491469Y-88321297D01*
X164517413Y-88254270D01*
X164533121Y-88183161D01*
X164538461Y-88107096D01*
X164535002Y-88044423D01*
X164524933Y-87986729D01*
X164508565Y-87933389D01*
X164485998Y-87883859D01*
X164456702Y-87837849D01*
X164421619Y-87797834D01*
X164380397Y-87763325D01*
X164332418Y-87734089D01*
X164279578Y-87712655D01*
X164216323Y-87698940D01*
X164140590Y-87694033D01*
X164065038Y-87698542D01*
X164002342Y-87711088D01*
X163950422Y-87730548D01*
X163907533Y-87756315D01*
X163869523Y-87790210D01*
X163839092Y-87829696D01*
X163815769Y-87875450D01*
X163799578Y-87928506D01*
X163960241Y-87959769D01*
X163975112Y-87922457D01*
X163996244Y-87891501D01*
X164023939Y-87865980D01*
X164056643Y-87847305D01*
X164095070Y-87835688D01*
X164140590Y-87831591D01*
X164192672Y-87836155D01*
X164237260Y-87849162D01*
X164275758Y-87870142D01*
X164309166Y-87899392D01*
X164335040Y-87934716D01*
X164354537Y-87978679D01*
X164367165Y-88033149D01*
X164371741Y-88100453D01*
X164367047Y-88173413D01*
X164354154Y-88232032D01*
X164334385Y-88278911D01*
X164308385Y-88316168D01*
X164274300Y-88347571D01*
X164235899Y-88369770D01*
X164192311Y-88383353D01*
X164142251Y-88388073D01*
X164091818Y-88383124D01*
X164040304Y-88367899D01*
X163991920Y-88345062D01*
X163952621Y-88318953D01*
X163952621Y-88216127D01*
X164137854Y-88216127D01*
G37*
G36*
X163639892Y-88510000D02*
G01*
X163478154Y-88510000D01*
X163478154Y-88206748D01*
X163372690Y-88206748D01*
X163269320Y-88203396D01*
X163204896Y-88195219D01*
X163163333Y-88181400D01*
X163120974Y-88157166D01*
X163095524Y-88136030D01*
X163072869Y-88109844D01*
X163052928Y-88077983D01*
X163038558Y-88043378D01*
X163029416Y-88002343D01*
X163026326Y-87956106D01*
X163192879Y-87956106D01*
X163197569Y-87990411D01*
X163211197Y-88019511D01*
X163232819Y-88042977D01*
X163261755Y-88059518D01*
X163301890Y-88068241D01*
X163389641Y-88072316D01*
X163478154Y-88072316D01*
X163478154Y-87840969D01*
X163399997Y-87840969D01*
X163319796Y-87842751D01*
X163283591Y-87846538D01*
X163258668Y-87853860D01*
X163237187Y-87865839D01*
X163218573Y-87882686D01*
X163204516Y-87903266D01*
X163195901Y-87927416D01*
X163192879Y-87956106D01*
X163026326Y-87956106D01*
X163026159Y-87953614D01*
X163031774Y-87891243D01*
X163047531Y-87839848D01*
X163072614Y-87797250D01*
X163106639Y-87761107D01*
X163144833Y-87735211D01*
X163187945Y-87718604D01*
X163245391Y-87710465D01*
X163380311Y-87706538D01*
X163639892Y-87706538D01*
X163639892Y-88510000D01*
G37*
G36*
X162685519Y-87710596D02*
G01*
X162731409Y-87722365D01*
X162773022Y-87741600D01*
X162811056Y-87768551D01*
X162845956Y-87803942D01*
X162872447Y-87842665D01*
X162894608Y-87891601D01*
X162911868Y-87952789D01*
X162923243Y-88028634D01*
X162927387Y-88121849D01*
X162923395Y-88212879D01*
X162912447Y-88286813D01*
X162895856Y-88346330D01*
X162874594Y-88393804D01*
X162849229Y-88431256D01*
X162815622Y-88465768D01*
X162779377Y-88491907D01*
X162740106Y-88510460D01*
X162697182Y-88521753D01*
X162649780Y-88525631D01*
X162594334Y-88520775D01*
X162545769Y-88506803D01*
X162502799Y-88484053D01*
X162464498Y-88452114D01*
X162433546Y-88413289D01*
X162411172Y-88368619D01*
X162397241Y-88316980D01*
X162392412Y-88257648D01*
X162542655Y-88257648D01*
X162546490Y-88306693D01*
X162556474Y-88341150D01*
X162571085Y-88364773D01*
X162591829Y-88383070D01*
X162615188Y-88393792D01*
X162642111Y-88397452D01*
X162669878Y-88393225D01*
X162695808Y-88380377D01*
X162720806Y-88357543D01*
X162739121Y-88329002D01*
X162750925Y-88292038D01*
X162755244Y-88244263D01*
X162751350Y-88201004D01*
X162740823Y-88168359D01*
X162724665Y-88143879D01*
X162702438Y-88124775D01*
X162677788Y-88113620D01*
X162649780Y-88109832D01*
X162620787Y-88113814D01*
X162595632Y-88125488D01*
X162573284Y-88145443D01*
X162557404Y-88171080D01*
X162546712Y-88207325D01*
X162542655Y-88257648D01*
X162392412Y-88257648D01*
X162392348Y-88256866D01*
X162396947Y-88200320D01*
X162410115Y-88151095D01*
X162431383Y-88107902D01*
X162460932Y-88069776D01*
X162497611Y-88037586D01*
X162536809Y-88015235D01*
X162579185Y-88001845D01*
X162625698Y-87997285D01*
X162666731Y-88001556D01*
X162703591Y-88014052D01*
X162737251Y-88034915D01*
X162768336Y-88065087D01*
X162757798Y-87970450D01*
X162742878Y-87912441D01*
X162725984Y-87879706D01*
X162701036Y-87854043D01*
X162673986Y-87839545D01*
X162643723Y-87834717D01*
X162620225Y-87837321D01*
X162600666Y-87844731D01*
X162584177Y-87856845D01*
X162571537Y-87873022D01*
X162561889Y-87895294D01*
X162555747Y-87925380D01*
X162407101Y-87908771D01*
X162418747Y-87860106D01*
X162435530Y-87819600D01*
X162457066Y-87786003D01*
X162483353Y-87758367D01*
X162514590Y-87736064D01*
X162549674Y-87719971D01*
X162589318Y-87710009D01*
X162634442Y-87706538D01*
X162685519Y-87710596D01*
G37*
G36*
X158458081Y-123594165D02*
G01*
X158310528Y-123579510D01*
X158297662Y-123626071D01*
X158279471Y-123660808D01*
X158256489Y-123686168D01*
X158227527Y-123704446D01*
X158191514Y-123716024D01*
X158146580Y-123720194D01*
X158098555Y-123716244D01*
X158062684Y-123705659D01*
X158036167Y-123689648D01*
X158014945Y-123667319D01*
X158002981Y-123643794D01*
X157999026Y-123618207D01*
X158003014Y-123593688D01*
X158014643Y-123573557D01*
X158034176Y-123557490D01*
X158069231Y-123541500D01*
X158190635Y-123508161D01*
X158271297Y-123483404D01*
X158326245Y-123458128D01*
X158361773Y-123433010D01*
X158392495Y-123399437D01*
X158413800Y-123363336D01*
X158426568Y-123324073D01*
X158430924Y-123280694D01*
X158427333Y-123243104D01*
X158416602Y-123207268D01*
X158398409Y-123172571D01*
X158373919Y-123142065D01*
X158342968Y-123116566D01*
X158304620Y-123095863D01*
X158262983Y-123081744D01*
X158214134Y-123072734D01*
X158156838Y-123069531D01*
X158085125Y-123074136D01*
X158027327Y-123086803D01*
X157980945Y-123106251D01*
X157943934Y-123131859D01*
X157912638Y-123165337D01*
X157889884Y-123203564D01*
X157875204Y-123247409D01*
X157868875Y-123298142D01*
X158020550Y-123304004D01*
X158030324Y-123266949D01*
X158044410Y-123239986D01*
X158062316Y-123220885D01*
X158085101Y-123207675D01*
X158116267Y-123198866D01*
X158158349Y-123195560D01*
X158201716Y-123199001D01*
X158235552Y-123208387D01*
X158261847Y-123222809D01*
X158275351Y-123235916D01*
X158283229Y-123251229D01*
X158285935Y-123269520D01*
X158280446Y-123294036D01*
X158263404Y-123315270D01*
X158241823Y-123328529D01*
X158198948Y-123345270D01*
X158124048Y-123365965D01*
X158021182Y-123395125D01*
X157960375Y-123420508D01*
X157927258Y-123441668D01*
X157899782Y-123467052D01*
X157877393Y-123496941D01*
X157861198Y-123530505D01*
X157851007Y-123570015D01*
X157847397Y-123616742D01*
X157851359Y-123658799D01*
X157863197Y-123698936D01*
X157883255Y-123737825D01*
X157910253Y-123772008D01*
X157943770Y-123799851D01*
X157984692Y-123821723D01*
X158029264Y-123836296D01*
X158083175Y-123845748D01*
X158148137Y-123849154D01*
X158220025Y-123844435D01*
X158279035Y-123831342D01*
X158327389Y-123811034D01*
X158366902Y-123784033D01*
X158400174Y-123749103D01*
X158426528Y-123706731D01*
X158446018Y-123655653D01*
X158458081Y-123594165D01*
G37*
G36*
X157565988Y-123279696D02*
G01*
X157612547Y-123294198D01*
X157654353Y-123318085D01*
X157692242Y-123352089D01*
X157722038Y-123392508D01*
X157744031Y-123440574D01*
X157757982Y-123497785D01*
X157762950Y-123566046D01*
X157759264Y-123623234D01*
X157748753Y-123673188D01*
X157731980Y-123716980D01*
X157709141Y-123755502D01*
X157679751Y-123788475D01*
X157645014Y-123814164D01*
X157604167Y-123833029D01*
X157556036Y-123844933D01*
X157499122Y-123849154D01*
X157440636Y-123844127D01*
X157391440Y-123829920D01*
X157349783Y-123807205D01*
X157314246Y-123775777D01*
X157285153Y-123735561D01*
X157262405Y-123685023D01*
X157405837Y-123661576D01*
X157421250Y-123697513D01*
X157440687Y-123719736D01*
X157465900Y-123733100D01*
X157497565Y-123737779D01*
X157529159Y-123733758D01*
X157556461Y-123722047D01*
X157580547Y-123702288D01*
X157598574Y-123676729D01*
X157610401Y-123644249D01*
X157615397Y-123602957D01*
X157254712Y-123602957D01*
X157256934Y-123533474D01*
X157259694Y-123515030D01*
X157397639Y-123515030D01*
X157612833Y-123515030D01*
X157609369Y-123476422D01*
X157599098Y-123445567D01*
X157582608Y-123420783D01*
X157560205Y-123401440D01*
X157534599Y-123390002D01*
X157504709Y-123386070D01*
X157476751Y-123389742D01*
X157452126Y-123400538D01*
X157429925Y-123418951D01*
X157413450Y-123442696D01*
X157402417Y-123473998D01*
X157397639Y-123515030D01*
X157259694Y-123515030D01*
X157265589Y-123475628D01*
X157279683Y-123427661D01*
X157298540Y-123388036D01*
X157321848Y-123355478D01*
X157359589Y-123320534D01*
X157403237Y-123295569D01*
X157453962Y-123280119D01*
X157513456Y-123274695D01*
X157565988Y-123279696D01*
G37*
G36*
X156642746Y-123834500D02*
G01*
X156786727Y-123834500D01*
X156786727Y-123555467D01*
X156789756Y-123474604D01*
X156795978Y-123440933D01*
X156808233Y-123417594D01*
X156825928Y-123400495D01*
X156848335Y-123389809D01*
X156875891Y-123386070D01*
X156911485Y-123391264D01*
X156942981Y-123406678D01*
X156968061Y-123430634D01*
X156983739Y-123461220D01*
X156991293Y-123502372D01*
X156994730Y-123586837D01*
X156994730Y-123834500D01*
X157138711Y-123834500D01*
X157138711Y-123289349D01*
X157004989Y-123289349D01*
X157004989Y-123369263D01*
X156973874Y-123334115D01*
X156940810Y-123307886D01*
X156905494Y-123289523D01*
X156867365Y-123278466D01*
X156825653Y-123274695D01*
X156779535Y-123279119D01*
X156738596Y-123291960D01*
X156702988Y-123312318D01*
X156678879Y-123336061D01*
X156661785Y-123364513D01*
X156650714Y-123396877D01*
X156645054Y-123434566D01*
X156642746Y-123494284D01*
X156642746Y-123834500D01*
G37*
G36*
X156547262Y-123679161D02*
G01*
X156402777Y-123661576D01*
X156394158Y-123687998D01*
X156381685Y-123708793D01*
X156365408Y-123724957D01*
X156345467Y-123736403D01*
X156319691Y-123743843D01*
X156286502Y-123746572D01*
X156249682Y-123743823D01*
X156222400Y-123736510D01*
X156202468Y-123725598D01*
X156188281Y-123708526D01*
X156183508Y-123686351D01*
X156186147Y-123670799D01*
X156193766Y-123658553D01*
X156208312Y-123649668D01*
X156241898Y-123639182D01*
X156360222Y-123609076D01*
X156428265Y-123585614D01*
X156462724Y-123567741D01*
X156491284Y-123542923D01*
X156511104Y-123514539D01*
X156523119Y-123481892D01*
X156527295Y-123443772D01*
X156523773Y-123409253D01*
X156513465Y-123378179D01*
X156496275Y-123349756D01*
X156471471Y-123323467D01*
X156442605Y-123303658D01*
X156405469Y-123288423D01*
X156358137Y-123278381D01*
X156298272Y-123274695D01*
X156240622Y-123277557D01*
X156195136Y-123285314D01*
X156159653Y-123296940D01*
X156132309Y-123311743D01*
X156100392Y-123339749D01*
X156075502Y-123375737D01*
X156057479Y-123421241D01*
X156193217Y-123447619D01*
X156206144Y-123417045D01*
X156226281Y-123395412D01*
X156243451Y-123385872D01*
X156266087Y-123379599D01*
X156295707Y-123377277D01*
X156333691Y-123379545D01*
X156359829Y-123385347D01*
X156377178Y-123393534D01*
X156389571Y-123406914D01*
X156393572Y-123423347D01*
X156390118Y-123437666D01*
X156379238Y-123450092D01*
X156347835Y-123463932D01*
X156244737Y-123491491D01*
X156168329Y-123513115D01*
X156116887Y-123535010D01*
X156084132Y-123556521D01*
X156059473Y-123585160D01*
X156044382Y-123620559D01*
X156039023Y-123664781D01*
X156042881Y-123701039D01*
X156054277Y-123734306D01*
X156073497Y-123765385D01*
X156101534Y-123794795D01*
X156133900Y-123817165D01*
X156174296Y-123834125D01*
X156224457Y-123845151D01*
X156286502Y-123849154D01*
X156342736Y-123845870D01*
X156389909Y-123836692D01*
X156429431Y-123822393D01*
X156462495Y-123803404D01*
X156492195Y-123778380D01*
X156515975Y-123749633D01*
X156534294Y-123716772D01*
X156547262Y-123679161D01*
G37*
G36*
X155718712Y-123278784D02*
G01*
X155766700Y-123290737D01*
X155811099Y-123310415D01*
X155850944Y-123337721D01*
X155884156Y-123371967D01*
X155911254Y-123413913D01*
X155931065Y-123460119D01*
X155942732Y-123506675D01*
X155946608Y-123554139D01*
X155942341Y-123616502D01*
X155930299Y-123669580D01*
X155911254Y-123714882D01*
X155884045Y-123755346D01*
X155849890Y-123788506D01*
X155808031Y-123814991D01*
X155761774Y-123834040D01*
X155714389Y-123845364D01*
X155665332Y-123849154D01*
X155606284Y-123843811D01*
X155553982Y-123828349D01*
X155507113Y-123802994D01*
X155464747Y-123767134D01*
X155430106Y-123723795D01*
X155405433Y-123675590D01*
X155390306Y-123621554D01*
X155385106Y-123560871D01*
X155533120Y-123560871D01*
X155537963Y-123615272D01*
X155551098Y-123656717D01*
X155571314Y-123688137D01*
X155599125Y-123712693D01*
X155630220Y-123727036D01*
X155665836Y-123731918D01*
X155701461Y-123727042D01*
X155732652Y-123712702D01*
X155760632Y-123688137D01*
X155781018Y-123656716D01*
X155794208Y-123615582D01*
X155799055Y-123561924D01*
X155794207Y-123508267D01*
X155781017Y-123467150D01*
X155760632Y-123435758D01*
X155732649Y-123411165D01*
X155701458Y-123396811D01*
X155665836Y-123391931D01*
X155630224Y-123396817D01*
X155599128Y-123411174D01*
X155571314Y-123435758D01*
X155551019Y-123467114D01*
X155537921Y-123507917D01*
X155533120Y-123560871D01*
X155385106Y-123560871D01*
X155385063Y-123560367D01*
X155390261Y-123499687D01*
X155405250Y-123446171D01*
X155429682Y-123398499D01*
X155463969Y-123355707D01*
X155505896Y-123320474D01*
X155552865Y-123295411D01*
X155605878Y-123280035D01*
X155666339Y-123274695D01*
X155718712Y-123278784D01*
G37*
G36*
X155134333Y-123834500D02*
G01*
X155278314Y-123834500D01*
X155278314Y-123289349D01*
X155144591Y-123289349D01*
X155144591Y-123366698D01*
X155109264Y-123317757D01*
X155082858Y-123293288D01*
X155053774Y-123279400D01*
X155020622Y-123274695D01*
X154988546Y-123277648D01*
X154957103Y-123286563D01*
X154925825Y-123301806D01*
X154970385Y-123427194D01*
X155006902Y-123409053D01*
X155038025Y-123403655D01*
X155066325Y-123407981D01*
X155089270Y-123420462D01*
X155106837Y-123441907D01*
X155122288Y-123481141D01*
X155130438Y-123536908D01*
X155134333Y-123665056D01*
X155134333Y-123834500D01*
G37*
G36*
X154308150Y-123277730D02*
G01*
X154340917Y-123286656D01*
X154371562Y-123301485D01*
X154411809Y-123332104D01*
X154442270Y-123369263D01*
X154442270Y-123289349D01*
X154576497Y-123289349D01*
X154576497Y-124042594D01*
X154432516Y-124042594D01*
X154432516Y-123769699D01*
X154391087Y-123808368D01*
X154355442Y-123831202D01*
X154317193Y-123844554D01*
X154273697Y-123849154D01*
X154228147Y-123844397D01*
X154186694Y-123830402D01*
X154148319Y-123806913D01*
X154112359Y-123772813D01*
X154084501Y-123733152D01*
X154063746Y-123685401D01*
X154050478Y-123627954D01*
X154045727Y-123558810D01*
X154045740Y-123558627D01*
X154192227Y-123558627D01*
X154196764Y-123620719D01*
X154208524Y-123664136D01*
X154225566Y-123693678D01*
X154250078Y-123716858D01*
X154277523Y-123730291D01*
X154309051Y-123734848D01*
X154341810Y-123729967D01*
X154370981Y-123715419D01*
X154397711Y-123690015D01*
X154416568Y-123657966D01*
X154429266Y-123613085D01*
X154434073Y-123551300D01*
X154429583Y-123497726D01*
X154417525Y-123457586D01*
X154399223Y-123427789D01*
X154373660Y-123404381D01*
X154344859Y-123390724D01*
X154311616Y-123386070D01*
X154279777Y-123390741D01*
X154251811Y-123404573D01*
X154226573Y-123428568D01*
X154208722Y-123458888D01*
X154196746Y-123501011D01*
X154192227Y-123558627D01*
X154045740Y-123558627D01*
X154050416Y-123491586D01*
X154063537Y-123435545D01*
X154084113Y-123388776D01*
X154111810Y-123349754D01*
X154147446Y-123316303D01*
X154185635Y-123293198D01*
X154227042Y-123279395D01*
X154272690Y-123274695D01*
X154308150Y-123277730D01*
G37*
G36*
X153736681Y-123278784D02*
G01*
X153784669Y-123290737D01*
X153829068Y-123310415D01*
X153868914Y-123337721D01*
X153902125Y-123371967D01*
X153929223Y-123413913D01*
X153949034Y-123460119D01*
X153960701Y-123506675D01*
X153964577Y-123554139D01*
X153960310Y-123616502D01*
X153948268Y-123669580D01*
X153929223Y-123714882D01*
X153902014Y-123755346D01*
X153867860Y-123788506D01*
X153826000Y-123814991D01*
X153779744Y-123834040D01*
X153732359Y-123845364D01*
X153683301Y-123849154D01*
X153624253Y-123843811D01*
X153571951Y-123828349D01*
X153525082Y-123802994D01*
X153482717Y-123767134D01*
X153448075Y-123723795D01*
X153423403Y-123675590D01*
X153408275Y-123621554D01*
X153403075Y-123560871D01*
X153551089Y-123560871D01*
X153555932Y-123615272D01*
X153569067Y-123656717D01*
X153589283Y-123688137D01*
X153617094Y-123712693D01*
X153648190Y-123727036D01*
X153683805Y-123731918D01*
X153719430Y-123727042D01*
X153750622Y-123712702D01*
X153778602Y-123688137D01*
X153798988Y-123656716D01*
X153812177Y-123615582D01*
X153817024Y-123561924D01*
X153812176Y-123508267D01*
X153798986Y-123467150D01*
X153778602Y-123435758D01*
X153750618Y-123411165D01*
X153719427Y-123396811D01*
X153683805Y-123391931D01*
X153648193Y-123396817D01*
X153617098Y-123411174D01*
X153589283Y-123435758D01*
X153568988Y-123467114D01*
X153555891Y-123507917D01*
X153551089Y-123560871D01*
X153403075Y-123560871D01*
X153403032Y-123560367D01*
X153408230Y-123499687D01*
X153423219Y-123446171D01*
X153447651Y-123398499D01*
X153481938Y-123355707D01*
X153523866Y-123320474D01*
X153570834Y-123295411D01*
X153623847Y-123280035D01*
X153684309Y-123274695D01*
X153736681Y-123278784D01*
G37*
G36*
X153188663Y-123834500D02*
G01*
X153360809Y-123289349D01*
X153220949Y-123289349D01*
X153119008Y-123646600D01*
X153025219Y-123289349D01*
X152886413Y-123289349D01*
X152795692Y-123646600D01*
X152691690Y-123289349D01*
X152549770Y-123289349D01*
X152724480Y-123834500D01*
X152862828Y-123834500D01*
X152956572Y-123483889D01*
X153048804Y-123834500D01*
X153188663Y-123834500D01*
G37*
G36*
X152318919Y-123279696D02*
G01*
X152365477Y-123294198D01*
X152407284Y-123318085D01*
X152445173Y-123352089D01*
X152474969Y-123392508D01*
X152496961Y-123440574D01*
X152510913Y-123497785D01*
X152515881Y-123566046D01*
X152512195Y-123623234D01*
X152501684Y-123673188D01*
X152484911Y-123716980D01*
X152462072Y-123755502D01*
X152432682Y-123788475D01*
X152397945Y-123814164D01*
X152357098Y-123833029D01*
X152308967Y-123844933D01*
X152252053Y-123849154D01*
X152193567Y-123844127D01*
X152144371Y-123829920D01*
X152102714Y-123807205D01*
X152067177Y-123775777D01*
X152038084Y-123735561D01*
X152015336Y-123685023D01*
X152158768Y-123661576D01*
X152174180Y-123697513D01*
X152193618Y-123719736D01*
X152218831Y-123733100D01*
X152250496Y-123737779D01*
X152282090Y-123733758D01*
X152309392Y-123722047D01*
X152333478Y-123702288D01*
X152351505Y-123676729D01*
X152363332Y-123644249D01*
X152368328Y-123602957D01*
X152007642Y-123602957D01*
X152009865Y-123533474D01*
X152012625Y-123515030D01*
X152150570Y-123515030D01*
X152365764Y-123515030D01*
X152362300Y-123476422D01*
X152352029Y-123445567D01*
X152335538Y-123420783D01*
X152313136Y-123401440D01*
X152287530Y-123390002D01*
X152257640Y-123386070D01*
X152229682Y-123389742D01*
X152205057Y-123400538D01*
X152182856Y-123418951D01*
X152166381Y-123442696D01*
X152155348Y-123473998D01*
X152150570Y-123515030D01*
X152012625Y-123515030D01*
X152018520Y-123475628D01*
X152032613Y-123427661D01*
X152051471Y-123388036D01*
X152074779Y-123355478D01*
X152112520Y-123320534D01*
X152156168Y-123295569D01*
X152206893Y-123280119D01*
X152266387Y-123274695D01*
X152318919Y-123279696D01*
G37*
G36*
X151752790Y-123834500D02*
G01*
X151896771Y-123834500D01*
X151896771Y-123289349D01*
X151763049Y-123289349D01*
X151763049Y-123366698D01*
X151727722Y-123317757D01*
X151701316Y-123293288D01*
X151672231Y-123279400D01*
X151639080Y-123274695D01*
X151607004Y-123277648D01*
X151575560Y-123286563D01*
X151544283Y-123301806D01*
X151588842Y-123427194D01*
X151625359Y-123409053D01*
X151656482Y-123403655D01*
X151684783Y-123407981D01*
X151707728Y-123420462D01*
X151725294Y-123441907D01*
X151740746Y-123481141D01*
X151748896Y-123536908D01*
X151752790Y-123665056D01*
X151752790Y-123834500D01*
G37*
G36*
X151241575Y-123679161D02*
G01*
X151097090Y-123661576D01*
X151088471Y-123687998D01*
X151075997Y-123708793D01*
X151059721Y-123724957D01*
X151039779Y-123736403D01*
X151014004Y-123743843D01*
X150980815Y-123746572D01*
X150943995Y-123743823D01*
X150916712Y-123736510D01*
X150896780Y-123725598D01*
X150882593Y-123708526D01*
X150877821Y-123686351D01*
X150880459Y-123670799D01*
X150888079Y-123658553D01*
X150902625Y-123649668D01*
X150936210Y-123639182D01*
X151054535Y-123609076D01*
X151122578Y-123585614D01*
X151157036Y-123567741D01*
X151185596Y-123542923D01*
X151205416Y-123514539D01*
X151217431Y-123481892D01*
X151221608Y-123443772D01*
X151218085Y-123409253D01*
X151207778Y-123378179D01*
X151190588Y-123349756D01*
X151165783Y-123323467D01*
X151136917Y-123303658D01*
X151099781Y-123288423D01*
X151052449Y-123278381D01*
X150992584Y-123274695D01*
X150934935Y-123277557D01*
X150889448Y-123285314D01*
X150853966Y-123296940D01*
X150826621Y-123311743D01*
X150794705Y-123339749D01*
X150769814Y-123375737D01*
X150751792Y-123421241D01*
X150887530Y-123447619D01*
X150900456Y-123417045D01*
X150920594Y-123395412D01*
X150937764Y-123385872D01*
X150960400Y-123379599D01*
X150990020Y-123377277D01*
X151028003Y-123379545D01*
X151054142Y-123385347D01*
X151071490Y-123393534D01*
X151083884Y-123406914D01*
X151087885Y-123423347D01*
X151084431Y-123437666D01*
X151073551Y-123450092D01*
X151042148Y-123463932D01*
X150939049Y-123491491D01*
X150862642Y-123513115D01*
X150811200Y-123535010D01*
X150778445Y-123556521D01*
X150753786Y-123585160D01*
X150738694Y-123620559D01*
X150733336Y-123664781D01*
X150737194Y-123701039D01*
X150748590Y-123734306D01*
X150767810Y-123765385D01*
X150795847Y-123794795D01*
X150828212Y-123817165D01*
X150868609Y-123834125D01*
X150918769Y-123845151D01*
X150980815Y-123849154D01*
X151037049Y-123845870D01*
X151084222Y-123836692D01*
X151123744Y-123822393D01*
X151156807Y-123803404D01*
X151186507Y-123778380D01*
X151210287Y-123749633D01*
X151228607Y-123716772D01*
X151241575Y-123679161D01*
G37*
G36*
X150452660Y-123279696D02*
G01*
X150499218Y-123294198D01*
X150541025Y-123318085D01*
X150578913Y-123352089D01*
X150608709Y-123392508D01*
X150630702Y-123440574D01*
X150644653Y-123497785D01*
X150649622Y-123566046D01*
X150645936Y-123623234D01*
X150635425Y-123673188D01*
X150618651Y-123716980D01*
X150595812Y-123755502D01*
X150566422Y-123788475D01*
X150531686Y-123814164D01*
X150490838Y-123833029D01*
X150442708Y-123844933D01*
X150385794Y-123849154D01*
X150327308Y-123844127D01*
X150278112Y-123829920D01*
X150236454Y-123807205D01*
X150200917Y-123775777D01*
X150171824Y-123735561D01*
X150149077Y-123685023D01*
X150292508Y-123661576D01*
X150307921Y-123697513D01*
X150327359Y-123719736D01*
X150352571Y-123733100D01*
X150384237Y-123737779D01*
X150415831Y-123733758D01*
X150443132Y-123722047D01*
X150467218Y-123702288D01*
X150485246Y-123676729D01*
X150497073Y-123644249D01*
X150502068Y-123602957D01*
X150141383Y-123602957D01*
X150143605Y-123533474D01*
X150146365Y-123515030D01*
X150284311Y-123515030D01*
X150499504Y-123515030D01*
X150496040Y-123476422D01*
X150485770Y-123445567D01*
X150469279Y-123420783D01*
X150446876Y-123401440D01*
X150421271Y-123390002D01*
X150391381Y-123386070D01*
X150363423Y-123389742D01*
X150338797Y-123400538D01*
X150316597Y-123418951D01*
X150300121Y-123442696D01*
X150289089Y-123473998D01*
X150284311Y-123515030D01*
X150146365Y-123515030D01*
X150152261Y-123475628D01*
X150166354Y-123427661D01*
X150185211Y-123388036D01*
X150208519Y-123355478D01*
X150246261Y-123320534D01*
X150289908Y-123295569D01*
X150340633Y-123280119D01*
X150400128Y-123274695D01*
X150452660Y-123279696D01*
G37*
G36*
X150024329Y-123834500D02*
G01*
X150024329Y-123081255D01*
X149880394Y-123081255D01*
X149880394Y-123834500D01*
X150024329Y-123834500D01*
G37*
G36*
X149577782Y-123279696D02*
G01*
X149624340Y-123294198D01*
X149666147Y-123318085D01*
X149704036Y-123352089D01*
X149733831Y-123392508D01*
X149755824Y-123440574D01*
X149769775Y-123497785D01*
X149774744Y-123566046D01*
X149771058Y-123623234D01*
X149760547Y-123673188D01*
X149743773Y-123716980D01*
X149720934Y-123755502D01*
X149691544Y-123788475D01*
X149656808Y-123814164D01*
X149615960Y-123833029D01*
X149567830Y-123844933D01*
X149510916Y-123849154D01*
X149452430Y-123844127D01*
X149403234Y-123829920D01*
X149361577Y-123807205D01*
X149326039Y-123775777D01*
X149296946Y-123735561D01*
X149274199Y-123685023D01*
X149417630Y-123661576D01*
X149433043Y-123697513D01*
X149452481Y-123719736D01*
X149477693Y-123733100D01*
X149509359Y-123737779D01*
X149540953Y-123733758D01*
X149568254Y-123722047D01*
X149592340Y-123702288D01*
X149610368Y-123676729D01*
X149622195Y-123644249D01*
X149627191Y-123602957D01*
X149266505Y-123602957D01*
X149268727Y-123533474D01*
X149271487Y-123515030D01*
X149409433Y-123515030D01*
X149624626Y-123515030D01*
X149621162Y-123476422D01*
X149610892Y-123445567D01*
X149594401Y-123420783D01*
X149571998Y-123401440D01*
X149546393Y-123390002D01*
X149516503Y-123386070D01*
X149488545Y-123389742D01*
X149463919Y-123400538D01*
X149441719Y-123418951D01*
X149425243Y-123442696D01*
X149414211Y-123473998D01*
X149409433Y-123515030D01*
X149271487Y-123515030D01*
X149277383Y-123475628D01*
X149291476Y-123427661D01*
X149310333Y-123388036D01*
X149333641Y-123355478D01*
X149371383Y-123320534D01*
X149415030Y-123295569D01*
X149465755Y-123280119D01*
X149525250Y-123274695D01*
X149577782Y-123279696D01*
G37*
G36*
X148675056Y-123444688D02*
G01*
X148816976Y-123471066D01*
X148824224Y-123444093D01*
X148835152Y-123423291D01*
X148849537Y-123407456D01*
X148867507Y-123395858D01*
X148889126Y-123388634D01*
X148915345Y-123386070D01*
X148949449Y-123390473D01*
X148977579Y-123403077D01*
X149001166Y-123424080D01*
X149017498Y-123451474D01*
X149028800Y-123492232D01*
X149033177Y-123551117D01*
X149028654Y-123616917D01*
X149017093Y-123661683D01*
X149000662Y-123691068D01*
X148976504Y-123713747D01*
X148947865Y-123727231D01*
X148913284Y-123731918D01*
X148886879Y-123729112D01*
X148864827Y-123721137D01*
X148846194Y-123708150D01*
X148831697Y-123690505D01*
X148819189Y-123664172D01*
X148809282Y-123626405D01*
X148667866Y-123649852D01*
X148682242Y-123698350D01*
X148701272Y-123738585D01*
X148724648Y-123771770D01*
X148752404Y-123798825D01*
X148784694Y-123819998D01*
X148822639Y-123835681D01*
X148867286Y-123845624D01*
X148919924Y-123849154D01*
X148978596Y-123844038D01*
X149028918Y-123829448D01*
X149072446Y-123805907D01*
X149110296Y-123773088D01*
X149140232Y-123733251D01*
X149162287Y-123685914D01*
X149176260Y-123629603D01*
X149181234Y-123562428D01*
X149176218Y-123494435D01*
X149162157Y-123437696D01*
X149140015Y-123390241D01*
X149110022Y-123350532D01*
X149072091Y-123317908D01*
X149028199Y-123294427D01*
X148977177Y-123279828D01*
X148917406Y-123274695D01*
X148867197Y-123277692D01*
X148824899Y-123286086D01*
X148789284Y-123299204D01*
X148759319Y-123316689D01*
X148724939Y-123348331D01*
X148696811Y-123390285D01*
X148675056Y-123444688D01*
G37*
G36*
X148316706Y-123289349D02*
G01*
X148316706Y-123403655D01*
X148415074Y-123403655D01*
X148415074Y-123625031D01*
X148412281Y-123703387D01*
X148407713Y-123713459D01*
X148399458Y-123721751D01*
X148388612Y-123727107D01*
X148375095Y-123728987D01*
X148353260Y-123726135D01*
X148317209Y-123715156D01*
X148304936Y-123827493D01*
X148339030Y-123839300D01*
X148376757Y-123846618D01*
X148418692Y-123849154D01*
X148456301Y-123845744D01*
X148488897Y-123835965D01*
X148516805Y-123820215D01*
X148534738Y-123801847D01*
X148546607Y-123778517D01*
X148554934Y-123745290D01*
X148558078Y-123713567D01*
X148559559Y-123642937D01*
X148559559Y-123403655D01*
X148625642Y-123403655D01*
X148625642Y-123289349D01*
X148559559Y-123289349D01*
X148559559Y-123183837D01*
X148415074Y-123098840D01*
X148415074Y-123289349D01*
X148316706Y-123289349D01*
G37*
G36*
X148022131Y-123278784D02*
G01*
X148070119Y-123290737D01*
X148114518Y-123310415D01*
X148154364Y-123337721D01*
X148187575Y-123371967D01*
X148214673Y-123413913D01*
X148234485Y-123460119D01*
X148246151Y-123506675D01*
X148250027Y-123554139D01*
X148245760Y-123616502D01*
X148233719Y-123669580D01*
X148214673Y-123714882D01*
X148187464Y-123755346D01*
X148153310Y-123788506D01*
X148111450Y-123814991D01*
X148065194Y-123834040D01*
X148017809Y-123845364D01*
X147968751Y-123849154D01*
X147909703Y-123843811D01*
X147857401Y-123828349D01*
X147810532Y-123802994D01*
X147768167Y-123767134D01*
X147733525Y-123723795D01*
X147708853Y-123675590D01*
X147693725Y-123621554D01*
X147688525Y-123560871D01*
X147836539Y-123560871D01*
X147841382Y-123615272D01*
X147854517Y-123656717D01*
X147874733Y-123688137D01*
X147902545Y-123712693D01*
X147933640Y-123727036D01*
X147969255Y-123731918D01*
X148004881Y-123727042D01*
X148036072Y-123712702D01*
X148064052Y-123688137D01*
X148084438Y-123656716D01*
X148097627Y-123615582D01*
X148102474Y-123561924D01*
X148097626Y-123508267D01*
X148084436Y-123467150D01*
X148064052Y-123435758D01*
X148036069Y-123411165D01*
X148004877Y-123396811D01*
X147969255Y-123391931D01*
X147933643Y-123396817D01*
X147902548Y-123411174D01*
X147874733Y-123435758D01*
X147854438Y-123467114D01*
X147841341Y-123507917D01*
X147836539Y-123560871D01*
X147688525Y-123560871D01*
X147688482Y-123560367D01*
X147693680Y-123499687D01*
X147708669Y-123446171D01*
X147733101Y-123398499D01*
X147767388Y-123355707D01*
X147809316Y-123320474D01*
X147856284Y-123295411D01*
X147909297Y-123280035D01*
X147969759Y-123274695D01*
X148022131Y-123278784D01*
G37*
G36*
X147437752Y-123834500D02*
G01*
X147581733Y-123834500D01*
X147581733Y-123289349D01*
X147448010Y-123289349D01*
X147448010Y-123366698D01*
X147412683Y-123317757D01*
X147386278Y-123293288D01*
X147357193Y-123279400D01*
X147324042Y-123274695D01*
X147291966Y-123277648D01*
X147260522Y-123286563D01*
X147229245Y-123301806D01*
X147273804Y-123427194D01*
X147310321Y-123409053D01*
X147341444Y-123403655D01*
X147369745Y-123407981D01*
X147392689Y-123420462D01*
X147410256Y-123441907D01*
X147425708Y-123481141D01*
X147433857Y-123536908D01*
X147437752Y-123665056D01*
X147437752Y-123834500D01*
G37*
G36*
X158419155Y-125094500D02*
G01*
X158163524Y-125094500D01*
X158031509Y-125092288D01*
X157980617Y-125089370D01*
X157941237Y-125082110D01*
X157907628Y-125070105D01*
X157878905Y-125053650D01*
X157853551Y-125032312D01*
X157831914Y-125006589D01*
X157813829Y-124975981D01*
X157800492Y-124942937D01*
X157792628Y-124909717D01*
X157790016Y-124875963D01*
X157790672Y-124869414D01*
X157946774Y-124869414D01*
X157949353Y-124895464D01*
X157956563Y-124916527D01*
X157968069Y-124933666D01*
X157992209Y-124953051D01*
X158023115Y-124963845D01*
X158052461Y-124966929D01*
X158127116Y-124968470D01*
X158267480Y-124968470D01*
X158267480Y-124766237D01*
X158145023Y-124766237D01*
X158050497Y-124769776D01*
X158010567Y-124777091D01*
X157982832Y-124791420D01*
X157963168Y-124811666D01*
X157951046Y-124837362D01*
X157946774Y-124869414D01*
X157790672Y-124869414D01*
X157794248Y-124833684D01*
X157806553Y-124796152D01*
X157826927Y-124762344D01*
X157854290Y-124733863D01*
X157889005Y-124711058D01*
X157932440Y-124693926D01*
X157902070Y-124676642D01*
X157876530Y-124654686D01*
X157855320Y-124627706D01*
X157839498Y-124597247D01*
X157830067Y-124565094D01*
X157828898Y-124552464D01*
X157974434Y-124552464D01*
X157977063Y-124575687D01*
X157984530Y-124594864D01*
X157996737Y-124610899D01*
X158022295Y-124628284D01*
X158057919Y-124637643D01*
X158168103Y-124640208D01*
X158267480Y-124640208D01*
X158267480Y-124467284D01*
X158180377Y-124467284D01*
X158050775Y-124469848D01*
X158026465Y-124475173D01*
X158007820Y-124484027D01*
X157993668Y-124496135D01*
X157979468Y-124520398D01*
X157974434Y-124552464D01*
X157828898Y-124552464D01*
X157826881Y-124530665D01*
X157829517Y-124498786D01*
X157837229Y-124469621D01*
X157849962Y-124442646D01*
X157876181Y-124406954D01*
X157907573Y-124379769D01*
X157944176Y-124360304D01*
X157985975Y-124348719D01*
X158035451Y-124343457D01*
X158118919Y-124341255D01*
X158419155Y-124341255D01*
X158419155Y-125094500D01*
G37*
G36*
X157525226Y-125094500D02*
G01*
X157669207Y-125094500D01*
X157669207Y-124549349D01*
X157535484Y-124549349D01*
X157535484Y-124626698D01*
X157500157Y-124577757D01*
X157473752Y-124553288D01*
X157444667Y-124539400D01*
X157411515Y-124534695D01*
X157379439Y-124537648D01*
X157347996Y-124546563D01*
X157316719Y-124561806D01*
X157361278Y-124687194D01*
X157397795Y-124669053D01*
X157428918Y-124663655D01*
X157457218Y-124667981D01*
X157480163Y-124680462D01*
X157497730Y-124701907D01*
X157513182Y-124741141D01*
X157521331Y-124796908D01*
X157525226Y-124925056D01*
X157525226Y-125094500D01*
G37*
G36*
X157254895Y-124473146D02*
G01*
X157254895Y-124341255D01*
X157110959Y-124341255D01*
X157110959Y-124473146D01*
X157254895Y-124473146D01*
G37*
G36*
X157254895Y-125094500D02*
G01*
X157254895Y-124549349D01*
X157110959Y-124549349D01*
X157110959Y-125094500D01*
X157254895Y-125094500D01*
G37*
G36*
X156608216Y-124610532D02*
G01*
X156644185Y-124576471D01*
X156682009Y-124553155D01*
X156722305Y-124539357D01*
X156766027Y-124534695D01*
X156814239Y-124539375D01*
X156857023Y-124552962D01*
X156895516Y-124575393D01*
X156930479Y-124607418D01*
X156957428Y-124645222D01*
X156977711Y-124691906D01*
X156990817Y-124749345D01*
X156995555Y-124819864D01*
X156990804Y-124888410D01*
X156977517Y-124945514D01*
X156956695Y-124993127D01*
X156928693Y-125032813D01*
X156892589Y-125066981D01*
X156854276Y-125090463D01*
X156813107Y-125104420D01*
X156768088Y-125109154D01*
X156722766Y-125103322D01*
X156676635Y-125085203D01*
X156648194Y-125067031D01*
X156622039Y-125043676D01*
X156598004Y-125014586D01*
X156598004Y-125094500D01*
X156464281Y-125094500D01*
X156464281Y-124825863D01*
X156607712Y-124825863D01*
X156612239Y-124882098D01*
X156624338Y-124923929D01*
X156642563Y-124954686D01*
X156668129Y-124979131D01*
X156695944Y-124993100D01*
X156727101Y-124997779D01*
X156756672Y-124994171D01*
X156782174Y-124983698D01*
X156804595Y-124966137D01*
X156824417Y-124940306D01*
X156836563Y-124912482D01*
X156845159Y-124871120D01*
X156848505Y-124811712D01*
X156844029Y-124757608D01*
X156832046Y-124717306D01*
X156813930Y-124687606D01*
X156788583Y-124664226D01*
X156760358Y-124650666D01*
X156728109Y-124646070D01*
X156694934Y-124650779D01*
X156666503Y-124664558D01*
X156641555Y-124688156D01*
X156624256Y-124718302D01*
X156612318Y-124762578D01*
X156607712Y-124825863D01*
X156464281Y-124825863D01*
X156464281Y-124341255D01*
X156608216Y-124341255D01*
X156608216Y-124610532D01*
G37*
G36*
X156172297Y-124539334D02*
G01*
X156214729Y-124552854D01*
X156253260Y-124575266D01*
X156288609Y-124607372D01*
X156315963Y-124645222D01*
X156336464Y-124691634D01*
X156349661Y-124748390D01*
X156354417Y-124817711D01*
X156350991Y-124872612D01*
X156341198Y-124920888D01*
X156325545Y-124963490D01*
X156304225Y-125001214D01*
X156276011Y-125035573D01*
X156245021Y-125061363D01*
X156210922Y-125079581D01*
X156173061Y-125090673D01*
X156130523Y-125094500D01*
X156083859Y-125088979D01*
X156041908Y-125072721D01*
X156003398Y-125045182D01*
X155967628Y-125004557D01*
X155967628Y-125084974D01*
X155969701Y-125129928D01*
X155974268Y-125151927D01*
X155986707Y-125174327D01*
X156002982Y-125188747D01*
X156022612Y-125197544D01*
X156050029Y-125203579D01*
X156087521Y-125205874D01*
X156127883Y-125201176D01*
X156152047Y-125189434D01*
X156163581Y-125174533D01*
X156171006Y-125147256D01*
X156335458Y-125129670D01*
X156335962Y-125147348D01*
X156332282Y-125182912D01*
X156321564Y-125214534D01*
X156303749Y-125243097D01*
X156278076Y-125269164D01*
X156248486Y-125288106D01*
X156207978Y-125303177D01*
X156153599Y-125313410D01*
X156081842Y-125317249D01*
X156011954Y-125312998D01*
X155960713Y-125301816D01*
X155916448Y-125282771D01*
X155884143Y-125259134D01*
X155859325Y-125227887D01*
X155839538Y-125184030D01*
X155831526Y-125151459D01*
X155825839Y-125104602D01*
X155823647Y-125039499D01*
X155823647Y-124813223D01*
X155965064Y-124813223D01*
X155969718Y-124866254D01*
X155982260Y-124906121D01*
X156001425Y-124935864D01*
X156027890Y-124959124D01*
X156057233Y-124972669D01*
X156090589Y-124977263D01*
X156121524Y-124972817D01*
X156148745Y-124959664D01*
X156173342Y-124936917D01*
X156190675Y-124907943D01*
X156202403Y-124866828D01*
X156206864Y-124809605D01*
X156202476Y-124755248D01*
X156190813Y-124715345D01*
X156173342Y-124686461D01*
X156148682Y-124663845D01*
X156120646Y-124650600D01*
X156088025Y-124646070D01*
X156054381Y-124650691D01*
X156025421Y-124664202D01*
X155999914Y-124687240D01*
X155981741Y-124716745D01*
X155969623Y-124757557D01*
X155965064Y-124813223D01*
X155823647Y-124813223D01*
X155823647Y-124549349D01*
X155958377Y-124549349D01*
X155958377Y-124624317D01*
X155994614Y-124583998D01*
X156033861Y-124556531D01*
X156076854Y-124540243D01*
X156124890Y-124534695D01*
X156172297Y-124539334D01*
G37*
G36*
X155526072Y-124539696D02*
G01*
X155572630Y-124554198D01*
X155614437Y-124578085D01*
X155652326Y-124612089D01*
X155682121Y-124652508D01*
X155704114Y-124700574D01*
X155718065Y-124757785D01*
X155723034Y-124826046D01*
X155719348Y-124883234D01*
X155708837Y-124933188D01*
X155692064Y-124976980D01*
X155669224Y-125015502D01*
X155639834Y-125048475D01*
X155605098Y-125074164D01*
X155564251Y-125093029D01*
X155516120Y-125104933D01*
X155459206Y-125109154D01*
X155400720Y-125104127D01*
X155351524Y-125089920D01*
X155309867Y-125067205D01*
X155274330Y-125035777D01*
X155245237Y-124995561D01*
X155222489Y-124945023D01*
X155365921Y-124921576D01*
X155381333Y-124957513D01*
X155400771Y-124979736D01*
X155425983Y-124993100D01*
X155457649Y-124997779D01*
X155489243Y-124993758D01*
X155516545Y-124982047D01*
X155540631Y-124962288D01*
X155558658Y-124936729D01*
X155570485Y-124904249D01*
X155575481Y-124862957D01*
X155214795Y-124862957D01*
X155217018Y-124793474D01*
X155219778Y-124775030D01*
X155357723Y-124775030D01*
X155572916Y-124775030D01*
X155569452Y-124736422D01*
X155559182Y-124705567D01*
X155542691Y-124680783D01*
X155520289Y-124661440D01*
X155494683Y-124650002D01*
X155464793Y-124646070D01*
X155436835Y-124649742D01*
X155412209Y-124660538D01*
X155390009Y-124678951D01*
X155373533Y-124702696D01*
X155362501Y-124733998D01*
X155357723Y-124775030D01*
X155219778Y-124775030D01*
X155225673Y-124735628D01*
X155239766Y-124687661D01*
X155258624Y-124648036D01*
X155281932Y-124615478D01*
X155319673Y-124580534D01*
X155363321Y-124555569D01*
X155414046Y-124540119D01*
X155473540Y-124534695D01*
X155526072Y-124539696D01*
G37*
G36*
X154611559Y-124538784D02*
G01*
X154659547Y-124550737D01*
X154703946Y-124570415D01*
X154743791Y-124597721D01*
X154777003Y-124631967D01*
X154804101Y-124673913D01*
X154823912Y-124720119D01*
X154835579Y-124766675D01*
X154839455Y-124814139D01*
X154835188Y-124876502D01*
X154823146Y-124929580D01*
X154804101Y-124974882D01*
X154776892Y-125015346D01*
X154742738Y-125048506D01*
X154700878Y-125074991D01*
X154654622Y-125094040D01*
X154607237Y-125105364D01*
X154558179Y-125109154D01*
X154499131Y-125103811D01*
X154446829Y-125088349D01*
X154399960Y-125062994D01*
X154357594Y-125027134D01*
X154322953Y-124983795D01*
X154298280Y-124935590D01*
X154283153Y-124881554D01*
X154277953Y-124820871D01*
X154425967Y-124820871D01*
X154430810Y-124875272D01*
X154443945Y-124916717D01*
X154464161Y-124948137D01*
X154491972Y-124972693D01*
X154523068Y-124987036D01*
X154558683Y-124991918D01*
X154594308Y-124987042D01*
X154625500Y-124972702D01*
X154653479Y-124948137D01*
X154673866Y-124916716D01*
X154687055Y-124875582D01*
X154691902Y-124821924D01*
X154687054Y-124768267D01*
X154673864Y-124727150D01*
X154653479Y-124695758D01*
X154625496Y-124671165D01*
X154594305Y-124656811D01*
X154558683Y-124651931D01*
X154523071Y-124656817D01*
X154491976Y-124671174D01*
X154464161Y-124695758D01*
X154443866Y-124727114D01*
X154430769Y-124767917D01*
X154425967Y-124820871D01*
X154277953Y-124820871D01*
X154277910Y-124820367D01*
X154283108Y-124759687D01*
X154298097Y-124706171D01*
X154322529Y-124658499D01*
X154356816Y-124615707D01*
X154398743Y-124580474D01*
X154445712Y-124555411D01*
X154498725Y-124540035D01*
X154559186Y-124534695D01*
X154611559Y-124538784D01*
G37*
G36*
X153670066Y-125094500D02*
G01*
X153814047Y-125094500D01*
X153814047Y-124815467D01*
X153817076Y-124734604D01*
X153823298Y-124700933D01*
X153835554Y-124677594D01*
X153853248Y-124660495D01*
X153875655Y-124649809D01*
X153903211Y-124646070D01*
X153938805Y-124651264D01*
X153970302Y-124666678D01*
X153995381Y-124690634D01*
X154011060Y-124721220D01*
X154018613Y-124762372D01*
X154022051Y-124846837D01*
X154022051Y-125094500D01*
X154166032Y-125094500D01*
X154166032Y-124549349D01*
X154032309Y-124549349D01*
X154032309Y-124629263D01*
X154001194Y-124594115D01*
X153968131Y-124567886D01*
X153932814Y-124549523D01*
X153894685Y-124538466D01*
X153852974Y-124534695D01*
X153806855Y-124539119D01*
X153765916Y-124551960D01*
X153730308Y-124572318D01*
X153706199Y-124596061D01*
X153689105Y-124624513D01*
X153678035Y-124656877D01*
X153672374Y-124694566D01*
X153670066Y-124754284D01*
X153670066Y-125094500D01*
G37*
G36*
X153368919Y-124539696D02*
G01*
X153415477Y-124554198D01*
X153457284Y-124578085D01*
X153495173Y-124612089D01*
X153524969Y-124652508D01*
X153546961Y-124700574D01*
X153560913Y-124757785D01*
X153565881Y-124826046D01*
X153562195Y-124883234D01*
X153551684Y-124933188D01*
X153534911Y-124976980D01*
X153512072Y-125015502D01*
X153482682Y-125048475D01*
X153447945Y-125074164D01*
X153407098Y-125093029D01*
X153358967Y-125104933D01*
X153302053Y-125109154D01*
X153243567Y-125104127D01*
X153194371Y-125089920D01*
X153152714Y-125067205D01*
X153117177Y-125035777D01*
X153088084Y-124995561D01*
X153065336Y-124945023D01*
X153208768Y-124921576D01*
X153224180Y-124957513D01*
X153243618Y-124979736D01*
X153268831Y-124993100D01*
X153300496Y-124997779D01*
X153332090Y-124993758D01*
X153359392Y-124982047D01*
X153383478Y-124962288D01*
X153401505Y-124936729D01*
X153413332Y-124904249D01*
X153418328Y-124862957D01*
X153057642Y-124862957D01*
X153059865Y-124793474D01*
X153062625Y-124775030D01*
X153200570Y-124775030D01*
X153415764Y-124775030D01*
X153412300Y-124736422D01*
X153402029Y-124705567D01*
X153385538Y-124680783D01*
X153363136Y-124661440D01*
X153337530Y-124650002D01*
X153307640Y-124646070D01*
X153279682Y-124649742D01*
X153255057Y-124660538D01*
X153232856Y-124678951D01*
X153216381Y-124702696D01*
X153205348Y-124733998D01*
X153200570Y-124775030D01*
X153062625Y-124775030D01*
X153068520Y-124735628D01*
X153082613Y-124687661D01*
X153101471Y-124648036D01*
X153124779Y-124615478D01*
X153162520Y-124580534D01*
X153206168Y-124555569D01*
X153256893Y-124540119D01*
X153316387Y-124534695D01*
X153368919Y-124539696D01*
G37*
G36*
X152454406Y-124538784D02*
G01*
X152502394Y-124550737D01*
X152546793Y-124570415D01*
X152586639Y-124597721D01*
X152619850Y-124631967D01*
X152646948Y-124673913D01*
X152666759Y-124720119D01*
X152678426Y-124766675D01*
X152682302Y-124814139D01*
X152678035Y-124876502D01*
X152665994Y-124929580D01*
X152646948Y-124974882D01*
X152619739Y-125015346D01*
X152585585Y-125048506D01*
X152543725Y-125074991D01*
X152497469Y-125094040D01*
X152450084Y-125105364D01*
X152401026Y-125109154D01*
X152341978Y-125103811D01*
X152289676Y-125088349D01*
X152242807Y-125062994D01*
X152200442Y-125027134D01*
X152165800Y-124983795D01*
X152141128Y-124935590D01*
X152126000Y-124881554D01*
X152120800Y-124820871D01*
X152268814Y-124820871D01*
X152273657Y-124875272D01*
X152286792Y-124916717D01*
X152307008Y-124948137D01*
X152334819Y-124972693D01*
X152365915Y-124987036D01*
X152401530Y-124991918D01*
X152437156Y-124987042D01*
X152468347Y-124972702D01*
X152496327Y-124948137D01*
X152516713Y-124916716D01*
X152529902Y-124875582D01*
X152534749Y-124821924D01*
X152529901Y-124768267D01*
X152516711Y-124727150D01*
X152496327Y-124695758D01*
X152468343Y-124671165D01*
X152437152Y-124656811D01*
X152401530Y-124651931D01*
X152365918Y-124656817D01*
X152334823Y-124671174D01*
X152307008Y-124695758D01*
X152286713Y-124727114D01*
X152273616Y-124767917D01*
X152268814Y-124820871D01*
X152120800Y-124820871D01*
X152120757Y-124820367D01*
X152125955Y-124759687D01*
X152140944Y-124706171D01*
X152165376Y-124658499D01*
X152199663Y-124615707D01*
X152241591Y-124580474D01*
X152288559Y-124555411D01*
X152341572Y-124540035D01*
X152402034Y-124534695D01*
X152454406Y-124538784D01*
G37*
G36*
X152070840Y-124549349D02*
G01*
X151990927Y-124549349D01*
X151990927Y-124508362D01*
X151986647Y-124444258D01*
X151976318Y-124405918D01*
X151964276Y-124385310D01*
X151946678Y-124367010D01*
X151922554Y-124350826D01*
X151895594Y-124339458D01*
X151862939Y-124332155D01*
X151823407Y-124329531D01*
X151762585Y-124334163D01*
X151703011Y-124348078D01*
X151722474Y-124449103D01*
X151756605Y-124442901D01*
X151788557Y-124440906D01*
X151816765Y-124444990D01*
X151833436Y-124455423D01*
X151842899Y-124473922D01*
X151846992Y-124511156D01*
X151846992Y-124549349D01*
X151739372Y-124549349D01*
X151739372Y-124660724D01*
X151846992Y-124660724D01*
X151846992Y-125094500D01*
X151990927Y-125094500D01*
X151990927Y-124660724D01*
X152070840Y-124660724D01*
X152070840Y-124549349D01*
G37*
G36*
X151402592Y-124892312D02*
G01*
X151263236Y-124874681D01*
X151255763Y-124910549D01*
X151243655Y-124938327D01*
X151227378Y-124959632D01*
X151206415Y-124976011D01*
X151183118Y-124985685D01*
X151156670Y-124988987D01*
X151128425Y-124985203D01*
X151103724Y-124974097D01*
X151081611Y-124955144D01*
X151065143Y-124930897D01*
X151054812Y-124900961D01*
X151051111Y-124863782D01*
X151054657Y-124828618D01*
X151064549Y-124800372D01*
X151080329Y-124777549D01*
X151101453Y-124759711D01*
X151124898Y-124749270D01*
X151151541Y-124745721D01*
X151180294Y-124748156D01*
X151217624Y-124756483D01*
X151201733Y-124640208D01*
X151163646Y-124637726D01*
X151134644Y-124629027D01*
X151112615Y-124615020D01*
X151095623Y-124595403D01*
X151085408Y-124572095D01*
X151081840Y-124543946D01*
X151084529Y-124519755D01*
X151092111Y-124500061D01*
X151104417Y-124483862D01*
X151120683Y-124471617D01*
X151140328Y-124464086D01*
X151164318Y-124461422D01*
X151187898Y-124464289D01*
X151208681Y-124472679D01*
X151227378Y-124486839D01*
X151241893Y-124505342D01*
X151252610Y-124529597D01*
X151259114Y-124561073D01*
X151391830Y-124538725D01*
X151380276Y-124493659D01*
X151366212Y-124457630D01*
X151350064Y-124429182D01*
X151329349Y-124404156D01*
X151303619Y-124382722D01*
X151272212Y-124364748D01*
X151238188Y-124351877D01*
X151201048Y-124343975D01*
X151160242Y-124341255D01*
X151108140Y-124345791D01*
X151063248Y-124358751D01*
X151024226Y-124379700D01*
X150990112Y-124408940D01*
X150966504Y-124438312D01*
X150950233Y-124468644D01*
X150940596Y-124500363D01*
X150937355Y-124534054D01*
X150941478Y-124571164D01*
X150953619Y-124604775D01*
X150974097Y-124635810D01*
X151004081Y-124664825D01*
X151045478Y-124691957D01*
X151004734Y-124705286D01*
X150970686Y-124725892D01*
X150942255Y-124754056D01*
X150920971Y-124787974D01*
X150908039Y-124826393D01*
X150903558Y-124870514D01*
X150908142Y-124918552D01*
X150921558Y-124962099D01*
X150943860Y-125002141D01*
X150975823Y-125039362D01*
X151013984Y-125069793D01*
X151056087Y-125091396D01*
X151102933Y-125104594D01*
X151155617Y-125109154D01*
X151205932Y-125105162D01*
X151250243Y-125093684D01*
X151289582Y-125075084D01*
X151324739Y-125049208D01*
X151354581Y-125017144D01*
X151377348Y-124980789D01*
X151393395Y-124939490D01*
X151402592Y-124892312D01*
G37*
G36*
X150783436Y-125094500D02*
G01*
X150783436Y-124950885D01*
X150639501Y-124950885D01*
X150639501Y-125094500D01*
X150783436Y-125094500D01*
G37*
G36*
X150527714Y-124892312D02*
G01*
X150388358Y-124874681D01*
X150380886Y-124910549D01*
X150368777Y-124938327D01*
X150352500Y-124959632D01*
X150331537Y-124976011D01*
X150308240Y-124985685D01*
X150281792Y-124988987D01*
X150253547Y-124985203D01*
X150228846Y-124974097D01*
X150206733Y-124955144D01*
X150190265Y-124930897D01*
X150179934Y-124900961D01*
X150176233Y-124863782D01*
X150179779Y-124828618D01*
X150189671Y-124800372D01*
X150205451Y-124777549D01*
X150226575Y-124759711D01*
X150250020Y-124749270D01*
X150276663Y-124745721D01*
X150305416Y-124748156D01*
X150342746Y-124756483D01*
X150326855Y-124640208D01*
X150288768Y-124637726D01*
X150259766Y-124629027D01*
X150237737Y-124615020D01*
X150220745Y-124595403D01*
X150210530Y-124572095D01*
X150206962Y-124543946D01*
X150209651Y-124519755D01*
X150217234Y-124500061D01*
X150229539Y-124483862D01*
X150245805Y-124471617D01*
X150265451Y-124464086D01*
X150289440Y-124461422D01*
X150313020Y-124464289D01*
X150333803Y-124472679D01*
X150352500Y-124486839D01*
X150367016Y-124505342D01*
X150377732Y-124529597D01*
X150384237Y-124561073D01*
X150516952Y-124538725D01*
X150505398Y-124493659D01*
X150491334Y-124457630D01*
X150475187Y-124429182D01*
X150454471Y-124404156D01*
X150428741Y-124382722D01*
X150397334Y-124364748D01*
X150363310Y-124351877D01*
X150326170Y-124343975D01*
X150285364Y-124341255D01*
X150233262Y-124345791D01*
X150188370Y-124358751D01*
X150149348Y-124379700D01*
X150115234Y-124408940D01*
X150091626Y-124438312D01*
X150075356Y-124468644D01*
X150065718Y-124500363D01*
X150062477Y-124534054D01*
X150066600Y-124571164D01*
X150078741Y-124604775D01*
X150099220Y-124635810D01*
X150129203Y-124664825D01*
X150170600Y-124691957D01*
X150129856Y-124705286D01*
X150095808Y-124725892D01*
X150067377Y-124754056D01*
X150046093Y-124787974D01*
X150033161Y-124826393D01*
X150028680Y-124870514D01*
X150033264Y-124918552D01*
X150046680Y-124962099D01*
X150068982Y-125002141D01*
X150100945Y-125039362D01*
X150139106Y-125069793D01*
X150181209Y-125091396D01*
X150228055Y-125104594D01*
X150280739Y-125109154D01*
X150331054Y-125105162D01*
X150375365Y-125093684D01*
X150414704Y-125075084D01*
X150449862Y-125049208D01*
X150479703Y-125017144D01*
X150502470Y-124980789D01*
X150518518Y-124939490D01*
X150527714Y-124892312D01*
G37*
G36*
X149715942Y-125094500D02*
G01*
X149984396Y-124341255D01*
X149819944Y-124341255D01*
X149629847Y-124898128D01*
X149445932Y-124341255D01*
X149285052Y-124341255D01*
X149554055Y-125094500D01*
X149715942Y-125094500D01*
G37*
G36*
X148722620Y-124538784D02*
G01*
X148770608Y-124550737D01*
X148815007Y-124570415D01*
X148854852Y-124597721D01*
X148888064Y-124631967D01*
X148915162Y-124673913D01*
X148934973Y-124720119D01*
X148946640Y-124766675D01*
X148950516Y-124814139D01*
X148946249Y-124876502D01*
X148934207Y-124929580D01*
X148915162Y-124974882D01*
X148887953Y-125015346D01*
X148853798Y-125048506D01*
X148811939Y-125074991D01*
X148765682Y-125094040D01*
X148718297Y-125105364D01*
X148669240Y-125109154D01*
X148610192Y-125103811D01*
X148557890Y-125088349D01*
X148511021Y-125062994D01*
X148468655Y-125027134D01*
X148434014Y-124983795D01*
X148409341Y-124935590D01*
X148394214Y-124881554D01*
X148389014Y-124820871D01*
X148537028Y-124820871D01*
X148541871Y-124875272D01*
X148555006Y-124916717D01*
X148575221Y-124948137D01*
X148603033Y-124972693D01*
X148634128Y-124987036D01*
X148669743Y-124991918D01*
X148705369Y-124987042D01*
X148736560Y-124972702D01*
X148764540Y-124948137D01*
X148784926Y-124916716D01*
X148798116Y-124875582D01*
X148802963Y-124821924D01*
X148798115Y-124768267D01*
X148784924Y-124727150D01*
X148764540Y-124695758D01*
X148736557Y-124671165D01*
X148705366Y-124656811D01*
X148669743Y-124651931D01*
X148634131Y-124656817D01*
X148603036Y-124671174D01*
X148575221Y-124695758D01*
X148554926Y-124727114D01*
X148541829Y-124767917D01*
X148537028Y-124820871D01*
X148389014Y-124820871D01*
X148388971Y-124820367D01*
X148394169Y-124759687D01*
X148409157Y-124706171D01*
X148433590Y-124658499D01*
X148467877Y-124615707D01*
X148509804Y-124580474D01*
X148556772Y-124555411D01*
X148609786Y-124540035D01*
X148670247Y-124534695D01*
X148722620Y-124538784D01*
G37*
G36*
X148138240Y-125094500D02*
G01*
X148282222Y-125094500D01*
X148282222Y-124549349D01*
X148148499Y-124549349D01*
X148148499Y-124626698D01*
X148113172Y-124577757D01*
X148086766Y-124553288D01*
X148057682Y-124539400D01*
X148024530Y-124534695D01*
X147992454Y-124537648D01*
X147961010Y-124546563D01*
X147929733Y-124561806D01*
X147974292Y-124687194D01*
X148010809Y-124669053D01*
X148041932Y-124663655D01*
X148070233Y-124667981D01*
X148093178Y-124680462D01*
X148110745Y-124701907D01*
X148126196Y-124741141D01*
X148134346Y-124796908D01*
X148138240Y-124925056D01*
X148138240Y-125094500D01*
G37*
G36*
X147604997Y-124904173D02*
G01*
X147461520Y-124889336D01*
X147454438Y-124920459D01*
X147442275Y-124945809D01*
X147425158Y-124966455D01*
X147403676Y-124982401D01*
X147380671Y-124991713D01*
X147355457Y-124994848D01*
X147327139Y-124990729D01*
X147302035Y-124978496D01*
X147279162Y-124957250D01*
X147262810Y-124930324D01*
X147251951Y-124893519D01*
X147247884Y-124843815D01*
X147251882Y-124797384D01*
X147262604Y-124762802D01*
X147278887Y-124737294D01*
X147301577Y-124717587D01*
X147328068Y-124705833D01*
X147359579Y-124701757D01*
X147389077Y-124705073D01*
X147417055Y-124715024D01*
X147444146Y-124732109D01*
X147470771Y-124757444D01*
X147587595Y-124740271D01*
X147513818Y-124350047D01*
X147133120Y-124350047D01*
X147133120Y-124484869D01*
X147404688Y-124484869D01*
X147427219Y-124611265D01*
X147394452Y-124597897D01*
X147361782Y-124590049D01*
X147328850Y-124587451D01*
X147282418Y-124591930D01*
X147240480Y-124605026D01*
X147202052Y-124626784D01*
X147166459Y-124657976D01*
X147137795Y-124695077D01*
X147117128Y-124737254D01*
X147104310Y-124785474D01*
X147099827Y-124841021D01*
X147103268Y-124887209D01*
X147113377Y-124930145D01*
X147130080Y-124970429D01*
X147153636Y-125008541D01*
X147185518Y-125045046D01*
X147221154Y-125072812D01*
X147261021Y-125092678D01*
X147305940Y-125104905D01*
X147357014Y-125109154D01*
X147408703Y-125105367D01*
X147453482Y-125094578D01*
X147492482Y-125077306D01*
X147526595Y-125053604D01*
X147555823Y-125023744D01*
X147578498Y-124989372D01*
X147594937Y-124949830D01*
X147604997Y-124904173D01*
G37*
G36*
X146800415Y-125094500D02*
G01*
X147068869Y-124341255D01*
X146904417Y-124341255D01*
X146714320Y-124898128D01*
X146530405Y-124341255D01*
X146369525Y-124341255D01*
X146638528Y-125094500D01*
X146800415Y-125094500D01*
G37*
G36*
X158410985Y-126795727D02*
G01*
X158395158Y-126948770D01*
X158428356Y-126956324D01*
X158455396Y-126969298D01*
X158477419Y-126987556D01*
X158494428Y-127010470D01*
X158504361Y-127035009D01*
X158507705Y-127061903D01*
X158503311Y-127092109D01*
X158490262Y-127118887D01*
X158467600Y-127143285D01*
X158438878Y-127160728D01*
X158399620Y-127172309D01*
X158346602Y-127176648D01*
X158297076Y-127172384D01*
X158260188Y-127160946D01*
X158232981Y-127143578D01*
X158211959Y-127119375D01*
X158199421Y-127091118D01*
X158195074Y-127057507D01*
X158198611Y-127026042D01*
X158209225Y-126996199D01*
X158227450Y-126967302D01*
X158254474Y-126938903D01*
X158236156Y-126814290D01*
X157819917Y-126892985D01*
X157819917Y-127299063D01*
X157963727Y-127299063D01*
X157963727Y-127009391D01*
X158098549Y-126985357D01*
X158084291Y-127020309D01*
X158075919Y-127055157D01*
X158073148Y-127090284D01*
X158077926Y-127139812D01*
X158091895Y-127184545D01*
X158115102Y-127225535D01*
X158148375Y-127263501D01*
X158187949Y-127294076D01*
X158232938Y-127316121D01*
X158284373Y-127329794D01*
X158343623Y-127334576D01*
X158392889Y-127330905D01*
X158438688Y-127320122D01*
X158481657Y-127302305D01*
X158522311Y-127277179D01*
X158561249Y-127243172D01*
X158590866Y-127205160D01*
X158612056Y-127162635D01*
X158625099Y-127114722D01*
X158629631Y-127060242D01*
X158625592Y-127005108D01*
X158614083Y-126957344D01*
X158595660Y-126915744D01*
X158570378Y-126879356D01*
X158538527Y-126848180D01*
X158501863Y-126823993D01*
X158459685Y-126806458D01*
X158410985Y-126795727D01*
G37*
G36*
X158614000Y-127653948D02*
G01*
X157810538Y-127367598D01*
X157810538Y-127543013D01*
X158404537Y-127745783D01*
X157810538Y-127941959D01*
X157810538Y-128113564D01*
X158614000Y-127826628D01*
X158614000Y-127653948D01*
G37*
D12*
G36*
X135427673Y-108797893D02*
G01*
X135427673Y-109110585D01*
X136024847Y-109110585D01*
X136111788Y-109103542D01*
X136192703Y-109082803D01*
X136243293Y-109060724D01*
X136289228Y-109031765D01*
X136331005Y-108995608D01*
X136367580Y-108953994D01*
X136394960Y-108912517D01*
X136414170Y-108870861D01*
X136432068Y-108809671D01*
X136443544Y-108737838D01*
X136447631Y-108653668D01*
X136445185Y-108578944D01*
X136437373Y-108493750D01*
X136421327Y-108411530D01*
X136396706Y-108348731D01*
X136360456Y-108293624D01*
X136310122Y-108241936D01*
X136251801Y-108200430D01*
X136194229Y-108175624D01*
X136100753Y-108153495D01*
X136024847Y-108146864D01*
X135427673Y-108146864D01*
X135427673Y-108459556D01*
X136037914Y-108459556D01*
X136089938Y-108465013D01*
X136131141Y-108480184D01*
X136163943Y-108504375D01*
X136188443Y-108536934D01*
X136203753Y-108577704D01*
X136209250Y-108629060D01*
X136203843Y-108680019D01*
X136188777Y-108720562D01*
X136164676Y-108753014D01*
X136132250Y-108777152D01*
X136090872Y-108792381D01*
X136037914Y-108797893D01*
X135427673Y-108797893D01*
G37*
G36*
X135721070Y-109540086D02*
G01*
X135673564Y-109273007D01*
X135611679Y-109294349D01*
X135559444Y-109322701D01*
X135515532Y-109357910D01*
X135479025Y-109400318D01*
X135451535Y-109448046D01*
X135430580Y-109506647D01*
X135416963Y-109578286D01*
X135412041Y-109665505D01*
X135417735Y-109766885D01*
X135433065Y-109845320D01*
X135455947Y-109905238D01*
X135485131Y-109950353D01*
X135524771Y-109989487D01*
X135567984Y-110016577D01*
X135615599Y-110032834D01*
X135668924Y-110038403D01*
X135711132Y-110034368D01*
X135750070Y-110022472D01*
X135786527Y-110002560D01*
X135818936Y-109976056D01*
X135848861Y-109941891D01*
X135876347Y-109898940D01*
X135891954Y-109949151D01*
X135908831Y-109983509D01*
X135944814Y-110028326D01*
X135990408Y-110061728D01*
X136025181Y-110076854D01*
X136065107Y-110086312D01*
X136111187Y-110089633D01*
X136168585Y-110084586D01*
X136224522Y-110069408D01*
X136279775Y-110043593D01*
X136329254Y-110008556D01*
X136370473Y-109964706D01*
X136404034Y-109911030D01*
X136427020Y-109851691D01*
X136442115Y-109777106D01*
X136447631Y-109683945D01*
X136443440Y-109592438D01*
X136432195Y-109521626D01*
X136415574Y-109467668D01*
X136390544Y-109417321D01*
X136359330Y-109374062D01*
X136321724Y-109337120D01*
X136278433Y-109306594D01*
X136226382Y-109280093D01*
X136164248Y-109257925D01*
X136126940Y-109540025D01*
X136182763Y-109554759D01*
X136220121Y-109571904D01*
X136243810Y-109590584D01*
X136261303Y-109614909D01*
X136271958Y-109643362D01*
X136275684Y-109677107D01*
X136271115Y-109712123D01*
X136257799Y-109742327D01*
X136235262Y-109768942D01*
X136206295Y-109788807D01*
X136170820Y-109801212D01*
X136127062Y-109805639D01*
X136082374Y-109801262D01*
X136047529Y-109789215D01*
X136020328Y-109770285D01*
X135999726Y-109744565D01*
X135987077Y-109713150D01*
X135982593Y-109674359D01*
X135986182Y-109638819D01*
X135999690Y-109582035D01*
X135795258Y-109596751D01*
X135798922Y-109634730D01*
X135795010Y-109669288D01*
X135783744Y-109698853D01*
X135765094Y-109724551D01*
X135740718Y-109744808D01*
X135714316Y-109756559D01*
X135684983Y-109760515D01*
X135644381Y-109753538D01*
X135614274Y-109733771D01*
X135600012Y-109714427D01*
X135591095Y-109690297D01*
X135587896Y-109660010D01*
X135591316Y-109628936D01*
X135601035Y-109603126D01*
X135616900Y-109581424D01*
X135638402Y-109565041D01*
X135671743Y-109550934D01*
X135721070Y-109540086D01*
G37*
G36*
X143452041Y-111405753D02*
G01*
X143094103Y-111383112D01*
X143082644Y-111441307D01*
X143066817Y-111484823D01*
X143047575Y-111516688D01*
X143016616Y-111548235D01*
X142980115Y-111570724D01*
X142936966Y-111584673D01*
X142885495Y-111589595D01*
X142834265Y-111585008D01*
X142794839Y-111572509D01*
X142764595Y-111553178D01*
X142740427Y-111526668D01*
X142726760Y-111498883D01*
X142722243Y-111468841D01*
X142726501Y-111440262D01*
X142739444Y-111413454D01*
X142762397Y-111387508D01*
X142792875Y-111367821D01*
X142851416Y-111344836D01*
X142951587Y-111318705D01*
X143077955Y-111285116D01*
X143174955Y-111249022D01*
X143247773Y-111211370D01*
X143300952Y-111172745D01*
X143347558Y-111123415D01*
X143380150Y-111068922D01*
X143399883Y-111008160D01*
X143406685Y-110939445D01*
X143400757Y-110878870D01*
X143382959Y-110820538D01*
X143352609Y-110763443D01*
X143311812Y-110713417D01*
X143258387Y-110670079D01*
X143190237Y-110633311D01*
X143116302Y-110608779D01*
X143019228Y-110592220D01*
X142893628Y-110586050D01*
X142775577Y-110592501D01*
X142679857Y-110610234D01*
X142602721Y-110637305D01*
X142540966Y-110672512D01*
X142488150Y-110720105D01*
X142446304Y-110780489D01*
X142415206Y-110856009D01*
X142395886Y-110949996D01*
X142750526Y-110970732D01*
X142764446Y-110917813D01*
X142784086Y-110879362D01*
X142808705Y-110852177D01*
X142839972Y-110832794D01*
X142879812Y-110820359D01*
X142930558Y-110815833D01*
X142989184Y-110823275D01*
X143026545Y-110842505D01*
X143050752Y-110872406D01*
X143058565Y-110907205D01*
X143052389Y-110932612D01*
X143032334Y-110956810D01*
X142996676Y-110976305D01*
X142908722Y-111000334D01*
X142745148Y-111039755D01*
X142632618Y-111075050D01*
X142559211Y-111106214D01*
X142492530Y-111146648D01*
X142441993Y-111191000D01*
X142405118Y-111239351D01*
X142378434Y-111294123D01*
X142362326Y-111353115D01*
X142356831Y-111417404D01*
X142363999Y-111492575D01*
X142385287Y-111563194D01*
X142421165Y-111630554D01*
X142469218Y-111689822D01*
X142528605Y-111738940D01*
X142600830Y-111778419D01*
X142679309Y-111805118D01*
X142775006Y-111822482D01*
X142891210Y-111828757D01*
X143021938Y-111822551D01*
X143125559Y-111805697D01*
X143206751Y-111780412D01*
X143269592Y-111748250D01*
X143317438Y-111709982D01*
X143369815Y-111647198D01*
X143409560Y-111576477D01*
X143437098Y-111496564D01*
X143452041Y-111405753D01*
G37*
G36*
X141374169Y-111312257D02*
G01*
X141044148Y-111412348D01*
X141071714Y-111502802D01*
X141106642Y-111579160D01*
X141148415Y-111643304D01*
X141199649Y-111699743D01*
X141258021Y-111745760D01*
X141324270Y-111782009D01*
X141395831Y-111806758D01*
X141483761Y-111822904D01*
X141591277Y-111828757D01*
X141721671Y-111821588D01*
X141827354Y-111801891D01*
X141912505Y-111771824D01*
X141970690Y-111739291D01*
X142025766Y-111695911D01*
X142078095Y-111640492D01*
X142127780Y-111571423D01*
X142165734Y-111498618D01*
X142194016Y-111414488D01*
X142211939Y-111317183D01*
X142218272Y-111204546D01*
X142210974Y-111083287D01*
X142190347Y-110979151D01*
X142157796Y-110889613D01*
X142114021Y-110812544D01*
X142058977Y-110746297D01*
X141992907Y-110690658D01*
X141916580Y-110646587D01*
X141828469Y-110613942D01*
X141726569Y-110593325D01*
X141608496Y-110586050D01*
X141493026Y-110592697D01*
X141396742Y-110611220D01*
X141316627Y-110639971D01*
X141250118Y-110678007D01*
X141191247Y-110727975D01*
X141139166Y-110790796D01*
X141093738Y-110868266D01*
X141055359Y-110962745D01*
X141387944Y-111036678D01*
X141407420Y-110984603D01*
X141424288Y-110954979D01*
X141458723Y-110917494D01*
X141499685Y-110890132D01*
X141546350Y-110873233D01*
X141599483Y-110867418D01*
X141659614Y-110873984D01*
X141710344Y-110892754D01*
X141753729Y-110923538D01*
X141790945Y-110967728D01*
X141816715Y-111020219D01*
X141834566Y-111095977D01*
X141841430Y-111202494D01*
X141836412Y-111306856D01*
X141823280Y-111382984D01*
X141804424Y-111437048D01*
X141781420Y-111474263D01*
X141748872Y-111505848D01*
X141710719Y-111528430D01*
X141665843Y-111542448D01*
X141612599Y-111547390D01*
X141544777Y-111540043D01*
X141492885Y-111519872D01*
X141453157Y-111487965D01*
X141422340Y-111445445D01*
X141395717Y-111388063D01*
X141374169Y-111312257D01*
G37*
G36*
X140868806Y-110604808D02*
G01*
X140492770Y-110604808D01*
X140492770Y-111509874D01*
X139913182Y-111509874D01*
X139913182Y-111810000D01*
X140868806Y-111810000D01*
X140868806Y-110604808D01*
G37*
G36*
X142782913Y-108833879D02*
G01*
X142782913Y-108580648D01*
X142204351Y-108580648D01*
X142204351Y-109094584D01*
X142318197Y-109166163D01*
X142415101Y-109216106D01*
X142497442Y-109248164D01*
X142583028Y-109269888D01*
X142682706Y-109283810D01*
X142798520Y-109288757D01*
X142907513Y-109283548D01*
X143000816Y-109268903D01*
X143080537Y-109246035D01*
X143148545Y-109215778D01*
X143212170Y-109175006D01*
X143268024Y-109125649D01*
X143316707Y-109067119D01*
X143358471Y-108998450D01*
X143399128Y-108899773D01*
X143424221Y-108790106D01*
X143432916Y-108667404D01*
X143427462Y-108569096D01*
X143411699Y-108480063D01*
X143386265Y-108399133D01*
X143351437Y-108325293D01*
X143306094Y-108257075D01*
X143251687Y-108197888D01*
X143187579Y-108147033D01*
X143112714Y-108104228D01*
X143028779Y-108073809D01*
X142920698Y-108053538D01*
X142782986Y-108046050D01*
X142648695Y-108051019D01*
X142551781Y-108063926D01*
X142484106Y-108082173D01*
X142421034Y-108111042D01*
X142366426Y-108148310D01*
X142319316Y-108194281D01*
X142280379Y-108247720D01*
X142247205Y-108312163D01*
X142220177Y-108389333D01*
X142582951Y-108454326D01*
X142601863Y-108410675D01*
X142626733Y-108376062D01*
X142657690Y-108349106D01*
X142694133Y-108329869D01*
X142738055Y-108317696D01*
X142791193Y-108313349D01*
X142850259Y-108318904D01*
X142901124Y-108334812D01*
X142945404Y-108360691D01*
X142984193Y-108397173D01*
X143013145Y-108440301D01*
X143035621Y-108496714D01*
X143050558Y-108569633D01*
X143056074Y-108662934D01*
X143050357Y-108762717D01*
X143035040Y-108838973D01*
X143012295Y-108896412D01*
X142983387Y-108938953D01*
X142944387Y-108974382D01*
X142898581Y-108999907D01*
X142844613Y-109015832D01*
X142780568Y-109021458D01*
X142719671Y-109016934D01*
X142662379Y-109003579D01*
X142605181Y-108980891D01*
X142534518Y-108943129D01*
X142534518Y-108833879D01*
X142782913Y-108833879D01*
G37*
G36*
X141985924Y-108064808D02*
G01*
X141635607Y-108064808D01*
X141186664Y-108723531D01*
X141186664Y-108064808D01*
X140831950Y-108064808D01*
X140831950Y-109270000D01*
X141185565Y-109270000D01*
X141632016Y-108615013D01*
X141632016Y-109270000D01*
X141985924Y-109270000D01*
X141985924Y-108064808D01*
G37*
G36*
X140584874Y-109270000D02*
G01*
X140030858Y-109270000D01*
X139929123Y-109262304D01*
X139808914Y-109237173D01*
X139751419Y-109216430D01*
X139695551Y-109184833D01*
X139640753Y-109141259D01*
X139592851Y-109090038D01*
X139552103Y-109030820D01*
X139518387Y-108962693D01*
X139495714Y-108890075D01*
X139480192Y-108792328D01*
X139474703Y-108671067D01*
X139851999Y-108671067D01*
X139855910Y-108767933D01*
X139865869Y-108834630D01*
X139879623Y-108878576D01*
X139901406Y-108918340D01*
X139926772Y-108947488D01*
X139955826Y-108967822D01*
X139989630Y-108980469D01*
X140042203Y-108989676D01*
X140120177Y-108993321D01*
X140208838Y-108993321D01*
X140208838Y-108341486D01*
X140118565Y-108341486D01*
X140046057Y-108346744D01*
X139989841Y-108361010D01*
X139946580Y-108382697D01*
X139913695Y-108411242D01*
X139889897Y-108447036D01*
X139870543Y-108498820D01*
X139857120Y-108571530D01*
X139851999Y-108671067D01*
X139474703Y-108671067D01*
X139474351Y-108663300D01*
X139481908Y-108542362D01*
X139504026Y-108430073D01*
X139528169Y-108358763D01*
X139560017Y-108294621D01*
X139599574Y-108236852D01*
X139647167Y-108185909D01*
X139702471Y-108143514D01*
X139766343Y-108109284D01*
X139835077Y-108085937D01*
X139921969Y-108070479D01*
X140030858Y-108064808D01*
X140584874Y-108064808D01*
X140584874Y-109270000D01*
G37*
G36*
X143452041Y-113945753D02*
G01*
X143094103Y-113923112D01*
X143082644Y-113981307D01*
X143066817Y-114024823D01*
X143047575Y-114056688D01*
X143016616Y-114088235D01*
X142980115Y-114110724D01*
X142936966Y-114124673D01*
X142885495Y-114129595D01*
X142834265Y-114125008D01*
X142794839Y-114112509D01*
X142764595Y-114093178D01*
X142740427Y-114066668D01*
X142726760Y-114038883D01*
X142722243Y-114008841D01*
X142726501Y-113980262D01*
X142739444Y-113953454D01*
X142762397Y-113927508D01*
X142792875Y-113907821D01*
X142851416Y-113884836D01*
X142951587Y-113858705D01*
X143077955Y-113825116D01*
X143174955Y-113789022D01*
X143247773Y-113751370D01*
X143300952Y-113712745D01*
X143347558Y-113663415D01*
X143380150Y-113608922D01*
X143399883Y-113548160D01*
X143406685Y-113479445D01*
X143400757Y-113418870D01*
X143382959Y-113360538D01*
X143352609Y-113303443D01*
X143311812Y-113253417D01*
X143258387Y-113210079D01*
X143190237Y-113173311D01*
X143116302Y-113148779D01*
X143019228Y-113132220D01*
X142893628Y-113126050D01*
X142775577Y-113132501D01*
X142679857Y-113150234D01*
X142602721Y-113177305D01*
X142540966Y-113212512D01*
X142488150Y-113260105D01*
X142446304Y-113320489D01*
X142415206Y-113396009D01*
X142395886Y-113489996D01*
X142750526Y-113510732D01*
X142764446Y-113457813D01*
X142784086Y-113419362D01*
X142808705Y-113392177D01*
X142839972Y-113372794D01*
X142879812Y-113360359D01*
X142930558Y-113355833D01*
X142989184Y-113363275D01*
X143026545Y-113382505D01*
X143050752Y-113412406D01*
X143058565Y-113447205D01*
X143052389Y-113472612D01*
X143032334Y-113496810D01*
X142996676Y-113516305D01*
X142908722Y-113540334D01*
X142745148Y-113579755D01*
X142632618Y-113615050D01*
X142559211Y-113646214D01*
X142492530Y-113686648D01*
X142441993Y-113731000D01*
X142405118Y-113779351D01*
X142378434Y-113834123D01*
X142362326Y-113893115D01*
X142356831Y-113957404D01*
X142363999Y-114032575D01*
X142385287Y-114103194D01*
X142421165Y-114170554D01*
X142469218Y-114229822D01*
X142528605Y-114278940D01*
X142600830Y-114318419D01*
X142679309Y-114345118D01*
X142775006Y-114362482D01*
X142891210Y-114368757D01*
X143021938Y-114362551D01*
X143125559Y-114345697D01*
X143206751Y-114320412D01*
X143269592Y-114288250D01*
X143317438Y-114249982D01*
X143369815Y-114187198D01*
X143409560Y-114116477D01*
X143437098Y-114036564D01*
X143452041Y-113945753D01*
G37*
G36*
X142169912Y-114350000D02*
G01*
X141615896Y-114350000D01*
X141514161Y-114342304D01*
X141393953Y-114317173D01*
X141336457Y-114296430D01*
X141280589Y-114264833D01*
X141225792Y-114221259D01*
X141177889Y-114170038D01*
X141137142Y-114110820D01*
X141103426Y-114042693D01*
X141080752Y-113970075D01*
X141065230Y-113872328D01*
X141059741Y-113751067D01*
X141437037Y-113751067D01*
X141440949Y-113847933D01*
X141450908Y-113914630D01*
X141464661Y-113958576D01*
X141486444Y-113998340D01*
X141511810Y-114027488D01*
X141540865Y-114047822D01*
X141574669Y-114060469D01*
X141627241Y-114069676D01*
X141705216Y-114073321D01*
X141793876Y-114073321D01*
X141793876Y-113421486D01*
X141703604Y-113421486D01*
X141631095Y-113426744D01*
X141574880Y-113441010D01*
X141531618Y-113462697D01*
X141498733Y-113491242D01*
X141474935Y-113527036D01*
X141455581Y-113578820D01*
X141442159Y-113651530D01*
X141437037Y-113751067D01*
X141059741Y-113751067D01*
X141059389Y-113743300D01*
X141066946Y-113622362D01*
X141089064Y-113510073D01*
X141113207Y-113438763D01*
X141145055Y-113374621D01*
X141184612Y-113316852D01*
X141232205Y-113265909D01*
X141287510Y-113223514D01*
X141351381Y-113189284D01*
X141420115Y-113165937D01*
X141507007Y-113150479D01*
X141615896Y-113144808D01*
X142169912Y-113144808D01*
X142169912Y-114350000D01*
G37*
G36*
X141027515Y-114350000D02*
G01*
X140642833Y-114350000D01*
X140584581Y-114153042D01*
X140165167Y-114153042D01*
X140106109Y-114350000D01*
X139712414Y-114350000D01*
X139885339Y-113890432D01*
X140244448Y-113890432D01*
X140502882Y-113890432D01*
X140374068Y-113467575D01*
X140244448Y-113890432D01*
X139885339Y-113890432D01*
X140165900Y-113144808D01*
X140574030Y-113144808D01*
X141027515Y-114350000D01*
G37*
G36*
X143506922Y-102984808D02*
G01*
X143113227Y-102984808D01*
X142844462Y-103843199D01*
X142579801Y-102984808D01*
X142197609Y-102984808D01*
X142645307Y-104190000D01*
X143051018Y-104190000D01*
X143506922Y-102984808D01*
G37*
G36*
X142066231Y-102984808D02*
G01*
X141689389Y-102984808D01*
X141689389Y-104190000D01*
X142066231Y-104190000D01*
X142066231Y-102984808D01*
G37*
G36*
X141425533Y-102984808D02*
G01*
X141075216Y-102984808D01*
X140626273Y-103643531D01*
X140626273Y-102984808D01*
X140271559Y-102984808D01*
X140271559Y-104190000D01*
X140625174Y-104190000D01*
X141071625Y-103535013D01*
X141071625Y-104190000D01*
X141425533Y-104190000D01*
X141425533Y-102984808D01*
G37*
G36*
X134615172Y-104713023D02*
G01*
X134661552Y-104728108D01*
X134703928Y-104753214D01*
X134743071Y-104789343D01*
X134773161Y-104831683D01*
X134795818Y-104883986D01*
X134810463Y-104948359D01*
X134815757Y-105027406D01*
X134811402Y-105105216D01*
X134798975Y-105173674D01*
X134779194Y-105234036D01*
X134744540Y-105296897D01*
X134690827Y-105361897D01*
X134743144Y-105372741D01*
X134797000Y-105398167D01*
X134797000Y-105716464D01*
X134741954Y-105692386D01*
X134705115Y-105680927D01*
X134667142Y-105675436D01*
X134609201Y-105673233D01*
X134224445Y-105673233D01*
X134162191Y-105667282D01*
X134094313Y-105648467D01*
X134032271Y-105618076D01*
X133988873Y-105580616D01*
X133957653Y-105537383D01*
X133934056Y-105486950D01*
X133918238Y-105428062D01*
X133906081Y-105329370D01*
X133901312Y-105186482D01*
X133904916Y-105094519D01*
X133915234Y-105012166D01*
X133933223Y-104936509D01*
X133954728Y-104885330D01*
X133994484Y-104827095D01*
X134038406Y-104786558D01*
X134092623Y-104757583D01*
X134173008Y-104733582D01*
X134206274Y-105056935D01*
X134155683Y-105081458D01*
X134128824Y-105108226D01*
X134110368Y-105154607D01*
X134102959Y-105229933D01*
X134110062Y-105286788D01*
X134127286Y-105317567D01*
X134157454Y-105335194D01*
X134211549Y-105342333D01*
X134385279Y-105342333D01*
X134434445Y-105342333D01*
X134491778Y-105336919D01*
X134533071Y-105322549D01*
X134567021Y-105296881D01*
X134597184Y-105255358D01*
X134616883Y-105206182D01*
X134623489Y-105152849D01*
X134616887Y-105104912D01*
X134599529Y-105073715D01*
X134572325Y-105053743D01*
X134537833Y-105046970D01*
X134507165Y-105053516D01*
X134478922Y-105074081D01*
X134456774Y-105111061D01*
X134427045Y-105201796D01*
X134385279Y-105342333D01*
X134211549Y-105342333D01*
X134250677Y-105225976D01*
X134303434Y-104982710D01*
X134331194Y-104879556D01*
X134363604Y-104810472D01*
X134399055Y-104766628D01*
X134445152Y-104734451D01*
X134499272Y-104714765D01*
X134563625Y-104707863D01*
X134615172Y-104713023D01*
G37*
G36*
X133591808Y-105879936D02*
G01*
X133591808Y-106219043D01*
X134797000Y-106219043D01*
X134797000Y-105879936D01*
X133591808Y-105879936D01*
G37*
G36*
X133591808Y-106439960D02*
G01*
X133591808Y-106778261D01*
X133821591Y-106778261D01*
X133821591Y-106439960D01*
X133591808Y-106439960D01*
G37*
G36*
X133920070Y-106439960D02*
G01*
X133920070Y-106778261D01*
X134797000Y-106778261D01*
X134797000Y-106439960D01*
X133920070Y-106439960D01*
G37*
G36*
X134224885Y-106922902D02*
G01*
X134224885Y-107412877D01*
X134487495Y-107412877D01*
X134487495Y-106922902D01*
X134224885Y-106922902D01*
G37*
G36*
X134553441Y-107486590D02*
G01*
X134520175Y-107822180D01*
X134572416Y-107848246D01*
X134603632Y-107879332D01*
X134621510Y-107919671D01*
X134628179Y-107976346D01*
X134620466Y-108037674D01*
X134600115Y-108079001D01*
X134576671Y-108100054D01*
X134549044Y-108106771D01*
X134528167Y-108102887D01*
X134510673Y-108091287D01*
X134495628Y-108070355D01*
X134483087Y-108032506D01*
X134461703Y-107927619D01*
X134429485Y-107767199D01*
X134405503Y-107685452D01*
X134384356Y-107642803D01*
X134355251Y-107604722D01*
X134317429Y-107570707D01*
X134274117Y-107544736D01*
X134227304Y-107529233D01*
X134175866Y-107523959D01*
X134119717Y-107529759D01*
X134070282Y-107546586D01*
X134026096Y-107574444D01*
X133988450Y-107611384D01*
X133957169Y-107657148D01*
X133932233Y-107713150D01*
X133916176Y-107772875D01*
X133905337Y-107850338D01*
X133901312Y-107949308D01*
X133908464Y-108095208D01*
X133925419Y-108180044D01*
X133956628Y-108249270D01*
X134000230Y-108304608D01*
X134057918Y-108349015D01*
X134140182Y-108388725D01*
X134168758Y-108067277D01*
X134132244Y-108050174D01*
X134109114Y-108026757D01*
X134090714Y-107984968D01*
X134084201Y-107932895D01*
X134089818Y-107881797D01*
X134103618Y-107852075D01*
X134125428Y-107833042D01*
X134150367Y-107827016D01*
X134176542Y-107834569D01*
X134196309Y-107858523D01*
X134209659Y-107900719D01*
X134225471Y-108000379D01*
X134250227Y-108155965D01*
X134278008Y-108248701D01*
X134304451Y-108300139D01*
X134336506Y-108341370D01*
X134374288Y-108373778D01*
X134417698Y-108398029D01*
X134463315Y-108412392D01*
X134512041Y-108417228D01*
X134561287Y-108412298D01*
X134610178Y-108397296D01*
X134659540Y-108371360D01*
X134702567Y-108336442D01*
X134740545Y-108289106D01*
X134773479Y-108227012D01*
X134795449Y-108159880D01*
X134810252Y-108072157D01*
X134815757Y-107959127D01*
X134810271Y-107833921D01*
X134795695Y-107739164D01*
X134774432Y-107668902D01*
X134748200Y-107617968D01*
X134710846Y-107571719D01*
X134666558Y-107534759D01*
X134614527Y-107506392D01*
X134553441Y-107486590D01*
G37*
G36*
X134454375Y-108537806D02*
G01*
X134537342Y-108559858D01*
X134611033Y-108595648D01*
X134677075Y-108644332D01*
X134728421Y-108699262D01*
X134766738Y-108760951D01*
X134792274Y-108829347D01*
X134809396Y-108918755D01*
X134815757Y-109034186D01*
X134808098Y-109167097D01*
X134787729Y-109267083D01*
X134757725Y-109341053D01*
X134712501Y-109406555D01*
X134648676Y-109468020D01*
X134562819Y-109525700D01*
X134534316Y-109192162D01*
X134570014Y-109159809D01*
X134589784Y-109133837D01*
X134608073Y-109088714D01*
X134614110Y-109041513D01*
X134607667Y-108992932D01*
X134589045Y-108952070D01*
X134557690Y-108917023D01*
X134529669Y-108898403D01*
X134491546Y-108883910D01*
X134440600Y-108874451D01*
X134440600Y-109543066D01*
X134400740Y-109543066D01*
X134287215Y-109535935D01*
X134195503Y-109516317D01*
X134121717Y-109486206D01*
X134055696Y-109442439D01*
X134001429Y-109387600D01*
X133957879Y-109320536D01*
X133928305Y-109245759D01*
X133908603Y-109148775D01*
X133902127Y-109038216D01*
X134102959Y-109038216D01*
X134107783Y-109081838D01*
X134121448Y-109117761D01*
X134143699Y-109147685D01*
X134173576Y-109170248D01*
X134216480Y-109187714D01*
X134276469Y-109198830D01*
X134276469Y-108875257D01*
X134208517Y-108889677D01*
X134164435Y-108912993D01*
X134130125Y-108947968D01*
X134109931Y-108989023D01*
X134102959Y-109038216D01*
X133902127Y-109038216D01*
X133901312Y-109024294D01*
X133907024Y-108930665D01*
X133923269Y-108849186D01*
X133949081Y-108778107D01*
X133984027Y-108715955D01*
X134028221Y-108661593D01*
X134095637Y-108604686D01*
X134172127Y-108564001D01*
X134259473Y-108538902D01*
X134360147Y-108530142D01*
X134454375Y-108537806D01*
G37*
G36*
X133920070Y-109691517D02*
G01*
X133920070Y-110006883D01*
X134058775Y-110006883D01*
X134006851Y-110053518D01*
X133967495Y-110099291D01*
X133938974Y-110144489D01*
X133918699Y-110193733D01*
X133905863Y-110251467D01*
X133901312Y-110319318D01*
X133907031Y-110388351D01*
X133923189Y-110446541D01*
X133948964Y-110495875D01*
X133984477Y-110537818D01*
X134027905Y-110570213D01*
X134083193Y-110594834D01*
X134153051Y-110610928D01*
X134240859Y-110616806D01*
X134797000Y-110616806D01*
X134797000Y-110276820D01*
X134316183Y-110276820D01*
X134262654Y-110272740D01*
X134226079Y-110262254D01*
X134201877Y-110247145D01*
X134183792Y-110225333D01*
X134172610Y-110198018D01*
X134168612Y-110163540D01*
X134173736Y-110125951D01*
X134188593Y-110094227D01*
X134213748Y-110066893D01*
X134246390Y-110048361D01*
X134298222Y-110035087D01*
X134376853Y-110029817D01*
X134797000Y-110029817D01*
X134797000Y-109691517D01*
X133920070Y-109691517D01*
G37*
G36*
X134553441Y-110751628D02*
G01*
X134520175Y-111087218D01*
X134572416Y-111113284D01*
X134603632Y-111144371D01*
X134621510Y-111184710D01*
X134628179Y-111241384D01*
X134620466Y-111302713D01*
X134600115Y-111344039D01*
X134576671Y-111365092D01*
X134549044Y-111371810D01*
X134528167Y-111367926D01*
X134510673Y-111356326D01*
X134495628Y-111335393D01*
X134483087Y-111297545D01*
X134461703Y-111192658D01*
X134429485Y-111032238D01*
X134405503Y-110950491D01*
X134384356Y-110907841D01*
X134355251Y-110869760D01*
X134317429Y-110835745D01*
X134274117Y-110809775D01*
X134227304Y-110794271D01*
X134175866Y-110788997D01*
X134119717Y-110794797D01*
X134070282Y-110811624D01*
X134026096Y-110839482D01*
X133988450Y-110876422D01*
X133957169Y-110922186D01*
X133932233Y-110978188D01*
X133916176Y-111037913D01*
X133905337Y-111115376D01*
X133901312Y-111214346D01*
X133908464Y-111360246D01*
X133925419Y-111445083D01*
X133956628Y-111514308D01*
X134000230Y-111569646D01*
X134057918Y-111614053D01*
X134140182Y-111653764D01*
X134168758Y-111332316D01*
X134132244Y-111315212D01*
X134109114Y-111291796D01*
X134090714Y-111250007D01*
X134084201Y-111197933D01*
X134089818Y-111146835D01*
X134103618Y-111117113D01*
X134125428Y-111098080D01*
X134150367Y-111092054D01*
X134176542Y-111099608D01*
X134196309Y-111123561D01*
X134209659Y-111165757D01*
X134225471Y-111265418D01*
X134250227Y-111421003D01*
X134278008Y-111513739D01*
X134304451Y-111565177D01*
X134336506Y-111606409D01*
X134374288Y-111638816D01*
X134417698Y-111663068D01*
X134463315Y-111677431D01*
X134512041Y-111682267D01*
X134561287Y-111677336D01*
X134610178Y-111662335D01*
X134659540Y-111636398D01*
X134702567Y-111601480D01*
X134740545Y-111554144D01*
X134773479Y-111492050D01*
X134795449Y-111424919D01*
X134810252Y-111337195D01*
X134815757Y-111224165D01*
X134810271Y-111098959D01*
X134795695Y-111004203D01*
X134774432Y-110933940D01*
X134748200Y-110883006D01*
X134710846Y-110836757D01*
X134666558Y-110799797D01*
X134614527Y-110771430D01*
X134553441Y-110751628D01*
G37*
G36*
X134445533Y-111802676D02*
G01*
X134521203Y-111822046D01*
X134589573Y-111853654D01*
X134651825Y-111897873D01*
X134708706Y-111955868D01*
X134754117Y-112023355D01*
X134787436Y-112101313D01*
X134808376Y-112191646D01*
X134815757Y-112296733D01*
X134809947Y-112392403D01*
X134793431Y-112475593D01*
X134767202Y-112548098D01*
X134731716Y-112611430D01*
X134686870Y-112666761D01*
X134618252Y-112725075D01*
X134541446Y-112766500D01*
X134454812Y-112791890D01*
X134356043Y-112800704D01*
X134267688Y-112793604D01*
X134188901Y-112773073D01*
X134118004Y-112739600D01*
X134053720Y-112692773D01*
X134000756Y-112636371D01*
X133958917Y-112570224D01*
X133927913Y-112492848D01*
X133908273Y-112402215D01*
X133901638Y-112300836D01*
X134131096Y-112300836D01*
X134137189Y-112343487D01*
X134155189Y-112380942D01*
X134186270Y-112414702D01*
X134225792Y-112438727D01*
X134280398Y-112454759D01*
X134354798Y-112460791D01*
X134435045Y-112454644D01*
X134491889Y-112438592D01*
X134531239Y-112415069D01*
X134561835Y-112381532D01*
X134579810Y-112343185D01*
X134585974Y-112298345D01*
X134579782Y-112254108D01*
X134561602Y-112215732D01*
X134530433Y-112181621D01*
X134490552Y-112157449D01*
X134434794Y-112141226D01*
X134358095Y-112135093D01*
X134282600Y-112141229D01*
X134227187Y-112157539D01*
X134187076Y-112181988D01*
X134155726Y-112216439D01*
X134137370Y-112255501D01*
X134131096Y-112300836D01*
X133901638Y-112300836D01*
X133901312Y-112295854D01*
X133907077Y-112203251D01*
X133923541Y-112121960D01*
X133949834Y-112050357D01*
X133985612Y-111987084D01*
X134031078Y-111931101D01*
X134100136Y-111872125D01*
X134176981Y-111830354D01*
X134263196Y-111804827D01*
X134361026Y-111795986D01*
X134445533Y-111802676D01*
G37*
G36*
X133920070Y-112959852D02*
G01*
X133920070Y-113276831D01*
X134054819Y-113276831D01*
X134001009Y-113307254D01*
X133962538Y-113337037D01*
X133936337Y-113366224D01*
X133917280Y-113400170D01*
X133905464Y-113439666D01*
X133901312Y-113486025D01*
X133905939Y-113534654D01*
X133920737Y-113589056D01*
X133947547Y-113650522D01*
X134189348Y-113545449D01*
X134169219Y-113487373D01*
X134163922Y-113450780D01*
X134169966Y-113410732D01*
X134187404Y-113378144D01*
X134217191Y-113351129D01*
X134271370Y-113326013D01*
X134361347Y-113307373D01*
X134501930Y-113299838D01*
X134797000Y-113299838D01*
X134797000Y-112959852D01*
X133920070Y-112959852D01*
G37*
G36*
X143113007Y-105876884D02*
G01*
X143433503Y-105819877D01*
X143407892Y-105745615D01*
X143373870Y-105682933D01*
X143331619Y-105630239D01*
X143280729Y-105586430D01*
X143223456Y-105553442D01*
X143153134Y-105528296D01*
X143067167Y-105511956D01*
X142962505Y-105506050D01*
X142840849Y-105512882D01*
X142746727Y-105531278D01*
X142674825Y-105558737D01*
X142620687Y-105593757D01*
X142573727Y-105641325D01*
X142541218Y-105693181D01*
X142521710Y-105750318D01*
X142515027Y-105814309D01*
X142519869Y-105864959D01*
X142534145Y-105911684D01*
X142558039Y-105955432D01*
X142589844Y-105994323D01*
X142630842Y-106030233D01*
X142682383Y-106063217D01*
X142622130Y-106081945D01*
X142580900Y-106102198D01*
X142527120Y-106145377D01*
X142487037Y-106200090D01*
X142468885Y-106241817D01*
X142457536Y-106289728D01*
X142453551Y-106345024D01*
X142459607Y-106413902D01*
X142477821Y-106481027D01*
X142508799Y-106547330D01*
X142550844Y-106606705D01*
X142603464Y-106656168D01*
X142667875Y-106696441D01*
X142739081Y-106724024D01*
X142828584Y-106742138D01*
X142940376Y-106748757D01*
X143050185Y-106743728D01*
X143135160Y-106730235D01*
X143199909Y-106710289D01*
X143260326Y-106680253D01*
X143312236Y-106642797D01*
X143356566Y-106597669D01*
X143393198Y-106545719D01*
X143425000Y-106483258D01*
X143451601Y-106408698D01*
X143113080Y-106363928D01*
X143095399Y-106430916D01*
X143074825Y-106475745D01*
X143052411Y-106504173D01*
X143023220Y-106525164D01*
X142989076Y-106537950D01*
X142948583Y-106542421D01*
X142906563Y-106536939D01*
X142870319Y-106520959D01*
X142838381Y-106493914D01*
X142814543Y-106459154D01*
X142799657Y-106416584D01*
X142794344Y-106364075D01*
X142799597Y-106310449D01*
X142814053Y-106268634D01*
X142836769Y-106235994D01*
X142867632Y-106211271D01*
X142905331Y-106196092D01*
X142951880Y-106190711D01*
X142994528Y-106195018D01*
X143062669Y-106211228D01*
X143045010Y-105965910D01*
X142999434Y-105970307D01*
X142957965Y-105965613D01*
X142922487Y-105952093D01*
X142891650Y-105929713D01*
X142867341Y-105900461D01*
X142853240Y-105868780D01*
X142848492Y-105833579D01*
X142856865Y-105784857D01*
X142880586Y-105748729D01*
X142903798Y-105731615D01*
X142932755Y-105720914D01*
X142969099Y-105717076D01*
X143006388Y-105721179D01*
X143037359Y-105732842D01*
X143063401Y-105751880D01*
X143083062Y-105777682D01*
X143099990Y-105817692D01*
X143113007Y-105876884D01*
G37*
G36*
X142288761Y-106392358D02*
G01*
X141927452Y-106392358D01*
X141927452Y-106730000D01*
X142288761Y-106730000D01*
X142288761Y-106392358D01*
G37*
G36*
X141434180Y-105876884D02*
G01*
X141754675Y-105819877D01*
X141729064Y-105745615D01*
X141695042Y-105682933D01*
X141652792Y-105630239D01*
X141601901Y-105586430D01*
X141544628Y-105553442D01*
X141474307Y-105528296D01*
X141388340Y-105511956D01*
X141283677Y-105506050D01*
X141162021Y-105512882D01*
X141067900Y-105531278D01*
X140995998Y-105558737D01*
X140941859Y-105593757D01*
X140894899Y-105641325D01*
X140862391Y-105693181D01*
X140842882Y-105750318D01*
X140836200Y-105814309D01*
X140841042Y-105864959D01*
X140855317Y-105911684D01*
X140879211Y-105955432D01*
X140911016Y-105994323D01*
X140952014Y-106030233D01*
X141003555Y-106063217D01*
X140943302Y-106081945D01*
X140902072Y-106102198D01*
X140848292Y-106145377D01*
X140808210Y-106200090D01*
X140790058Y-106241817D01*
X140778709Y-106289728D01*
X140774724Y-106345024D01*
X140780780Y-106413902D01*
X140798994Y-106481027D01*
X140829972Y-106547330D01*
X140872016Y-106606705D01*
X140924636Y-106656168D01*
X140989047Y-106696441D01*
X141060254Y-106724024D01*
X141149756Y-106742138D01*
X141261549Y-106748757D01*
X141371358Y-106743728D01*
X141456332Y-106730235D01*
X141521081Y-106710289D01*
X141581498Y-106680253D01*
X141633408Y-106642797D01*
X141677739Y-106597669D01*
X141714370Y-106545719D01*
X141746172Y-106483258D01*
X141772773Y-106408698D01*
X141434253Y-106363928D01*
X141416572Y-106430916D01*
X141395998Y-106475745D01*
X141373583Y-106504173D01*
X141344392Y-106525164D01*
X141310249Y-106537950D01*
X141269755Y-106542421D01*
X141227735Y-106536939D01*
X141191491Y-106520959D01*
X141159553Y-106493914D01*
X141135715Y-106459154D01*
X141120829Y-106416584D01*
X141115516Y-106364075D01*
X141120769Y-106310449D01*
X141135225Y-106268634D01*
X141157941Y-106235994D01*
X141188805Y-106211271D01*
X141226503Y-106196092D01*
X141273053Y-106190711D01*
X141315700Y-106195018D01*
X141383841Y-106211228D01*
X141366182Y-105965910D01*
X141320607Y-105970307D01*
X141279137Y-105965613D01*
X141243660Y-105952093D01*
X141212822Y-105929713D01*
X141188513Y-105900461D01*
X141174413Y-105868780D01*
X141169665Y-105833579D01*
X141178037Y-105784857D01*
X141201758Y-105748729D01*
X141224971Y-105731615D01*
X141253927Y-105720914D01*
X141290272Y-105717076D01*
X141327560Y-105721179D01*
X141358532Y-105732842D01*
X141384574Y-105751880D01*
X141404234Y-105777682D01*
X141421163Y-105817692D01*
X141434180Y-105876884D01*
G37*
G36*
X140708485Y-105524808D02*
G01*
X140314790Y-105524808D01*
X140046025Y-106383199D01*
X139781364Y-105524808D01*
X139399173Y-105524808D01*
X139846870Y-106730000D01*
X140252581Y-106730000D01*
X140708485Y-105524808D01*
G37*
G36*
X169372326Y-108626106D02*
G01*
X169372326Y-108313414D01*
X168775152Y-108313414D01*
X168688211Y-108320457D01*
X168607296Y-108341196D01*
X168556706Y-108363275D01*
X168510771Y-108392234D01*
X168468994Y-108428391D01*
X168432419Y-108470005D01*
X168405039Y-108511482D01*
X168385829Y-108553138D01*
X168367931Y-108614328D01*
X168356455Y-108686161D01*
X168352368Y-108770331D01*
X168354814Y-108845055D01*
X168362626Y-108930249D01*
X168378672Y-109012469D01*
X168403293Y-109075268D01*
X168439543Y-109130375D01*
X168489877Y-109182063D01*
X168548198Y-109223569D01*
X168605770Y-109248375D01*
X168699246Y-109270504D01*
X168775152Y-109277135D01*
X169372326Y-109277135D01*
X169372326Y-108964443D01*
X168762085Y-108964443D01*
X168710061Y-108958986D01*
X168668858Y-108943815D01*
X168636056Y-108919624D01*
X168611556Y-108887065D01*
X168596246Y-108846295D01*
X168590749Y-108794939D01*
X168596156Y-108743980D01*
X168611222Y-108703437D01*
X168635323Y-108670985D01*
X168667749Y-108646847D01*
X168709127Y-108631618D01*
X168762085Y-108626106D01*
X169372326Y-108626106D01*
G37*
G36*
X168774420Y-107432735D02*
G01*
X169387958Y-107432735D01*
X169387958Y-107678138D01*
X168786326Y-108186041D01*
X168555578Y-108186041D01*
X168555578Y-107940760D01*
X168774420Y-107940760D01*
X169084181Y-107679176D01*
X168774420Y-107679176D01*
X168774420Y-107940760D01*
X168555578Y-107940760D01*
X168555578Y-107679176D01*
X168368000Y-107679176D01*
X168368000Y-107432735D01*
X168555578Y-107432735D01*
X168555578Y-107307072D01*
X168774420Y-107307072D01*
X168774420Y-107432735D01*
G37*
G36*
X161601958Y-105764246D02*
G01*
X161959896Y-105786887D01*
X161971355Y-105728692D01*
X161987182Y-105685176D01*
X162006424Y-105653311D01*
X162037383Y-105621764D01*
X162073884Y-105599275D01*
X162117033Y-105585326D01*
X162168504Y-105580404D01*
X162219734Y-105584991D01*
X162259160Y-105597490D01*
X162289404Y-105616821D01*
X162313572Y-105643331D01*
X162327239Y-105671116D01*
X162331756Y-105701158D01*
X162327498Y-105729737D01*
X162314555Y-105756545D01*
X162291602Y-105782491D01*
X162261124Y-105802178D01*
X162202583Y-105825163D01*
X162102412Y-105851294D01*
X161976044Y-105884883D01*
X161879044Y-105920977D01*
X161806226Y-105958629D01*
X161753047Y-105997254D01*
X161706441Y-106046584D01*
X161673849Y-106101077D01*
X161654116Y-106161839D01*
X161647314Y-106230554D01*
X161653242Y-106291129D01*
X161671040Y-106349461D01*
X161701390Y-106406556D01*
X161742187Y-106456582D01*
X161795612Y-106499920D01*
X161863762Y-106536688D01*
X161937697Y-106561220D01*
X162034771Y-106577779D01*
X162160371Y-106583949D01*
X162278422Y-106577498D01*
X162374142Y-106559765D01*
X162451278Y-106532694D01*
X162513033Y-106497487D01*
X162565849Y-106449894D01*
X162607695Y-106389510D01*
X162638793Y-106313990D01*
X162658113Y-106220003D01*
X162303473Y-106199267D01*
X162289553Y-106252186D01*
X162269913Y-106290637D01*
X162245294Y-106317822D01*
X162214027Y-106337205D01*
X162174187Y-106349640D01*
X162123441Y-106354166D01*
X162064815Y-106346724D01*
X162027454Y-106327494D01*
X162003247Y-106297593D01*
X161995434Y-106262794D01*
X162001610Y-106237387D01*
X162021665Y-106213189D01*
X162057323Y-106193694D01*
X162145277Y-106169665D01*
X162308851Y-106130244D01*
X162421381Y-106094949D01*
X162494788Y-106063785D01*
X162561469Y-106023351D01*
X162612006Y-105978999D01*
X162648881Y-105930648D01*
X162675565Y-105875876D01*
X162691673Y-105816884D01*
X162697168Y-105752595D01*
X162690000Y-105677424D01*
X162668712Y-105606805D01*
X162632834Y-105539445D01*
X162584781Y-105480177D01*
X162525394Y-105431059D01*
X162453169Y-105391580D01*
X162374690Y-105364881D01*
X162278993Y-105347517D01*
X162162789Y-105341242D01*
X162032061Y-105347448D01*
X161928440Y-105364302D01*
X161847248Y-105389587D01*
X161784407Y-105421749D01*
X161736561Y-105460017D01*
X161684184Y-105522801D01*
X161644439Y-105593522D01*
X161616901Y-105673435D01*
X161601958Y-105764246D01*
G37*
G36*
X163679830Y-105857742D02*
G01*
X164009851Y-105757651D01*
X163982285Y-105667197D01*
X163947357Y-105590839D01*
X163905584Y-105526695D01*
X163854350Y-105470256D01*
X163795978Y-105424239D01*
X163729729Y-105387990D01*
X163658168Y-105363241D01*
X163570238Y-105347095D01*
X163462722Y-105341242D01*
X163332328Y-105348411D01*
X163226645Y-105368108D01*
X163141494Y-105398175D01*
X163083309Y-105430708D01*
X163028233Y-105474088D01*
X162975904Y-105529507D01*
X162926219Y-105598576D01*
X162888265Y-105671381D01*
X162859983Y-105755511D01*
X162842060Y-105852816D01*
X162835727Y-105965453D01*
X162843025Y-106086712D01*
X162863652Y-106190848D01*
X162896203Y-106280386D01*
X162939978Y-106357455D01*
X162995022Y-106423702D01*
X163061092Y-106479341D01*
X163137419Y-106523412D01*
X163225530Y-106556057D01*
X163327430Y-106576674D01*
X163445503Y-106583949D01*
X163560973Y-106577302D01*
X163657257Y-106558779D01*
X163737372Y-106530028D01*
X163803881Y-106491992D01*
X163862752Y-106442024D01*
X163914833Y-106379203D01*
X163960261Y-106301733D01*
X163998640Y-106207254D01*
X163666055Y-106133321D01*
X163646579Y-106185396D01*
X163629711Y-106215020D01*
X163595276Y-106252505D01*
X163554314Y-106279867D01*
X163507649Y-106296766D01*
X163454516Y-106302581D01*
X163394385Y-106296015D01*
X163343655Y-106277245D01*
X163300270Y-106246461D01*
X163263054Y-106202271D01*
X163237284Y-106149780D01*
X163219433Y-106074022D01*
X163212569Y-105967505D01*
X163217587Y-105863143D01*
X163230719Y-105787015D01*
X163249575Y-105732951D01*
X163272579Y-105695736D01*
X163305127Y-105664151D01*
X163343280Y-105641569D01*
X163388156Y-105627551D01*
X163441400Y-105622609D01*
X163509222Y-105629956D01*
X163561114Y-105650127D01*
X163600842Y-105682034D01*
X163631659Y-105724554D01*
X163658282Y-105781936D01*
X163679830Y-105857742D01*
G37*
G36*
X164185193Y-106565191D02*
G01*
X164561229Y-106565191D01*
X164561229Y-105660125D01*
X165140817Y-105660125D01*
X165140817Y-105360000D01*
X164185193Y-105360000D01*
X164185193Y-106565191D01*
G37*
G36*
X161547077Y-114185191D02*
G01*
X161940772Y-114185191D01*
X162209537Y-113326800D01*
X162474198Y-114185191D01*
X162856390Y-114185191D01*
X162408692Y-112980000D01*
X162002981Y-112980000D01*
X161547077Y-114185191D01*
G37*
G36*
X162987768Y-114185191D02*
G01*
X163364610Y-114185191D01*
X163364610Y-112980000D01*
X162987768Y-112980000D01*
X162987768Y-114185191D01*
G37*
G36*
X163628466Y-114185191D02*
G01*
X163978783Y-114185191D01*
X164427726Y-113526468D01*
X164427726Y-114185191D01*
X164782440Y-114185191D01*
X164782440Y-112980000D01*
X164428825Y-112980000D01*
X163982374Y-113634986D01*
X163982374Y-112980000D01*
X163628466Y-112980000D01*
X163628466Y-114185191D01*
G37*
G36*
X161601958Y-103224246D02*
G01*
X161959896Y-103246887D01*
X161971355Y-103188692D01*
X161987182Y-103145176D01*
X162006424Y-103113311D01*
X162037383Y-103081764D01*
X162073884Y-103059275D01*
X162117033Y-103045326D01*
X162168504Y-103040404D01*
X162219734Y-103044991D01*
X162259160Y-103057490D01*
X162289404Y-103076821D01*
X162313572Y-103103331D01*
X162327239Y-103131116D01*
X162331756Y-103161158D01*
X162327498Y-103189737D01*
X162314555Y-103216545D01*
X162291602Y-103242491D01*
X162261124Y-103262178D01*
X162202583Y-103285163D01*
X162102412Y-103311294D01*
X161976044Y-103344883D01*
X161879044Y-103380977D01*
X161806226Y-103418629D01*
X161753047Y-103457254D01*
X161706441Y-103506584D01*
X161673849Y-103561077D01*
X161654116Y-103621839D01*
X161647314Y-103690554D01*
X161653242Y-103751129D01*
X161671040Y-103809461D01*
X161701390Y-103866556D01*
X161742187Y-103916582D01*
X161795612Y-103959920D01*
X161863762Y-103996688D01*
X161937697Y-104021220D01*
X162034771Y-104037779D01*
X162160371Y-104043949D01*
X162278422Y-104037498D01*
X162374142Y-104019765D01*
X162451278Y-103992694D01*
X162513033Y-103957487D01*
X162565849Y-103909894D01*
X162607695Y-103849510D01*
X162638793Y-103773990D01*
X162658113Y-103680003D01*
X162303473Y-103659267D01*
X162289553Y-103712186D01*
X162269913Y-103750637D01*
X162245294Y-103777822D01*
X162214027Y-103797205D01*
X162174187Y-103809640D01*
X162123441Y-103814166D01*
X162064815Y-103806724D01*
X162027454Y-103787494D01*
X162003247Y-103757593D01*
X161995434Y-103722794D01*
X162001610Y-103697387D01*
X162021665Y-103673189D01*
X162057323Y-103653694D01*
X162145277Y-103629665D01*
X162308851Y-103590244D01*
X162421381Y-103554949D01*
X162494788Y-103523785D01*
X162561469Y-103483351D01*
X162612006Y-103438999D01*
X162648881Y-103390648D01*
X162675565Y-103335876D01*
X162691673Y-103276884D01*
X162697168Y-103212595D01*
X162690000Y-103137424D01*
X162668712Y-103066805D01*
X162632834Y-102999445D01*
X162584781Y-102940177D01*
X162525394Y-102891059D01*
X162453169Y-102851580D01*
X162374690Y-102824881D01*
X162278993Y-102807517D01*
X162162789Y-102801242D01*
X162032061Y-102807448D01*
X161928440Y-102824302D01*
X161847248Y-102849587D01*
X161784407Y-102881749D01*
X161736561Y-102920017D01*
X161684184Y-102982801D01*
X161644439Y-103053522D01*
X161616901Y-103133435D01*
X161601958Y-103224246D01*
G37*
G36*
X163539838Y-102827695D02*
G01*
X163660046Y-102852826D01*
X163717542Y-102873569D01*
X163773410Y-102905166D01*
X163828207Y-102948740D01*
X163876110Y-102999961D01*
X163916857Y-103059179D01*
X163950573Y-103127306D01*
X163973247Y-103199924D01*
X163988769Y-103297671D01*
X163994610Y-103426699D01*
X163987053Y-103547637D01*
X163964935Y-103659926D01*
X163940792Y-103731236D01*
X163908944Y-103795378D01*
X163869387Y-103853147D01*
X163821794Y-103904090D01*
X163766489Y-103946485D01*
X163702618Y-103980715D01*
X163633884Y-104004062D01*
X163546992Y-104019520D01*
X163438103Y-104025191D01*
X162884087Y-104025191D01*
X162884087Y-103748513D01*
X163260123Y-103748513D01*
X163350395Y-103748513D01*
X163422904Y-103743255D01*
X163479119Y-103728989D01*
X163522381Y-103707302D01*
X163555266Y-103678757D01*
X163579064Y-103642963D01*
X163598418Y-103591179D01*
X163611840Y-103518469D01*
X163616962Y-103418932D01*
X163613050Y-103322066D01*
X163603091Y-103255369D01*
X163589338Y-103211423D01*
X163567555Y-103171659D01*
X163542189Y-103142511D01*
X163513134Y-103122177D01*
X163479330Y-103109530D01*
X163426758Y-103100323D01*
X163348783Y-103096678D01*
X163260123Y-103096678D01*
X163260123Y-103748513D01*
X162884087Y-103748513D01*
X162884087Y-102820000D01*
X163438103Y-102820000D01*
X163539838Y-102827695D01*
G37*
G36*
X164469418Y-103016957D02*
G01*
X164888832Y-103016957D01*
X164947890Y-102820000D01*
X165341585Y-102820000D01*
X164888099Y-104025191D01*
X164479969Y-104025191D01*
X164199408Y-103279567D01*
X164551117Y-103279567D01*
X164679931Y-103702424D01*
X164809551Y-103279567D01*
X164551117Y-103279567D01*
X164199408Y-103279567D01*
X164026484Y-102820000D01*
X164411166Y-102820000D01*
X164469418Y-103016957D01*
G37*
G36*
X170058045Y-111731613D02*
G01*
X170094884Y-111743072D01*
X170132857Y-111748563D01*
X170190798Y-111750766D01*
X170575554Y-111750766D01*
X170637808Y-111756717D01*
X170705686Y-111775532D01*
X170767728Y-111805923D01*
X170811126Y-111843383D01*
X170842346Y-111886616D01*
X170865943Y-111937049D01*
X170881761Y-111995937D01*
X170893918Y-112094629D01*
X170898687Y-112237517D01*
X170895083Y-112329480D01*
X170884765Y-112411833D01*
X170866776Y-112487490D01*
X170845271Y-112538669D01*
X170805515Y-112596904D01*
X170761593Y-112637441D01*
X170707376Y-112666416D01*
X170626991Y-112690417D01*
X170593725Y-112367064D01*
X170644316Y-112342541D01*
X170671175Y-112315773D01*
X170689631Y-112269392D01*
X170697040Y-112194066D01*
X170689937Y-112137211D01*
X170672713Y-112106432D01*
X170642545Y-112088805D01*
X170588450Y-112081666D01*
X170549322Y-112198023D01*
X170496565Y-112441289D01*
X170468805Y-112544443D01*
X170436395Y-112613527D01*
X170400944Y-112657371D01*
X170354847Y-112689548D01*
X170300727Y-112709234D01*
X170236374Y-112716136D01*
X170184827Y-112710976D01*
X170138447Y-112695891D01*
X170096071Y-112670785D01*
X170056928Y-112634656D01*
X170026838Y-112592316D01*
X170004181Y-112540013D01*
X169989536Y-112475640D01*
X169984242Y-112396593D01*
X169988597Y-112318783D01*
X169997244Y-112271150D01*
X170176510Y-112271150D01*
X170183112Y-112319087D01*
X170200470Y-112350284D01*
X170227674Y-112370256D01*
X170262166Y-112377029D01*
X170292834Y-112370483D01*
X170321077Y-112349918D01*
X170343225Y-112312938D01*
X170372954Y-112222203D01*
X170414720Y-112081666D01*
X170365554Y-112081666D01*
X170308221Y-112087080D01*
X170266928Y-112101450D01*
X170232978Y-112127118D01*
X170202815Y-112168641D01*
X170183116Y-112217817D01*
X170176510Y-112271150D01*
X169997244Y-112271150D01*
X170001024Y-112250325D01*
X170020805Y-112189963D01*
X170055459Y-112127102D01*
X170109172Y-112062102D01*
X170056855Y-112051258D01*
X170003000Y-112025832D01*
X170003000Y-111707535D01*
X170058045Y-111731613D01*
G37*
G36*
X171208191Y-111544063D02*
G01*
X171208191Y-111204956D01*
X170003000Y-111204956D01*
X170003000Y-111544063D01*
X171208191Y-111544063D01*
G37*
G36*
X171208191Y-110984039D02*
G01*
X171208191Y-110645738D01*
X170978408Y-110645738D01*
X170978408Y-110984039D01*
X171208191Y-110984039D01*
G37*
G36*
X170879929Y-110984039D02*
G01*
X170879929Y-110645738D01*
X170003000Y-110645738D01*
X170003000Y-110984039D01*
X170879929Y-110984039D01*
G37*
G36*
X170575114Y-110501097D02*
G01*
X170575114Y-110011122D01*
X170312504Y-110011122D01*
X170312504Y-110501097D01*
X170575114Y-110501097D01*
G37*
G36*
X170246558Y-109937409D02*
G01*
X170279824Y-109601819D01*
X170227583Y-109575753D01*
X170196367Y-109544667D01*
X170178489Y-109504328D01*
X170171820Y-109447653D01*
X170179533Y-109386325D01*
X170199884Y-109344998D01*
X170223328Y-109323945D01*
X170250955Y-109317228D01*
X170271832Y-109321112D01*
X170289326Y-109332712D01*
X170304371Y-109353644D01*
X170316912Y-109391493D01*
X170338296Y-109496380D01*
X170370514Y-109656800D01*
X170394496Y-109738547D01*
X170415643Y-109781196D01*
X170444748Y-109819277D01*
X170482570Y-109853292D01*
X170525882Y-109879263D01*
X170572695Y-109894766D01*
X170624133Y-109900040D01*
X170680282Y-109894240D01*
X170729717Y-109877413D01*
X170773903Y-109849555D01*
X170811549Y-109812615D01*
X170842830Y-109766851D01*
X170867766Y-109710849D01*
X170883823Y-109651124D01*
X170894662Y-109573661D01*
X170898687Y-109474691D01*
X170891535Y-109328791D01*
X170874580Y-109243955D01*
X170843371Y-109174729D01*
X170799769Y-109119391D01*
X170742081Y-109074984D01*
X170659817Y-109035274D01*
X170631241Y-109356722D01*
X170667755Y-109373825D01*
X170690885Y-109397242D01*
X170709285Y-109439031D01*
X170715798Y-109491104D01*
X170710181Y-109542202D01*
X170696381Y-109571924D01*
X170674571Y-109590957D01*
X170649632Y-109596983D01*
X170623457Y-109589430D01*
X170603690Y-109565476D01*
X170590340Y-109523280D01*
X170574528Y-109423620D01*
X170549772Y-109268034D01*
X170521991Y-109175298D01*
X170495548Y-109123860D01*
X170463493Y-109082629D01*
X170425711Y-109050221D01*
X170382301Y-109025970D01*
X170336684Y-109011607D01*
X170287958Y-109006771D01*
X170238712Y-109011701D01*
X170189821Y-109026703D01*
X170140459Y-109052639D01*
X170097432Y-109087557D01*
X170059454Y-109134893D01*
X170026520Y-109196987D01*
X170004550Y-109264119D01*
X169989747Y-109351842D01*
X169984242Y-109464872D01*
X169989728Y-109590078D01*
X170004304Y-109684835D01*
X170025567Y-109755097D01*
X170051799Y-109806031D01*
X170089153Y-109852280D01*
X170133441Y-109889240D01*
X170185472Y-109917607D01*
X170246558Y-109937409D01*
G37*
G36*
X170512784Y-107888064D02*
G01*
X170604496Y-107907682D01*
X170678282Y-107937793D01*
X170744303Y-107981560D01*
X170798570Y-108036399D01*
X170842120Y-108103463D01*
X170871694Y-108178240D01*
X170891396Y-108275224D01*
X170898687Y-108399705D01*
X170892975Y-108493334D01*
X170876730Y-108574813D01*
X170850918Y-108645892D01*
X170815972Y-108708044D01*
X170771778Y-108762406D01*
X170704362Y-108819313D01*
X170627872Y-108859998D01*
X170540526Y-108885097D01*
X170439852Y-108893857D01*
X170345624Y-108886193D01*
X170262657Y-108864141D01*
X170188966Y-108828351D01*
X170122924Y-108779667D01*
X170071578Y-108724737D01*
X170033261Y-108663048D01*
X170007725Y-108594652D01*
X169990603Y-108505244D01*
X169984242Y-108389813D01*
X169991901Y-108256902D01*
X170012270Y-108156916D01*
X170042274Y-108082946D01*
X170087498Y-108017444D01*
X170151323Y-107955979D01*
X170237180Y-107898299D01*
X170265683Y-108231837D01*
X170229985Y-108264190D01*
X170210215Y-108290162D01*
X170191926Y-108335285D01*
X170185889Y-108382486D01*
X170192332Y-108431067D01*
X170210954Y-108471929D01*
X170242309Y-108506976D01*
X170270330Y-108525596D01*
X170308453Y-108540089D01*
X170359399Y-108549548D01*
X170359399Y-108548742D01*
X170523530Y-108548742D01*
X170591482Y-108534322D01*
X170635564Y-108511006D01*
X170669874Y-108476031D01*
X170690068Y-108434976D01*
X170697040Y-108385783D01*
X170692216Y-108342161D01*
X170678551Y-108306238D01*
X170656300Y-108276314D01*
X170626423Y-108253751D01*
X170583519Y-108236285D01*
X170523530Y-108225169D01*
X170523530Y-108548742D01*
X170359399Y-108548742D01*
X170359399Y-107880933D01*
X170399259Y-107880933D01*
X170512784Y-107888064D01*
G37*
G36*
X170879929Y-107732482D02*
G01*
X170879929Y-107417116D01*
X170741224Y-107417116D01*
X170793148Y-107370481D01*
X170832504Y-107324708D01*
X170861025Y-107279510D01*
X170881300Y-107230266D01*
X170894136Y-107172532D01*
X170898687Y-107104681D01*
X170892968Y-107035648D01*
X170876810Y-106977458D01*
X170851035Y-106928124D01*
X170815522Y-106886181D01*
X170772094Y-106853786D01*
X170716806Y-106829165D01*
X170646948Y-106813071D01*
X170559140Y-106807193D01*
X170003000Y-106807193D01*
X170003000Y-107147179D01*
X170483816Y-107147179D01*
X170537345Y-107151259D01*
X170573920Y-107161745D01*
X170598122Y-107176854D01*
X170616207Y-107198666D01*
X170627389Y-107225981D01*
X170631387Y-107260459D01*
X170626263Y-107298048D01*
X170611406Y-107329772D01*
X170586251Y-107357106D01*
X170553609Y-107375638D01*
X170501777Y-107388912D01*
X170423146Y-107394182D01*
X170003000Y-107394182D01*
X170003000Y-107732482D01*
X170879929Y-107732482D01*
G37*
G36*
X170246558Y-106672371D02*
G01*
X170279824Y-106336781D01*
X170227583Y-106310715D01*
X170196367Y-106279628D01*
X170178489Y-106239289D01*
X170171820Y-106182615D01*
X170179533Y-106121286D01*
X170199884Y-106079960D01*
X170223328Y-106058907D01*
X170250955Y-106052189D01*
X170271832Y-106056073D01*
X170289326Y-106067673D01*
X170304371Y-106088606D01*
X170316912Y-106126454D01*
X170338296Y-106231341D01*
X170370514Y-106391761D01*
X170394496Y-106473508D01*
X170415643Y-106516158D01*
X170444748Y-106554239D01*
X170482570Y-106588254D01*
X170525882Y-106614224D01*
X170572695Y-106629728D01*
X170624133Y-106635002D01*
X170680282Y-106629202D01*
X170729717Y-106612375D01*
X170773903Y-106584517D01*
X170811549Y-106547577D01*
X170842830Y-106501813D01*
X170867766Y-106445811D01*
X170883823Y-106386086D01*
X170894662Y-106308623D01*
X170898687Y-106209653D01*
X170891535Y-106063753D01*
X170874580Y-105978916D01*
X170843371Y-105909691D01*
X170799769Y-105854353D01*
X170742081Y-105809946D01*
X170659817Y-105770235D01*
X170631241Y-106091683D01*
X170667755Y-106108787D01*
X170690885Y-106132203D01*
X170709285Y-106173992D01*
X170715798Y-106226066D01*
X170710181Y-106277164D01*
X170696381Y-106306886D01*
X170674571Y-106325919D01*
X170649632Y-106331945D01*
X170623457Y-106324391D01*
X170603690Y-106300438D01*
X170590340Y-106258242D01*
X170574528Y-106158581D01*
X170549772Y-106002996D01*
X170521991Y-105910260D01*
X170495548Y-105858822D01*
X170463493Y-105817590D01*
X170425711Y-105785183D01*
X170382301Y-105760931D01*
X170336684Y-105746568D01*
X170287958Y-105741732D01*
X170238712Y-105746663D01*
X170189821Y-105761664D01*
X170140459Y-105787601D01*
X170097432Y-105822519D01*
X170059454Y-105869855D01*
X170026520Y-105931949D01*
X170004550Y-105999080D01*
X169989747Y-106086804D01*
X169984242Y-106199834D01*
X169989728Y-106325040D01*
X170004304Y-106419796D01*
X170025567Y-106490059D01*
X170051799Y-106540993D01*
X170089153Y-106587242D01*
X170133441Y-106624202D01*
X170185472Y-106652569D01*
X170246558Y-106672371D01*
G37*
G36*
X170532311Y-104630395D02*
G01*
X170611098Y-104650926D01*
X170681995Y-104684399D01*
X170746279Y-104731226D01*
X170799243Y-104787628D01*
X170841082Y-104853775D01*
X170872086Y-104931151D01*
X170891726Y-105021784D01*
X170898687Y-105128145D01*
X170892922Y-105220748D01*
X170876458Y-105302039D01*
X170850165Y-105373642D01*
X170814387Y-105436915D01*
X170768921Y-105492898D01*
X170699863Y-105551874D01*
X170623018Y-105593645D01*
X170536803Y-105619172D01*
X170438973Y-105628013D01*
X170354466Y-105621323D01*
X170278796Y-105601953D01*
X170210426Y-105570345D01*
X170148174Y-105526126D01*
X170091293Y-105468131D01*
X170045882Y-105400644D01*
X170012563Y-105322686D01*
X169991623Y-105232353D01*
X169984242Y-105127266D01*
X169984340Y-105125654D01*
X170214025Y-105125654D01*
X170220217Y-105169891D01*
X170238397Y-105208267D01*
X170269566Y-105242378D01*
X170309447Y-105266550D01*
X170365205Y-105282773D01*
X170441904Y-105288906D01*
X170517399Y-105282770D01*
X170572812Y-105266460D01*
X170612923Y-105242011D01*
X170644273Y-105207560D01*
X170662629Y-105168498D01*
X170668903Y-105123163D01*
X170662810Y-105080512D01*
X170644810Y-105043057D01*
X170613729Y-105009297D01*
X170574207Y-104985272D01*
X170519601Y-104969240D01*
X170445201Y-104963208D01*
X170364954Y-104969355D01*
X170308110Y-104985407D01*
X170268760Y-105008930D01*
X170238164Y-105042467D01*
X170220189Y-105080814D01*
X170214025Y-105125654D01*
X169984340Y-105125654D01*
X169990052Y-105031596D01*
X170006568Y-104948406D01*
X170032797Y-104875901D01*
X170068283Y-104812569D01*
X170113129Y-104757238D01*
X170181747Y-104698924D01*
X170258553Y-104657499D01*
X170345187Y-104632109D01*
X170443956Y-104623295D01*
X170532311Y-104630395D01*
G37*
G36*
X170879929Y-104464147D02*
G01*
X170879929Y-104147168D01*
X170745180Y-104147168D01*
X170798990Y-104116745D01*
X170837461Y-104086962D01*
X170863662Y-104057775D01*
X170882719Y-104023829D01*
X170894535Y-103984333D01*
X170898687Y-103937974D01*
X170894060Y-103889345D01*
X170879262Y-103834943D01*
X170852452Y-103773477D01*
X170610651Y-103878550D01*
X170630780Y-103936626D01*
X170636077Y-103973219D01*
X170630033Y-104013267D01*
X170612595Y-104045855D01*
X170582808Y-104072870D01*
X170528629Y-104097986D01*
X170438652Y-104116626D01*
X170298069Y-104124161D01*
X170003000Y-104124161D01*
X170003000Y-104464147D01*
X170879929Y-104464147D01*
G37*
G36*
X161940992Y-111293115D02*
G01*
X161620496Y-111350122D01*
X161646107Y-111424384D01*
X161680129Y-111487066D01*
X161722380Y-111539760D01*
X161773270Y-111583569D01*
X161830543Y-111616557D01*
X161900865Y-111641703D01*
X161986832Y-111658043D01*
X162091494Y-111663949D01*
X162213150Y-111657117D01*
X162307272Y-111638721D01*
X162379174Y-111611262D01*
X162433312Y-111576242D01*
X162480272Y-111528674D01*
X162512781Y-111476818D01*
X162532289Y-111419681D01*
X162538972Y-111355690D01*
X162534130Y-111305040D01*
X162519854Y-111258315D01*
X162495960Y-111214567D01*
X162464155Y-111175676D01*
X162423157Y-111139766D01*
X162371616Y-111106782D01*
X162431869Y-111088054D01*
X162473099Y-111067801D01*
X162526879Y-111024622D01*
X162566962Y-110969909D01*
X162585114Y-110928182D01*
X162596463Y-110880271D01*
X162600448Y-110824975D01*
X162594392Y-110756097D01*
X162576178Y-110688972D01*
X162545200Y-110622669D01*
X162503155Y-110563294D01*
X162450535Y-110513831D01*
X162386124Y-110473558D01*
X162314918Y-110445975D01*
X162225415Y-110427861D01*
X162113623Y-110421242D01*
X162003814Y-110426271D01*
X161918839Y-110439764D01*
X161854090Y-110459710D01*
X161793673Y-110489746D01*
X161741763Y-110527202D01*
X161697433Y-110572330D01*
X161660801Y-110624280D01*
X161628999Y-110686741D01*
X161602398Y-110761301D01*
X161940919Y-110806071D01*
X161958600Y-110739083D01*
X161979174Y-110694254D01*
X162001588Y-110665826D01*
X162030779Y-110644835D01*
X162064923Y-110632049D01*
X162105416Y-110627578D01*
X162147436Y-110633060D01*
X162183680Y-110649040D01*
X162215618Y-110676085D01*
X162239456Y-110710845D01*
X162254342Y-110753415D01*
X162259655Y-110805924D01*
X162254402Y-110859550D01*
X162239946Y-110901365D01*
X162217230Y-110934005D01*
X162186367Y-110958728D01*
X162148668Y-110973907D01*
X162102119Y-110979288D01*
X162059471Y-110974981D01*
X161991330Y-110958771D01*
X162008989Y-111204089D01*
X162054565Y-111199692D01*
X162096034Y-111204386D01*
X162131512Y-111217906D01*
X162162349Y-111240286D01*
X162186658Y-111269538D01*
X162200759Y-111301219D01*
X162205507Y-111336420D01*
X162197134Y-111385142D01*
X162173413Y-111421270D01*
X162150201Y-111438384D01*
X162121244Y-111449085D01*
X162084900Y-111452923D01*
X162047611Y-111448820D01*
X162016640Y-111437157D01*
X161990598Y-111418119D01*
X161970937Y-111392317D01*
X161954009Y-111352307D01*
X161940992Y-111293115D01*
G37*
G36*
X162765238Y-110777641D02*
G01*
X163126547Y-110777641D01*
X163126547Y-110440000D01*
X162765238Y-110440000D01*
X162765238Y-110777641D01*
G37*
G36*
X163619819Y-111293115D02*
G01*
X163299324Y-111350122D01*
X163324935Y-111424384D01*
X163358957Y-111487066D01*
X163401207Y-111539760D01*
X163452098Y-111583569D01*
X163509371Y-111616557D01*
X163579692Y-111641703D01*
X163665659Y-111658043D01*
X163770322Y-111663949D01*
X163891978Y-111657117D01*
X163986099Y-111638721D01*
X164058001Y-111611262D01*
X164112140Y-111576242D01*
X164159100Y-111528674D01*
X164191608Y-111476818D01*
X164211117Y-111419681D01*
X164217799Y-111355690D01*
X164212957Y-111305040D01*
X164198682Y-111258315D01*
X164174788Y-111214567D01*
X164142983Y-111175676D01*
X164101985Y-111139766D01*
X164050444Y-111106782D01*
X164110697Y-111088054D01*
X164151927Y-111067801D01*
X164205707Y-111024622D01*
X164245789Y-110969909D01*
X164263941Y-110928182D01*
X164275290Y-110880271D01*
X164279275Y-110824975D01*
X164273219Y-110756097D01*
X164255005Y-110688972D01*
X164224027Y-110622669D01*
X164181983Y-110563294D01*
X164129363Y-110513831D01*
X164064952Y-110473558D01*
X163993745Y-110445975D01*
X163904243Y-110427861D01*
X163792450Y-110421242D01*
X163682641Y-110426271D01*
X163597667Y-110439764D01*
X163532918Y-110459710D01*
X163472501Y-110489746D01*
X163420591Y-110527202D01*
X163376260Y-110572330D01*
X163339629Y-110624280D01*
X163307827Y-110686741D01*
X163281226Y-110761301D01*
X163619746Y-110806071D01*
X163637427Y-110739083D01*
X163658001Y-110694254D01*
X163680416Y-110665826D01*
X163709607Y-110644835D01*
X163743750Y-110632049D01*
X163784244Y-110627578D01*
X163826264Y-110633060D01*
X163862508Y-110649040D01*
X163894446Y-110676085D01*
X163918284Y-110710845D01*
X163933170Y-110753415D01*
X163938483Y-110805924D01*
X163933230Y-110859550D01*
X163918774Y-110901365D01*
X163896058Y-110934005D01*
X163865194Y-110958728D01*
X163827496Y-110973907D01*
X163780946Y-110979288D01*
X163738299Y-110974981D01*
X163670158Y-110958771D01*
X163687817Y-111204089D01*
X163733392Y-111199692D01*
X163774862Y-111204386D01*
X163810339Y-111217906D01*
X163841177Y-111240286D01*
X163865486Y-111269538D01*
X163879586Y-111301219D01*
X163884334Y-111336420D01*
X163875962Y-111385142D01*
X163852241Y-111421270D01*
X163829028Y-111438384D01*
X163800072Y-111449085D01*
X163763727Y-111452923D01*
X163726439Y-111448820D01*
X163695467Y-111437157D01*
X163669425Y-111418119D01*
X163649765Y-111392317D01*
X163632836Y-111352307D01*
X163619819Y-111293115D01*
G37*
G36*
X164345514Y-111645191D02*
G01*
X164739209Y-111645191D01*
X165007974Y-110786800D01*
X165272635Y-111645191D01*
X165654826Y-111645191D01*
X165207129Y-110440000D01*
X164801418Y-110440000D01*
X164345514Y-111645191D01*
G37*
G36*
X162271086Y-108336120D02*
G01*
X162271086Y-108589351D01*
X162849648Y-108589351D01*
X162849648Y-108075415D01*
X162735802Y-108003836D01*
X162638898Y-107953893D01*
X162556557Y-107921835D01*
X162470971Y-107900111D01*
X162371293Y-107886189D01*
X162255479Y-107881242D01*
X162146486Y-107886451D01*
X162053183Y-107901096D01*
X161973462Y-107923964D01*
X161905454Y-107954221D01*
X161841829Y-107994993D01*
X161785975Y-108044350D01*
X161737292Y-108102880D01*
X161695528Y-108171549D01*
X161654871Y-108270226D01*
X161629778Y-108379893D01*
X161621083Y-108502595D01*
X161626537Y-108600903D01*
X161642300Y-108689936D01*
X161667734Y-108770866D01*
X161702562Y-108844706D01*
X161747905Y-108912924D01*
X161802312Y-108972111D01*
X161866420Y-109022966D01*
X161941285Y-109065771D01*
X162025220Y-109096190D01*
X162133301Y-109116461D01*
X162271013Y-109123949D01*
X162405304Y-109118980D01*
X162502218Y-109106073D01*
X162569893Y-109087826D01*
X162632965Y-109058957D01*
X162687573Y-109021689D01*
X162734683Y-108975718D01*
X162773620Y-108922279D01*
X162806794Y-108857836D01*
X162833822Y-108780666D01*
X162471048Y-108715673D01*
X162452136Y-108759324D01*
X162427266Y-108793937D01*
X162396309Y-108820893D01*
X162359866Y-108840130D01*
X162315944Y-108852303D01*
X162262806Y-108856650D01*
X162203740Y-108851095D01*
X162152875Y-108835187D01*
X162108595Y-108809308D01*
X162069806Y-108772826D01*
X162040854Y-108729698D01*
X162018378Y-108673285D01*
X162003441Y-108600366D01*
X161997925Y-108507065D01*
X162003642Y-108407282D01*
X162018959Y-108331026D01*
X162041704Y-108273587D01*
X162070612Y-108231046D01*
X162109612Y-108195617D01*
X162155418Y-108170092D01*
X162209386Y-108154167D01*
X162273431Y-108148541D01*
X162334328Y-108153065D01*
X162391620Y-108166420D01*
X162448818Y-108189108D01*
X162519481Y-108226870D01*
X162519481Y-108336120D01*
X162271086Y-108336120D01*
G37*
G36*
X163068075Y-109105191D02*
G01*
X163418392Y-109105191D01*
X163867335Y-108446468D01*
X163867335Y-109105191D01*
X164222049Y-109105191D01*
X164222049Y-107900000D01*
X163868434Y-107900000D01*
X163421983Y-108554986D01*
X163421983Y-107900000D01*
X163068075Y-107900000D01*
X163068075Y-109105191D01*
G37*
G36*
X165124876Y-107907695D02*
G01*
X165245085Y-107932826D01*
X165302580Y-107953569D01*
X165358448Y-107985166D01*
X165413246Y-108028740D01*
X165461148Y-108079961D01*
X165501896Y-108139179D01*
X165535612Y-108207306D01*
X165558285Y-108279924D01*
X165573807Y-108377671D01*
X165579648Y-108506699D01*
X165572091Y-108627637D01*
X165549973Y-108739926D01*
X165525830Y-108811236D01*
X165493982Y-108875378D01*
X165454425Y-108933147D01*
X165406832Y-108984090D01*
X165351528Y-109026485D01*
X165287656Y-109060715D01*
X165218922Y-109084062D01*
X165132030Y-109099520D01*
X165023141Y-109105191D01*
X164469125Y-109105191D01*
X164469125Y-108828513D01*
X164845161Y-108828513D01*
X164935434Y-108828513D01*
X165007942Y-108823255D01*
X165064158Y-108808989D01*
X165107419Y-108787302D01*
X165140304Y-108758757D01*
X165164102Y-108722963D01*
X165183456Y-108671179D01*
X165196879Y-108598469D01*
X165202000Y-108498932D01*
X165198089Y-108402066D01*
X165188130Y-108335369D01*
X165174376Y-108291423D01*
X165152593Y-108251659D01*
X165127227Y-108222511D01*
X165098173Y-108202177D01*
X165064369Y-108189530D01*
X165011796Y-108180323D01*
X164933822Y-108176678D01*
X164845161Y-108176678D01*
X164845161Y-108828513D01*
X164469125Y-108828513D01*
X164469125Y-107900000D01*
X165023141Y-107900000D01*
X165124876Y-107907695D01*
G37*
%TO.C,U3*%
X133223000Y-95504000D02*
X151765000Y-95504000D01*
X151765000Y-121920000D01*
X133223000Y-121920000D01*
X133223000Y-95504000D01*
X139700000Y-97028000D02*
X144780000Y-97028000D01*
X144780000Y-100076000D01*
X139700000Y-100076000D01*
X139700000Y-97028000D01*
G36*
X139700000Y-97028000D02*
G01*
X144780000Y-97028000D01*
X144780000Y-100076000D01*
X139700000Y-100076000D01*
X139700000Y-97028000D01*
G37*
X139700000Y-117348000D02*
X144780000Y-117348000D01*
X144780000Y-120396000D01*
X139700000Y-120396000D01*
X139700000Y-117348000D01*
G36*
X139700000Y-117348000D02*
G01*
X144780000Y-117348000D01*
X144780000Y-120396000D01*
X139700000Y-120396000D01*
X139700000Y-117348000D01*
G37*
X146558000Y-102108000D02*
X150876000Y-102108000D01*
X150876000Y-115316000D01*
X146558000Y-115316000D01*
X146558000Y-102108000D01*
D13*
%TO.C,J1*%
X147210000Y-126128000D02*
X147210000Y-127508000D01*
X148590000Y-126128000D02*
X147210000Y-126128000D01*
X149860000Y-126128000D02*
X149860000Y-128888000D01*
X149860000Y-126128000D02*
X157590000Y-126128000D01*
X149860000Y-128888000D02*
X157590000Y-128888000D01*
X157590000Y-126128000D02*
X157590000Y-128888000D01*
%TO.C,J2*%
X165138000Y-84218000D02*
X171158000Y-84218000D01*
X165138000Y-85848000D02*
X166138000Y-85848000D01*
X165138000Y-92968000D02*
X166138000Y-92968000D01*
X165138000Y-93218000D02*
X166138000Y-93218000D01*
X165138000Y-94598000D02*
X165138000Y-84218000D01*
X166138000Y-85598000D02*
X165138000Y-85598000D01*
X166138000Y-93218000D02*
X166138000Y-85598000D01*
X166138000Y-93218000D02*
X166668000Y-92968000D01*
X166668000Y-85848000D02*
X166138000Y-85598000D01*
X166668000Y-92968000D02*
X166668000Y-85848000D01*
X170128000Y-94888000D02*
X166128000Y-94888000D01*
X170558000Y-84798000D02*
X171158000Y-84798000D01*
X170558000Y-86398000D02*
X170558000Y-84798000D01*
X170558000Y-87338000D02*
X171158000Y-87338000D01*
X170558000Y-88938000D02*
X170558000Y-87338000D01*
X170558000Y-89878000D02*
X171158000Y-89878000D01*
X170558000Y-91478000D02*
X170558000Y-89878000D01*
X170558000Y-92418000D02*
X171158000Y-92418000D01*
X170558000Y-94018000D02*
X170558000Y-92418000D01*
X171158000Y-84218000D02*
X171158000Y-94598000D01*
X171158000Y-86398000D02*
X170558000Y-86398000D01*
X171158000Y-88938000D02*
X170558000Y-88938000D01*
X171158000Y-91478000D02*
X170558000Y-91478000D01*
X171158000Y-94018000D02*
X170558000Y-94018000D01*
X171158000Y-94598000D02*
X165138000Y-94598000D01*
%TO.C,U4*%
D12*
X158242000Y-115316000D02*
X153924000Y-115316000D01*
X153924000Y-102108000D01*
X158242000Y-102108000D01*
X158242000Y-115316000D01*
X165100000Y-100076000D02*
X160020000Y-100076000D01*
X160020000Y-97028000D01*
X165100000Y-97028000D01*
X165100000Y-100076000D01*
G36*
X165100000Y-100076000D02*
G01*
X160020000Y-100076000D01*
X160020000Y-97028000D01*
X165100000Y-97028000D01*
X165100000Y-100076000D01*
G37*
X165100000Y-120396000D02*
X160020000Y-120396000D01*
X160020000Y-117348000D01*
X165100000Y-117348000D01*
X165100000Y-120396000D01*
G36*
X165100000Y-120396000D02*
G01*
X160020000Y-120396000D01*
X160020000Y-117348000D01*
X165100000Y-117348000D01*
X165100000Y-120396000D01*
G37*
X171577000Y-121920000D02*
X153035000Y-121920000D01*
X153035000Y-95504000D01*
X171577000Y-95504000D01*
X171577000Y-121920000D01*
%TD*%
%LPC*%
D14*
%TO.C,H1*%
X168910000Y-80010000D03*
%TD*%
D15*
%TO.C,U1*%
X160020000Y-124460000D03*
X160020000Y-121920000D03*
X160020000Y-119380000D03*
X160020000Y-116840000D03*
X160020000Y-114300000D03*
X160020000Y-111760000D03*
X160020000Y-109220000D03*
X160020000Y-106680000D03*
X160020000Y-104140000D03*
X160020000Y-101600000D03*
X144780000Y-124460000D03*
X144780000Y-121920000D03*
X144780000Y-119380000D03*
X144780000Y-116840000D03*
X144780000Y-114300000D03*
X144780000Y-111760000D03*
X144780000Y-109220000D03*
X144780000Y-106680000D03*
X144780000Y-104140000D03*
X144780000Y-101600000D03*
%TD*%
D16*
%TO.C,J3*%
X137927000Y-88880000D03*
D17*
X135387000Y-88880000D03*
%TD*%
D14*
%TO.C,H3*%
X168910000Y-126492000D03*
%TD*%
D17*
%TO.C,U2*%
X147320000Y-79629000D03*
X149860000Y-79629000D03*
X152400000Y-79629000D03*
X154940000Y-79629000D03*
X157480000Y-79629000D03*
%TD*%
D14*
%TO.C,H2*%
X135890000Y-126492000D03*
%TD*%
%TO.C,H4*%
X135890000Y-80010000D03*
%TD*%
D18*
%TO.C,U3*%
X148844000Y-98552000D03*
X136144000Y-98552000D03*
X148844000Y-118872000D03*
X136144000Y-118872000D03*
D15*
X148844000Y-103632000D03*
X148844000Y-106172000D03*
X148844000Y-108712000D03*
X148844000Y-111252000D03*
X148844000Y-113792000D03*
%TD*%
D19*
%TO.C,J1*%
X148590000Y-127508000D03*
D20*
X151130000Y-127508000D03*
X153670000Y-127508000D03*
X156210000Y-127508000D03*
%TD*%
D21*
%TO.C,J2*%
X168128000Y-93218000D03*
D15*
X168128000Y-90678000D03*
X168128000Y-88138000D03*
X168128000Y-85598000D03*
%TD*%
D18*
%TO.C,U4*%
X155956000Y-118872000D03*
X168656000Y-118872000D03*
X155956000Y-98552000D03*
X168656000Y-98552000D03*
D15*
X155956000Y-113792000D03*
X155956000Y-111252000D03*
X155956000Y-108712000D03*
X155956000Y-106172000D03*
X155956000Y-103632000D03*
%TD*%
%LPD*%
M02*
